<svg xmlns="http://www.w3.org/2000/svg" viewBox="0 0 144.99 144.99"><defs><style>.cls-1{fill:#ef7800;}.cls-2{fill:#fff;}</style></defs><g id="Layer_2" data-name="Layer 2"><g id="圖層_1" data-name="圖層 1"><circle class="cls-1" cx="72.49" cy="72.49" r="72.49"/><path class="cls-2" d="M51.74,48c.19.11.31.2.31.28a.36.36,0,0,1-.31.4c-.37.06-.6.17-.69.37q-.88,3.16-2.41,7.23c-.69,1.82-1.37,3.55-2.08,5.23h9.5a.3.3,0,0,1,.34.34V63c0,.28-.11.46-.34.46H31.4c-.23,0-.34-.18-.34-.46V61.88a.3.3,0,0,1,.34-.34H44.45c.86-2,1.71-4.15,2.59-6.37a58.92,58.92,0,0,0,2-7.54c.09-.2.17-.31.23-.31Zm-6.46-8.7c0,.25-.11.39-.29.42s-.25.23-.25.57v2.9h10.1c.22,0,.34.15.34.43v.91c0,.28-.12.43-.34.43H32.51c-.23,0-.34-.15-.34-.43v-.91c0-.28.11-.43.34-.43h10.1V39.33c0-.23.14-.34.45-.34C44.54,39,45.28,39.1,45.28,39.33ZM39.59,53.78A45.82,45.82,0,0,1,41.07,59c0,.11-.68.34-2,.68A27.34,27.34,0,0,0,38,55.11a43.25,43.25,0,0,0-2.36-6.23c0-.11.54-.45,1.68-1A60,60,0,0,1,39.59,53.78Z"/><path class="cls-2" d="M63.05,61.17c.46-.11,1-.26,1.48-.4q2.56-.63,4.86-1.39a32.51,32.51,0,0,0-1.67-3.27c0-.12.51-.46,1.56-1,.91,1.71,1.68,3.24,2.25,4.64A33.74,33.74,0,0,1,73,63.87a8.46,8.46,0,0,1-1.91.57,20.13,20.13,0,0,0-.94-3.3c-2.95.91-5.94,1.77-8.93,2.5-.34.52-.59.8-.79.8s-.54-.82-1.11-2.45c.57-.08,1.16-.19,1.79-.34V40.09c0-.28.14-.42.46-.42h10c.28,0,.45.11.45.31V53.09a.4.4,0,0,1-.45.46H63.05Zm0-15.61h6.88v-4H63.05Zm0,6.11h6.88V47.32H63.05Zm14,12.43c0,.23-.2.34-.55.34H75.4c-.32,0-.46-.11-.46-.34V39.78a.4.4,0,0,1,.46-.45h8.44c.34,0,.54.17.54.45v18.6a2,2,0,0,1-1.25,1.82,10.42,10.42,0,0,1-3.07.69c-.23,0-.34-.12-.37-.35a5.35,5.35,0,0,0-.63-1.76c0-.08.06-.14.23-.14a6.24,6.24,0,0,0,2.62-.29,1,1,0,0,0,.48-.88V41.2H77.05Z"/><path class="cls-2" d="M95.56,41a21.48,21.48,0,0,1-3.73,1v3.1h4.44c.23,0,.34.17.34.46v.88c0,.31-.11.45-.34.45H91.83v3.67h4.55c.23,0,.34.14.34.43v.88c0,.31-.11.45-.34.45H91.83v3.79h6.23V50c0-.14.14-.23.43-.23,1.19,0,1.79.09,1.79.23s-.09.37-.23.37-.23.2-.23.51v5.24H102V48.43H98.6a.38.38,0,0,1-.43-.43V39c0-.15.15-.23.43-.23,1.2,0,1.79.08,1.79.23s-.08.36-.23.36-.22.2-.22.55v2.21h3.78c.14,0,.23.12.23.32v.91c0,.28-.09.42-.23.42H99.94v2.9h3.55c.29,0,.46.12.46.35v9.1h5.43V52.32h-4.21c-.23,0-.34-.14-.34-.45V51c0-.29.11-.43.34-.43h4.21V46.89h-4.21c-.23,0-.34-.14-.34-.45v-.88c0-.29.11-.46.34-.46h4.21V41.54h-4.32c-.23,0-.34-.14-.34-.42V40c0-.2.11-.31.34-.31h5.88c.29,0,.43.11.43.31V56.11h1.79c.23,0,.34.14.34.42v.91c0,.29-.11.43-.34.43H87.93c-.22,0-.34-.14-.34-.43v-.91c0-.28.12-.42.34-.42h1.91v-16a.28.28,0,0,1,.31-.31l1.31.51a12.52,12.52,0,0,0,1.74-.39,14.86,14.86,0,0,0,2.3-1,.77.77,0,0,1,.34-.17A7.84,7.84,0,0,1,97,40.89c0,.17-.08.23-.23.23l-.79-.23A2.84,2.84,0,0,0,95.56,41Zm2.33,18.21c.17.14.28.25.28.34s-.2.34-.57.34a1,1,0,0,0-.65.17,15.62,15.62,0,0,1-1.73,1.68,12.27,12.27,0,0,1-1.51,1.17c-.6.39-1.2.73-1.77,1.08l-1.45.68a.53.53,0,0,1-.42-.29,4,4,0,0,0-.83-1c-.22-.12-.31-.23-.31-.29S89,63,89,63c.8-.29,1.48-.57,2-.83a13.8,13.8,0,0,0,2.25-1.48,7.71,7.71,0,0,0,1.25-1.1,8.93,8.93,0,0,0,1-1.26.56.56,0,0,1,.28-.14Zm10.64,1.73a13.05,13.05,0,0,0,4,2.16,8.43,8.43,0,0,1-1.31,1.57,13.15,13.15,0,0,1-3.61-2,18.55,18.55,0,0,1-3.3-3.1c0-.14.51-.6,1.56-1.34A12.23,12.23,0,0,0,108.53,60.94Z"/><path class="cls-2" d="M28.3,74.33V73.11c0-.2.14-.31.43-.31,1.39,0,2.1.11,2.1.31s-.08.4-.25.43-.29.22-.29.57v.22H41.5c.14,0,.22.12.22.35v.88c0,.31-.08.45-.22.45H30.29v1.77h7.34c.28,0,.43.11.43.34v8c0,.23-.15.34-.43.34H30.29V88.3L36,88.07c.88,0,1.65-.06,2.33-.11a7,7,0,0,1-.45-.74c0-.12.51-.46,1.56-1,.51.86,1,1.65,1.31,2.36a16,16,0,0,1,.8,2.08,6.17,6.17,0,0,1-1.88.57,8.27,8.27,0,0,0-.57-1.71s0,0,0,0c-1,0-2.05.08-3.07.14V91.8h6c.15,0,.23.11.23.31V93c0,.29-.08.43-.23.43H36v3.21c0,1.42-1.16,2.13-3.44,2.13h-1c-.14,0-.2-.19-.2-.54a4.31,4.31,0,0,0-.48-1.47v-.12a6.21,6.21,0,0,0,1.57.23c1,0,1.56-.34,1.56-1V93.45H17.07c-.18,0-.23-.14-.23-.43v-.91c0-.2.05-.31.23-.31H34V89.72c-4.61.29-9.36.57-14.22.85-.17.49-.31.74-.46.77a.43.43,0,0,1-.31-.17l-.68-2.39c1.39,0,4.72-.17,10-.4V86.45H21.19c-.31,0-.46-.11-.46-.34v-8c0-.23.15-.34.46-.34H28.3V76H17.63c-.17,0-.22-.14-.22-.45v-.88c0-.23.05-.35.22-.35ZM23.66,93.76A28,28,0,0,1,27,96.06a.38.38,0,0,1,.14.29.51.51,0,0,1-.08.28l-.6.88a1.29,1.29,0,0,1-.51.18c-.12,0-.2-.09-.32-.2a20.89,20.89,0,0,0-3.1-2c-.17,0-.25-.14-.25-.25a1.12,1.12,0,0,1,.08-.37l.69-1.08a.73.73,0,0,1,.34-.12A.58.58,0,0,1,23.66,93.76ZM28.3,81.22V79.45H22.73v1.77Zm0,1.68H22.73v1.87H28.3Zm2-1.68h5.77V79.45H30.29Zm5.77,1.68H30.29v1.87h5.77Z"/><path class="cls-2" d="M60.18,73.22c0,.18-.14.32-.4.43a1,1,0,0,0-.62,1c-.06,1.39-.12,2.67-.17,3.81a23.47,23.47,0,0,0,.51,4.89A23.18,23.18,0,0,0,61,87.82a16.49,16.49,0,0,0,2.07,3.32,14.23,14.23,0,0,0,3.27,3.16A15.31,15.31,0,0,0,71,96.66a.55.55,0,0,1-.28.43c-.37.4-.72.79-1,1.19-.2.17-.31.29-.37.29a24.19,24.19,0,0,1-4.63-2.76,11.89,11.89,0,0,1-3.08-3.19,18.2,18.2,0,0,1-2.33-3.72,17.32,17.32,0,0,1-1.31-3.47c-.08.28-.17.57-.22.82a24.11,24.11,0,0,1-1.48,3.81,15.41,15.41,0,0,1-2.56,3.84A19.84,19.84,0,0,1,51,96.12a17,17,0,0,1-4.41,2.45c-.17,0-.28-.12-.39-.29a9.87,9.87,0,0,0-1.06-1.11c-.17-.17-.23-.25-.23-.28s.06-.17.2-.17a20.24,20.24,0,0,0,3.64-1.79,13.54,13.54,0,0,0,2.93-2.28,12.92,12.92,0,0,0,2.54-3.38,19.23,19.23,0,0,0,1.59-3.9,16.27,16.27,0,0,0,.74-3.9,52.54,52.54,0,0,0,.37-7.25A7,7,0,0,0,56.82,73c0-.12.06-.2.23-.2A11.68,11.68,0,0,1,60.18,73.22Z"/><path class="cls-2" d="M82.73,73.11c.2,0,.31.17.31.46v.88c0,.31-.11.45-.31.45h-1V98.45c0,.23-.15.34-.43.34H80.17a.3.3,0,0,1-.34-.34V93.62c-1.65.68-3.33,1.31-5,1.82-.28.54-.48.79-.65.79s-.54-.76-1.11-2.33c.54-.11,1.14-.25,1.76-.42V74.9h-.88c-.22,0-.34-.14-.34-.45v-.88c0-.29.12-.46.34-.46Zm-2.9,6.68V74.9h-3.1v4.89Zm0,6.32V81.56h-3.1v4.55Zm0,5.69V87.9h-3.1v5C77.81,92.57,78.86,92.2,79.83,91.8Zm9.22-18a1.94,1.94,0,0,0,.11.29c0,.17-.14.25-.43.25a.86.86,0,0,0-.79.32c-.89,1.62-1.71,3.1-2.51,4.4.37.4.74.83,1.14,1.26l.57-.91c.88-1.48,1.62-2.79,2.25-4a13.69,13.69,0,0,1,1.76,1.68c0,.12-.09.17-.26.17-.37,0-.59.09-.65.26-1.37,2.39-2.67,4.58-3.95,6.57.76-.06,1.65-.14,2.61-.26-.14-.85-.28-1.62-.39-2.3,0-.2.39-.48,1.22-.88a.3.3,0,0,1,.23.11c.39,1.56.76,3.24,1.1,5,0,.28-.08.42-.19.42a3,3,0,0,1-1.48.69c-.12-.63-.2-1.23-.29-1.77l-5.49,1.42a3.19,3.19,0,0,1-.76.66,8.52,8.52,0,0,1-.57-2.45A6.35,6.35,0,0,1,84,84.4c.71-1.08,1.34-2.07,1.88-2.93-.74-.65-1.31-1.13-1.71-1.42a15.91,15.91,0,0,0-2-1.17c0-.14.37-.59,1.11-1.36a.27.27,0,0,1,.23-.17c.23.17.45.37.68.57.46-.74.88-1.51,1.28-2.25.68-1.31,1.17-2.3,1.48-3ZM86,88.13c0,.23-.09.34-.23.37s-.23.2-.23.51v2.67h2.56c0-.42.06-.91.09-1.42,0-.85,0-1.7,0-2.59,0-.22.06-.34.23-.34a8.69,8.69,0,0,1,2.33.34.47.47,0,0,1-.25.37c-.23.06-.32.23-.32.52-.05,2.5-.14,4.12-.25,4.86a11.64,11.64,0,0,1-.51,2.16,4.55,4.55,0,0,1-2.71,3,4.11,4.11,0,0,1-.73.25.34.34,0,0,1-.37-.25,8.42,8.42,0,0,0-.74-1.11.78.78,0,0,1-.12-.43,4.89,4.89,0,0,0,1.54-.65,4.21,4.21,0,0,0,1-1.08,7.53,7.53,0,0,0,.57-1.82H85.49v.88c0,.23-.14.34-.43.34H84a.3.3,0,0,1-.34-.34V88c0-.14.12-.22.34-.22C85.26,87.79,86,87.9,86,88.13Zm11-14.42a1.72,1.72,0,0,1,.15.31c0,.17-.17.23-.46.23a.83.83,0,0,0-.77.31c-1,1.77-1.85,3.36-2.64,4.75.48.4,1,.8,1.42,1.22.23-.42.46-.82.65-1.19.8-1.42,1.45-2.73,2-3.9a12.79,12.79,0,0,1,1.8,1.68c0,.12-.09.17-.23.17-.34,0-.54.09-.6.23-1.16,2.3-2.3,4.41-3.44,6.31l2.7-.28c-.17-.8-.31-1.48-.42-2.11,0-.17.39-.48,1.19-.88a.31.31,0,0,1,.23.12c.45,1.59.85,3.3,1.22,5.12,0,.28-.06.42-.17.42a3,3,0,0,1-1.48.69c-.11-.74-.23-1.43-.34-2.08l-5,1.39a4,4,0,0,1-.76.69,8.52,8.52,0,0,1-.57-2.45c0-.06.37-.17,1.13-.31.55-.91,1-1.71,1.46-2.45-.8-.54-1.4-.94-1.8-1.17a17.07,17.07,0,0,0-2.13-1,5.26,5.26,0,0,1,1.11-1.4.27.27,0,0,1,.23-.17c.17.12.31.2.45.32a29.43,29.43,0,0,0,1.45-2.59c.71-1.4,1.23-2.45,1.54-3.16Zm-2.41,14c0,.26-.12.4-.29.43s-.28.23-.28.57v3H96.5V88c0-.14.11-.22.34-.22,1.31,0,2,.11,2,.34s-.09.34-.23.37-.23.2-.23.51v6.88c0,.23-.14.34-.42.34H96.84a.3.3,0,0,1-.34-.34V93.45H93.94v5c0,.23-.14.34-.43.34H92.37c-.28,0-.42-.11-.42-.34V87.67c0-.22.14-.34.42-.34C93.8,87.33,94.51,87.45,94.51,87.67Z"/><path class="cls-2" d="M110.23,73.79l.14.32c0,.17-.17.25-.45.25-.46,0-.77.12-.88.32-1.28,1.62-2.48,3.07-3.62,4.32.69.62,1.34,1.28,2,2l.26-.34c1.11-1.42,2-2.7,2.79-3.84a12.27,12.27,0,0,1,2,1.79c0,.12-.12.17-.34.17a1.36,1.36,0,0,0-.86.2c-1.76,2.33-3.52,4.47-5.23,6.4l4.27-.28c-.29-.69-.6-1.37-.94-2,0-.11.48-.4,1.45-.88a25.74,25.74,0,0,1,1.36,3,20.46,20.46,0,0,1,.86,2.68,7.87,7.87,0,0,1-1.77.54,17.49,17.49,0,0,0-.54-2.08l-2.36.46V98.34c0,.23-.17.34-.45.34h-1.11c-.29,0-.43-.11-.43-.34V87.08l-3.24.59c-.46.52-.71.77-.77.77a11.17,11.17,0,0,1-.57-2.64,6.58,6.58,0,0,1,1.85-.29c1.14-1.31,2.11-2.47,2.9-3.44-1.08-.88-1.88-1.51-2.39-1.91a18.28,18.28,0,0,0-2.56-1.36c0-.17.37-.65,1.17-1.51a.34.34,0,0,1,.26-.17,12.14,12.14,0,0,1,1,.74A28.77,28.77,0,0,0,106,75.5c1-1.31,1.64-2.28,2.07-2.93Zm-4.52,15.87a.46.46,0,0,1-.34.46.64.64,0,0,0-.32.51,33.49,33.49,0,0,1-.65,4.27c-.17.62-.37,1.25-.6,1.88-.08.14-.14.22-.2.22a9.72,9.72,0,0,0-1.65-.4c-.17,0-.22-.14-.22-.25a28,28,0,0,0,.94-2.73,29.43,29.43,0,0,0,.62-4.3.27.27,0,0,1,.31-.31C105,89.29,105.71,89.52,105.71,89.66Zm5.66-.11a50.42,50.42,0,0,1,1.79,6.12c0,.22-.57.39-1.68.56-.22,0-.34-.08-.34-.25a56,56,0,0,0-1.31-6.09c0-.17.49-.34,1.45-.54C111.31,89.35,111.34,89.44,111.37,89.55ZM119.08,73q.42.21.42.42c0,.23-.17.4-.45.51a.61.61,0,0,0-.68.54,2.21,2.21,0,0,1-.18.4h7.86a1.36,1.36,0,0,1,.68.09,1,1,0,0,1,.2.57,24.43,24.43,0,0,1-2.82,5.4,16.13,16.13,0,0,1-1.9,2.3,8.65,8.65,0,0,0,2.27,1.48,13.54,13.54,0,0,0,3.44,1.31c.14.06.23.12.23.17a.39.39,0,0,1-.14.32,12.23,12.23,0,0,0-1.08,1.08c-.15.2-.26.28-.32.28a1.32,1.32,0,0,1-.45-.2,21.49,21.49,0,0,1-2.19-.91,15,15,0,0,1-2.65-1.65,7.31,7.31,0,0,1-.57-.51c-.25.23-.51.43-.76.63a13.28,13.28,0,0,1-5.07,2.64.51.51,0,0,1-.45-.37,10.56,10.56,0,0,0-.77-1.42c0-.29.11-.46.37-.51a13.31,13.31,0,0,0,3.24-1.28,10.53,10.53,0,0,0,2-1.28c-.06-.06-.12-.09-.12-.12a8.83,8.83,0,0,1-1.51-2.67A14.23,14.23,0,0,1,116.8,78a15.24,15.24,0,0,1-1.54,2.62c-.25.34-.42.51-.54.51a.72.72,0,0,1-.48-.2l-1.08-.45c-.17-.06-.23-.09-.23-.14a.92.92,0,0,1,.17-.35,22.47,22.47,0,0,0,2.28-3.35A15.27,15.27,0,0,0,117,72.88c.11-.34.23-.54.37-.54Zm6.85,15.1c.29,0,.46.11.46.31v9.79c0,.22-.17.34-.46.34h-1.11c-.31,0-.45-.12-.45-.34V97h-7.54v1.23c0,.22-.17.34-.46.34h-1.11c-.28,0-.42-.12-.42-.34V88.56a.37.37,0,0,1,.42-.43Zm-1.56,7.11V89.89h-7.54v5.35Zm-5.44-16.7a10.85,10.85,0,0,0,1.4,2.71,3.53,3.53,0,0,0,.37.51,23.35,23.35,0,0,0,3.61-5.09h-6A10.92,10.92,0,0,0,118.93,78.54Z"/></g></g></svg>