<svg xmlns="http://www.w3.org/2000/svg" xmlns:xlink="http://www.w3.org/1999/xlink" viewBox="0 0 229.06 207.62"><defs><style>.cls-1{isolation:isolate;}.cls-2{fill:#f79c7c;}.cls-3{fill:#fcd7cb;}.cls-4{fill:#e4e4e4;}.cls-12,.cls-19,.cls-21,.cls-26,.cls-4,.cls-9{mix-blend-mode:multiply;}.cls-5{fill:#fff;}.cls-6{fill:none;stroke:#221714;stroke-linecap:round;stroke-linejoin:round;stroke-width:1.31px;}.cls-7{fill:#221714;}.cls-8{fill:#619b0e;}.cls-9{fill:#e6dceb;}.cls-10{fill:url(#linear-gradient);}.cls-11{fill:url(#linear-gradient-2);}.cls-12{fill:#f2e8f7;}.cls-13{fill:#769908;}.cls-14{fill:#f2b32c;}.cls-15{fill:#f2cc2c;}.cls-16,.cls-17,.cls-24,.cls-34,.cls-35{mix-blend-mode:overlay;}.cls-16,.cls-17,.cls-24{opacity:0.5;}.cls-16{fill:url(#linear-gradient-3);}.cls-17{fill:url(#linear-gradient-4);}.cls-18{fill:#aa182a;}.cls-19{fill:#e1d7e6;}.cls-20{fill:url(#linear-gradient-5);}.cls-22,.cls-26{fill:#e3dbe8;}.cls-23{fill:url(#linear-gradient-6);}.cls-24{fill:url(#linear-gradient-7);}.cls-25{fill:url(#linear-gradient-8);}.cls-27{fill:#401b09;}.cls-28{fill:url(#linear-gradient-9);}.cls-29{fill:url(#linear-gradient-10);}.cls-30{fill:#dae7ed;}.cls-31{fill:url(#linear-gradient-11);}.cls-32{fill:url(#linear-gradient-12);}.cls-33{fill:url(#linear-gradient-13);}.cls-34,.cls-35{opacity:0.7;}.cls-34{fill:url(#linear-gradient-14);}.cls-35{fill:url(#linear-gradient-15);}</style><linearGradient id="linear-gradient" x1="116.82" y1="138.92" x2="116.82" y2="103.8" gradientUnits="userSpaceOnUse"><stop offset="0" stop-color="#9bc725"/><stop offset="1" stop-color="#a9f272"/></linearGradient><linearGradient id="linear-gradient-2" x1="117.29" y1="121.87" x2="117.29" y2="103.8" gradientUnits="userSpaceOnUse"><stop offset="0" stop-color="#c6f6a2"/><stop offset="1" stop-color="#fff"/></linearGradient><linearGradient id="linear-gradient-3" x1="98.86" y1="120.76" x2="132.22" y2="120.76" gradientUnits="userSpaceOnUse"><stop offset="0" stop-color="#fff"/><stop offset="1" stop-color="gray"/></linearGradient><linearGradient id="linear-gradient-4" x1="127.67" y1="123.49" x2="134.88" y2="123.49" gradientUnits="userSpaceOnUse"><stop offset="0" stop-color="gray"/><stop offset="0.16" stop-color="#858585"/><stop offset="0.34" stop-color="#929292"/><stop offset="0.53" stop-color="#a8a8a8"/><stop offset="0.73" stop-color="#c7c7c7"/><stop offset="0.93" stop-color="#eee"/><stop offset="1" stop-color="#fff"/></linearGradient><linearGradient id="linear-gradient-5" x1="2973.62" y1="-25.2" x2="2973.62" y2="-60.16" gradientTransform="matrix(-0.61, 0.79, -0.79, -0.61, 1900.33, -2249.4)" gradientUnits="userSpaceOnUse"><stop offset="0" stop-color="#d43744"/><stop offset="1" stop-color="#f23b3a"/></linearGradient><linearGradient id="linear-gradient-6" x1="696.98" y1="1336.52" x2="727.17" y2="1336.52" gradientTransform="matrix(0.79, 0.61, -0.61, 0.79, 370.12, -1362.18)" gradientUnits="userSpaceOnUse"><stop offset="0" stop-color="#f2b32c"/><stop offset="0.4" stop-color="#f2b82c"/><stop offset="0.83" stop-color="#f2c52c"/><stop offset="1" stop-color="#f2cc2c"/></linearGradient><linearGradient id="linear-gradient-7" x1="2965.1" y1="-42.57" x2="2980.97" y2="-42.57" gradientTransform="matrix(-0.61, 0.79, -0.79, -0.61, 1900.33, -2249.4)" xlink:href="#linear-gradient-3"/><linearGradient id="linear-gradient-8" x1="110.71" y1="123.36" x2="145.77" y2="123.36" gradientUnits="userSpaceOnUse"><stop offset="0" stop-color="#792200"/><stop offset="1" stop-color="#793800"/></linearGradient><linearGradient id="linear-gradient-9" x1="112.21" y1="123.36" x2="143.49" y2="123.36" gradientUnits="userSpaceOnUse"><stop offset="0" stop-color="#f28f2c"/><stop offset="1" stop-color="#f2b32c"/></linearGradient><linearGradient id="linear-gradient-10" x1="235.95" y1="553.75" x2="235.95" y2="503.01" gradientTransform="matrix(0.98, 0.2, -0.2, 0.98, 15.1, -445.18)" gradientUnits="userSpaceOnUse"><stop offset="0" stop-color="#cdebf9"/><stop offset="1" stop-color="#f2edf4"/></linearGradient><linearGradient id="linear-gradient-11" x1="233.24" y1="501.45" x2="238.65" y2="501.45" gradientTransform="translate(-90.28 -408.05)" gradientUnits="userSpaceOnUse"><stop offset="0" stop-color="#68cdf2"/><stop offset="1" stop-color="#2cb3f2"/></linearGradient><linearGradient id="linear-gradient-12" x1="235.95" y1="552.49" x2="235.95" y2="512.14" gradientTransform="matrix(0.98, 0.2, -0.2, 0.98, 15.1, -445.18)" gradientUnits="userSpaceOnUse"><stop offset="0" stop-color="#8fd2f2"/><stop offset="1" stop-color="#d7dfe6"/></linearGradient><linearGradient id="linear-gradient-13" x1="227.77" y1="525.1" x2="244.13" y2="525.1" gradientTransform="matrix(0.98, 0.2, -0.2, 0.98, 15.1, -445.18)" xlink:href="#linear-gradient-11"/><linearGradient id="linear-gradient-14" x1="228.17" y1="528.12" x2="237.06" y2="528.12" gradientTransform="matrix(0.98, 0.2, -0.2, 0.98, 15.1, -445.18)" xlink:href="#linear-gradient-3"/><linearGradient id="linear-gradient-15" x1="235.94" y1="528.12" x2="243.61" y2="528.12" gradientTransform="matrix(0.98, 0.2, -0.2, 0.98, 15.1, -445.18)" xlink:href="#linear-gradient-4"/></defs><g class="cls-1"><g id="Layer_2" data-name="Layer 2"><g id="圖層_1" data-name="圖層 1"><path class="cls-2" d="M227,107.9c-9.2,48.79-48.07,99.37-96.56,99.37-53.7,0-92.86-36.74-108-89.63C6.28,61.37,76.59-5.44,151.37.35c31.23,2.42,57,25.1,70,51C229.49,67.3,230.85,87.44,227,107.9Z"/><path class="cls-3" d="M21.68,201.71c-7,2.52-16.28,1.53-19.72-4.43-3.81-6.6-1.83-14.16,3.94-20,6.15-6.2,19.79-2.55,24.35,7.07,1.9,4,.79,8.88-1.63,12.43A14.08,14.08,0,0,1,21.68,201.71Z"/><path class="cls-4" d="M94.7,196.67c0-.23.46-.44.4-.66-.52-1.79,2.14-1.73,4.13-3.11,3.77-2.61,3.77-2.61,11.46-1.58,12.19,1.64,8,1.16,20.66.94,10.29-.17,44.18-8.49,44.84-.64.36,4.18-32.51,12.9-37.07,14.13C126.08,209.28,91.79,208.61,94.7,196.67Z"/><path class="cls-5" d="M104.55,104.89c2.42.19,21,6.22,23.85,6.89,15.15,3.58,27.16,8.51,25.12,9.45,4.5,3.58,4.69,13.52-3.07,14.28-1.72,3.85,1.65,10.59-1.44,15.36-.13.2,5.57,5.77,6.06,6.25,2.81,2.74,5.28,5.35,6.92,9,1.83,4.06,2.58,8.64,5.21,12.23a14.1,14.1,0,0,0,4.59,4,10.35,10.35,0,0,1,3.5,2.34c.85,1.13.75,3.1-.58,3.58a6.22,6.22,0,0,0-6.23-1.35,3.6,3.6,0,0,1-2.24.42c-.92-.3-1.24-1.39-1.72-2.23-.94-1.65-2.77-2.54-4.47-3.4A66.5,66.5,0,0,1,148,173.8a34.25,34.25,0,0,0-12.22-6.3c-3.89-1.17-7.91-1.42-11.92-1.82-5.19-.52-8-2.1-11.5,1.93-4.39,5.06-6.51,13-9.48,19-.68,1.37,1.07,3.17.45,4.53s-2.17,1-3.28,1.78c-1.92,1.31-1.7,1.33-2.48,3.53-.77-.24-2.7.5-2.89-.52-.49-2.58,1.92-6.58,2-9.44.15-6.8-5.11-12.8-4.94-19.68,0-1.53.29-3.05.19-4.58-.29-4.08-1.4-8.07-1.7-12.16-.32-4.37.59-8.7.62-13.08.08-14.49,9.79-26.75,13.77-32.1"/><path class="cls-5" d="M153,121.73c.79.07,2.72-1.59,3.37-2,1.14-.76,2.23-1.57,3.29-2.44a41.4,41.4,0,0,0,5.75-5.79,38.23,38.23,0,0,0,7.16-14.19c0-.17.08-.34.13-.5,3.2-12.66.8-25.33-5-36.68a57.55,57.55,0,0,0-3.28-5.61,9.2,9.2,0,0,0,3.53-7.11,9.36,9.36,0,0,0-9.1-9.38A8.84,8.84,0,0,0,151,41.24a38.09,38.09,0,0,0-9.5-4.15c-.93-.47-1.78-.88-1.91-1a41.82,41.82,0,0,1-4.56-3c-1.35-1-1.83-.75-3.38-.31-.39.12,1.44-1.4.88-1.26-.39.09.12-.1-.5-.69s-3.59,1.17-4.8,2.06a1.16,1.16,0,0,1-.48.27c.36-.07-.77-.61-.81-.62-.55-.13-1.3.47-1.8.62a35.27,35.27,0,0,0-4,1.26,48.35,48.35,0,0,0-6,.88,39.88,39.88,0,0,0-6.87,2.22A10.13,10.13,0,1,0,91.21,49.42a85.57,85.57,0,0,0-9.88,13.73C75.87,72.68,74,87.93,77.65,98.6c2,5.76,6.32,10.88,10.38,15.1a47.5,47.5,0,0,0,21.58,12.4"/><path class="cls-5" d="M96.41,141a16.29,16.29,0,0,1-5.89-5.84,8.8,8.8,0,0,1-1.5-5.34,12.71,12.71,0,0,1,1.33-4.17,54.81,54.81,0,0,1,2.79-5.19c1.18-1.92,2.8-3.93,4.5-3.7"/><path class="cls-6" d="M129.4,85.51c0,.48-.5,5.11-.51,5.14a3.16,3.16,0,0,1-2.15,2.13,3.45,3.45,0,0,1-4.37-1.3"/><path class="cls-6" d="M128.84,90.93c.66,1.08,1,1.91,2.51,2.17a3.11,3.11,0,0,0,3.7-1.68"/><path class="cls-7" d="M127.47,87.15a4.51,4.51,0,0,1-2.46-.83,2,2,0,0,1,0-3.25c1.5-.9,3.81-.44,5.37-.42,1.39,0,2.21-.22,3.44.29s.31,3.11-.67,3.7a6.88,6.88,0,0,1-7.94-.19c-2-1.47-1.53-3.49.86-3.72"/><path class="cls-7" d="M114,77.07a6.24,6.24,0,0,1,4.37-1.24c1.23,0,3.06.27,3.76,1.42.41.68,1.48.06,1.06-.62-.93-1.54-3-2-4.71-2a7.48,7.48,0,0,0-5.35,1.6c-.58.54.29,1.41.87.87Z"/><path class="cls-7" d="M137.63,78.66a1.8,1.8,0,0,1,1.22-.83,7.08,7.08,0,0,1,2.25-.15,7,7,0,0,1,4,1.39c.58.54,1.45-.33.87-.87a8.27,8.27,0,0,0-5-1.76c-1.5-.1-3.65.08-4.44,1.6-.36.71.7,1.33,1.07.62Z"/><path class="cls-7" d="M126,92.51l-.17,0a1.08,1.08,0,0,0-.49.18c-.83.65,0,1.86.38,2.46a2.16,2.16,0,0,0,1.44,1,4,4,0,0,0,3.19-.75c.73-.61.67-1.14,1-2,0,0-1-.88-1.11-1a4.33,4.33,0,0,1-.79-1.32A9.56,9.56,0,0,1,126,92.51Z"/><path class="cls-8" d="M136.82,103.88l-.73,1.22-6.88,3.35-18.84-.8-1.88-.08-5.4-.22-4-3.35-.38-1.43a8.9,8.9,0,0,1,2.52,0,24.47,24.47,0,0,1,3,.27,10.81,10.81,0,0,1,1.8.46,20.46,20.46,0,0,0,4.25,1.16,14.51,14.51,0,0,0,4.09.1c1.06-.23,2.17-.41,3.41-.68.42-.09.86-.19,1.31-.31a10.62,10.62,0,0,1,3.93-.27,3.08,3.08,0,0,1,1,.21,6.07,6.07,0,0,0,2,.58c1.36.11,2.62.79,4.72.32l1.09-.24a12.57,12.57,0,0,1,3.53-.34C136.4,103.88,136.82,103.88,136.82,103.88Z"/><path class="cls-9" d="M117.78,103.83a2,2,0,0,1-.37,1.84l-7,2-1.14.32s-.3-.15-.74-.4c-1.08-.62-3-1.88-3.2-3a3.51,3.51,0,0,0-1.06-1.78,10.81,10.81,0,0,1,1.8.46,20.46,20.46,0,0,0,4.25,1.16,14.51,14.51,0,0,0,4.09.1C115.43,104.28,116.54,104.1,117.78,103.83Z"/><path class="cls-9" d="M131.77,104.12a17.05,17.05,0,0,1-4.66,1.76l-3.56-.79.43-1.63a6.07,6.07,0,0,0,2,.58c1.36.11,2.62.79,4.72.32Z"/><path class="cls-8" d="M136.92,139.13s-1.4,0-2.81-.07c-.44,0-.88-.08-1.28-.14a11.16,11.16,0,0,0-4.83.52,10.14,10.14,0,0,1-2.94.44l-.46,0a9.57,9.57,0,0,1-4.67-1.52,1.14,1.14,0,0,0-.48-.31c-.65-.26-1.58-.28-2.15-.48-.73-.26-6.92.26-8.49.52-1.23.21-2.74.41-4.49.69l-1.54.26a19.7,19.7,0,0,1-6.19-.47l1-1.41,3.45-1.32,8.22,0,9.65,0,13,0c.16,0,4.26,1.53,4.26,1.53Z"/><path class="cls-9" d="M118.86,135.94l3.48.93a14.1,14.1,0,0,0-2.89,1.22c-.65-.26-1.58-.28-2.15-.48-.73-.26-6.92.26-8.49.52-1.23.21-2.74.41-4.49.69A15.51,15.51,0,0,0,107,137a6.35,6.35,0,0,1,2.24-1.12,26,26,0,0,1,6.1-.92Z"/><path class="cls-9" d="M134.11,139.06c-.44,0-.88-.08-1.28-.14a11.16,11.16,0,0,0-4.83.52,10.14,10.14,0,0,1-2.94.44,12.7,12.7,0,0,0,3.15-2c2.31-2,3.1-.42,3.1-.42A13.23,13.23,0,0,0,134.11,139.06Z"/><path class="cls-10" d="M135.38,134.62a14.75,14.75,0,0,0,.71,2.89s-4.87.63-7.86,1.26-4.72-.94-8.34-1.41a29.38,29.38,0,0,0-4.36,0h0c-5.62.26-14.22,1-18-.16,1.24-2.17,1.72-6.93,1.89-8.43h0v-.07c.15-1.35-.85-5.16-.93-7.41,0-.1,0-.2,0-.3,0-2.2.94-7.39,1.26-9.75a14.38,14.38,0,0,0,0-2.92c-.18-2.15-.6-4.32-.6-4.32a40.28,40.28,0,0,1,5.88-.17h.25c3.62.16,6.46,1.89,8.66,1.73a44.18,44.18,0,0,0,4.39-.68,27.75,27.75,0,0,1,2.85-.42c2-.16,7.86.63,9,.63h6a12.3,12.3,0,0,1-.78,4.09,15.9,15.9,0,0,0-.84,2.26h0a7.41,7.41,0,0,0-.11,2.3c.14,1.77,1.1,5.19,1.15,8.12a9.53,9.53,0,0,1,0,1.32c-.31,3.15,0,7.71-.15,9.76a7.22,7.22,0,0,0,.07,1.67Z"/><path class="cls-11" d="M134.36,113.75c.14,1.77,1.1,5.19,1.15,8.12-1-.56-2.34-1-3.15-1.57-1.05-.73-5.35-.94-7.87-1a31.44,31.44,0,0,0-9.76,1.68c-3,1-4.61.42-6.6,0s-3.78-1.47-6.3-1.05a9.52,9.52,0,0,0-3.33,1.41c0-.1,0-.2,0-.3,0-2.2.94-7.39,1.26-9.75a14.38,14.38,0,0,0,0-2.92c-.18-2.15-.6-4.32-.6-4.32a40.28,40.28,0,0,1,5.88-.17h.25c3.62.16,6.46,1.89,8.66,1.73a44.18,44.18,0,0,0,4.39-.68,27.75,27.75,0,0,1,2.85-.42c2-.16,7.86.63,9,.63h6a12.3,12.3,0,0,1-.78,4.09,15.9,15.9,0,0,0-.84,2.26h0A7.41,7.41,0,0,0,134.36,113.75Z"/><path class="cls-12" d="M118.3,104.89c-.69.23-1.4.46-2,.65a28.63,28.63,0,0,1-6.15,1.4c-2.17.21-2.73-1-3.43-2a4.94,4.94,0,0,0-1.69-1.15h.25c3.62.16,6.46,1.89,8.66,1.73A44.18,44.18,0,0,0,118.3,104.89Z"/><path class="cls-12" d="M99.43,128.7c.16-1.41-.94-5.51-.94-7.71s.94-7.39,1.26-9.75a14.38,14.38,0,0,0,0-2.92c.38,1.65.93,4,1.38,5.48A18.81,18.81,0,0,1,102,119c0,.63-1.71,6.73-2.58,9.8Z"/><path class="cls-12" d="M136.09,137.51s-4.87.63-7.86,1.26-4.72-.94-8.34-1.41a29.38,29.38,0,0,0-4.36,0c2.51-.49,5.62-1.09,7-1.39,2.58-.56,4.68-.84,6.36-.14S132.14,137.73,136.09,137.51Z"/><path class="cls-12" d="M135.46,123.19c-.31,3.15,0,7.71-.15,9.76a7.22,7.22,0,0,0,.07,1.67,15.14,15.14,0,0,1-1.55-6c-.14-3.7-1.75-6-1.47-10a22.19,22.19,0,0,1,2.11-7.17,7.41,7.41,0,0,0-.11,2.3C134.52,115.8,135.78,120.05,135.46,123.19Z"/><path class="cls-13" d="M109.44,115a2.19,2.19,0,0,0-.37.25l-.38.33-.4.37a5.2,5.2,0,0,1-.43.37c-.16.11-.33.23-.51.34a4.68,4.68,0,0,1-.59.31,6.55,6.55,0,0,1-.71.27,6.29,6.29,0,0,1-.85.19,2,2,0,0,1-.9,0,1.51,1.51,0,0,1-.66-.39,1.55,1.55,0,0,1-.38-.66,2.16,2.16,0,0,1-.08-.85,3.27,3.27,0,0,1,.13-.7,7.41,7.41,0,0,1,.28-.78,9.12,9.12,0,0,1,.42-.82,7.79,7.79,0,0,1,.52-.8,8.67,8.67,0,0,1,.63-.73,5.76,5.76,0,0,1,.7-.62,4.49,4.49,0,0,1,.78-.47,3.44,3.44,0,0,1,.81-.25,1.69,1.69,0,0,1,.55,0,1.13,1.13,0,0,1,.48.19,1,1,0,0,1,.32.41,1.24,1.24,0,0,1,.09.63,1.81,1.81,0,0,1-.14.53,2.58,2.58,0,0,1-.29.54,3.2,3.2,0,0,1-.4.51,4,4,0,0,1-.48.44,4.15,4.15,0,0,1-.53.32,1.82,1.82,0,0,1-.53.17,1,1,0,0,1-.5,0,.2.2,0,0,1-.15-.22v-.06s0,0,0-.08a.59.59,0,0,1,0-.13.5.5,0,0,1,0-.13.36.36,0,0,1,.07-.1.17.17,0,0,1,.12,0,.11.11,0,0,1,.08,0h.32a1.78,1.78,0,0,0,.5-.18,1.94,1.94,0,0,0,.47-.34,2.35,2.35,0,0,0,.36-.47,1.26,1.26,0,0,0,.17-.56.7.7,0,0,0,0-.29.48.48,0,0,0-.12-.22.49.49,0,0,0-.25-.12.94.94,0,0,0-.38,0,1.66,1.66,0,0,0-.55.2,3.34,3.34,0,0,0-.52.37,4.91,4.91,0,0,0-.49.52,6.91,6.91,0,0,0-.44.62,5.38,5.38,0,0,0-.38.66,6.82,6.82,0,0,0-.31.68q-.12.33-.21.63a4.78,4.78,0,0,0-.1.56,1.77,1.77,0,0,0,0,.63.88.88,0,0,0,.24.41.76.76,0,0,0,.41.2,1.81,1.81,0,0,0,.57,0,3.08,3.08,0,0,0,.75-.21A4.42,4.42,0,0,0,107,116a6.62,6.62,0,0,0,.64-.44l.62-.48c.2-.16.42-.32.63-.47a4.94,4.94,0,0,1,.67-.4Z"/><path class="cls-13" d="M108.92,115.43a2.67,2.67,0,0,1,0-.35,3.82,3.82,0,0,1,.09-.44c0-.15.07-.31.11-.47s.1-.33.16-.51l.15-.46.13-.31s0-.09.07-.13l.07-.08.11-.05.14,0,.15,0s.07,0,.08,0a.12.12,0,0,1,0,.09s0,.1,0,.17,0,.21,0,.37a2.27,2.27,0,0,0,0,.41h0l.22-.39a2.91,2.91,0,0,1,.27-.41,1.77,1.77,0,0,1,.31-.3,1,1,0,0,1,.37-.16h.14l.11.05a.18.18,0,0,1,.08.09.27.27,0,0,1,0,.13.75.75,0,0,1,0,.17c0,.07,0,.16-.08.28s-.07.21-.09.29a.67.67,0,0,0,0,.18.43.43,0,0,0,0,.2.32.32,0,0,0,0,.13.19.19,0,0,0,.1,0h.11a1.17,1.17,0,0,0,.36-.12l.34-.21a3.27,3.27,0,0,0,.37-.28l-.13.81-.23.17-.28.18-.3.15a1.31,1.31,0,0,1-.32.1.79.79,0,0,1-.45,0,.56.56,0,0,1-.25-.23,1,1,0,0,1-.12-.36c0-.13,0-.27,0-.41h-.06l-.83,1.83a1.33,1.33,0,0,1-.12.24.74.74,0,0,1-.1.16l-.12.1-.12,0a.48.48,0,0,1-.25,0,.29.29,0,0,1-.13-.14.71.71,0,0,1,0-.22A2.53,2.53,0,0,1,108.92,115.43Z"/><path class="cls-13" d="M116.15,114.15c-.06.08-.14.18-.25.3s-.22.23-.35.34a3.81,3.81,0,0,1-.41.29,1.34,1.34,0,0,1-.43.16.48.48,0,0,1-.4-.08.79.79,0,0,1-.25-.38,1.89,1.89,0,0,1-.25.23,1.7,1.7,0,0,1-.3.23,2.79,2.79,0,0,1-.34.18,1.28,1.28,0,0,1-.35.11.82.82,0,0,1-.35,0,.8.8,0,0,1-.29-.15.64.64,0,0,1-.18-.27.87.87,0,0,1,0-.4,1.88,1.88,0,0,1,.12-.55,4.31,4.31,0,0,1,.3-.62,5,5,0,0,1,.41-.61,4,4,0,0,1,.45-.47,4.2,4.2,0,0,1,.51-.35,1.79,1.79,0,0,1,.52-.18.29.29,0,0,1,.14,0l.07.06.06.07.07,0h.19l.08,0h.19a.14.14,0,0,1,.09,0,.19.19,0,0,1,0,.09.48.48,0,0,1,0,.17,2,2,0,0,1-.07.37,4,4,0,0,1-.12.43c0,.14-.1.31-.15.5a3,3,0,0,0-.11.46.76.76,0,0,0,0,.24c0,.06.06.08.13.07l.17-.06.18-.12.19-.16.18-.18.41-.48Zm-3.21.25a.49.49,0,0,0,0,.17.32.32,0,0,0,0,.14.24.24,0,0,0,.08.09.21.21,0,0,0,.14,0,.54.54,0,0,0,.26-.15,1.29,1.29,0,0,0,.22-.3,2.81,2.81,0,0,0,.17-.35c0-.11.07-.21.09-.28l.38-1.17a.74.74,0,0,0-.31.12,1.54,1.54,0,0,0-.29.23,2,2,0,0,0-.27.31c-.08.12-.16.26-.25.42a3.29,3.29,0,0,0-.18.42A1.51,1.51,0,0,0,112.94,114.4Z"/><path class="cls-13" d="M117,114.87a1.51,1.51,0,0,1-.61,0,.89.89,0,0,1-.41-.25.88.88,0,0,1-.23-.41,1.49,1.49,0,0,1,0-.52,2,2,0,0,1,.12-.5q.1-.28.21-.51a2.67,2.67,0,0,1,.25-.43,2.05,2.05,0,0,1,.34-.38,1.64,1.64,0,0,1,.4-.29,1.6,1.6,0,0,1,.48-.16,1.14,1.14,0,0,1,.41,0,.71.71,0,0,1,.32.12.5.5,0,0,1,.2.21.62.62,0,0,1,0,.31,1,1,0,0,1-.06.23,1.24,1.24,0,0,1-.16.29,1,1,0,0,1-.23.25.92.92,0,0,1-.23.09c-.13,0-.21,0-.24,0a.25.25,0,0,1,0-.23s0-.13.09-.26a.9.9,0,0,0,0-.13.49.49,0,0,0,0-.13s0,0-.08,0a.81.81,0,0,0-.27.11,1.34,1.34,0,0,0-.2.21,2.33,2.33,0,0,0-.18.33c-.06.14-.1.26-.13.35a1.38,1.38,0,0,0-.06.26,1,1,0,0,0,0,.21,1,1,0,0,0,0,.25.62.62,0,0,0,.08.24.5.5,0,0,0,.17.15.47.47,0,0,0,.3,0,1.19,1.19,0,0,0,.4-.17,4.35,4.35,0,0,0,.47-.32l.45-.41c.14-.15.27-.28.37-.41l.23.36a6.17,6.17,0,0,1-.67.76c-.1.09-.21.19-.33.28a3,3,0,0,1-.75.48A2.91,2.91,0,0,1,117,114.87Z"/><path class="cls-13" d="M120,112.5l.33-.4.35-.42.35-.41a1.56,1.56,0,0,1,.25-.28,2,2,0,0,1,.3-.18,1.52,1.52,0,0,1,.38-.11.44.44,0,0,1,.2,0,.42.42,0,0,1,.16.11.44.44,0,0,1,.09.18.72.72,0,0,1,0,.26.93.93,0,0,1-.13.36,3.13,3.13,0,0,1-.25.38l-.27.34a3.92,3.92,0,0,0-.27.33,2.1,2.1,0,0,0-.22.33.75.75,0,0,0-.1.31.18.18,0,0,0,0,.17.3.3,0,0,0,.2,0,.37.37,0,0,0,.17-.08,1.25,1.25,0,0,0,.19-.15l.21-.2c.07-.08.14-.15.2-.23l.19-.21.15-.17.16.82a3.22,3.22,0,0,1-.32.32,3.62,3.62,0,0,1-.41.27,3.11,3.11,0,0,1-.45.22l-.44.12a1.32,1.32,0,0,1-.44,0,.45.45,0,0,1-.25-.11.35.35,0,0,1-.12-.19.59.59,0,0,1,0-.23.81.81,0,0,1,0-.2,1.46,1.46,0,0,1,.11-.28,2.06,2.06,0,0,1,.19-.35,4.05,4.05,0,0,1,.31-.43l.13-.13.11-.11.07-.08a.16.16,0,0,0,0-.08.22.22,0,0,0,0-.12s0,0-.08,0a.45.45,0,0,0-.17.1,1.45,1.45,0,0,0-.24.31l-1.27,1.95a.75.75,0,0,1-.2.2.4.4,0,0,1-.21.09.43.43,0,0,1-.26,0,.28.28,0,0,1-.12-.14.52.52,0,0,1,0-.23c0-.08,0-.18,0-.28s0-.31.06-.53.06-.47.11-.73.09-.55.15-.84.12-.58.2-.86c0-.1,0-.21.09-.35s.09-.29.15-.45l.19-.51c.07-.17.14-.35.23-.52s.19-.33.29-.48a3,3,0,0,1,.35-.43,2,2,0,0,1,.4-.31,1.33,1.33,0,0,1,.47-.17.78.78,0,0,1,.31,0,.3.3,0,0,1,.18.13.49.49,0,0,1,.09.22,1.5,1.5,0,0,1,0,.3,2.82,2.82,0,0,1-.14.65c-.07.24-.16.47-.26.72l-.33.7c-.12.24-.23.44-.34.63s-.2.35-.28.48l-.16.26-.5.69Zm1.08-4a.37.37,0,0,0-.22.1,1.06,1.06,0,0,0-.18.22c-.06.09-.12.21-.19.34l-.21.43-.15.43c0,.15-.09.29-.13.44s-.07.28-.1.42-.07.27-.1.39c-.06.29-.11.58-.16.87.07-.17.14-.34.23-.54l.24-.56c.08-.19.15-.36.23-.53s.13-.3.17-.42.06-.12.1-.2l.12-.26a2.59,2.59,0,0,0,.14-.29c.05-.1.09-.2.13-.29s.07-.18.1-.26a1,1,0,0,0,0-.2C121.17,108.51,121.14,108.48,121.09,108.49Z"/><path class="cls-13" d="M123.56,113.82a1.35,1.35,0,0,1-.61,0,.86.86,0,0,1-.41-.25,1,1,0,0,1-.22-.42,1.38,1.38,0,0,1,0-.54,1.71,1.71,0,0,1,.12-.47c.07-.19.13-.35.2-.5a3.09,3.09,0,0,1,.25-.42,2.05,2.05,0,0,1,.73-.66,1.43,1.43,0,0,1,.48-.16,1.21,1.21,0,0,1,.38,0,.77.77,0,0,1,.31.12.61.61,0,0,1,.18.24.74.74,0,0,1,0,.34,1.3,1.3,0,0,1-.2.5,2.47,2.47,0,0,1-.39.5,3.14,3.14,0,0,1-.52.41,3.73,3.73,0,0,1-.63.32.5.5,0,0,0,.1.14.3.3,0,0,0,.1.07.27.27,0,0,0,.12,0h.13a1.65,1.65,0,0,0,.48-.15,4.16,4.16,0,0,0,.51-.28,4.37,4.37,0,0,0,.47-.34l.39-.33.45.37a7,7,0,0,1-.76.69c-.12.09-.24.18-.37.26a3.45,3.45,0,0,1-.41.25,3.49,3.49,0,0,1-.44.2A3.74,3.74,0,0,1,123.56,113.82Zm-.36-1.57a.85.85,0,0,0,.3-.11,1.77,1.77,0,0,0,.32-.21,2.09,2.09,0,0,0,.29-.3.68.68,0,0,0,.16-.3.43.43,0,0,0,0-.24.16.16,0,0,0-.15-.07.77.77,0,0,0-.28.1.87.87,0,0,0-.21.17,1.64,1.64,0,0,0-.14.22c0,.07-.08.17-.13.28a2.53,2.53,0,0,0-.1.28C123.21,112.14,123.21,112.2,123.2,112.25Z"/><path class="cls-13" d="M125.21,112.84a1.63,1.63,0,0,1,.05-.35c0-.14,0-.29.08-.44l.12-.47q.06-.24.15-.51c.07-.19.12-.34.16-.46s.08-.22.12-.31l.07-.13a.6.6,0,0,1,.08-.08.31.31,0,0,1,.1,0l.15,0,.15,0a.1.1,0,0,1,.08,0,.2.2,0,0,1,0,.09,1.16,1.16,0,0,1,0,.17,2.24,2.24,0,0,1,0,.37,3.32,3.32,0,0,0,0,.41h0c0-.1.13-.23.22-.39a2.91,2.91,0,0,1,.27-.41,2.13,2.13,0,0,1,.3-.3,1,1,0,0,1,.38-.16h.14l.11,0a.16.16,0,0,1,.07.09.18.18,0,0,1,0,.13.75.75,0,0,1,0,.17l-.09.28c0,.12-.06.21-.08.29s0,.13,0,.18a1.15,1.15,0,0,0,0,.2.23.23,0,0,0,.06.13l.09,0a.24.24,0,0,0,.12,0,1.32,1.32,0,0,0,.35-.12l.35-.21.37-.28-.13.81-.24.17-.27.18a1.77,1.77,0,0,1-.31.15,1.24,1.24,0,0,1-.31.1.79.79,0,0,1-.45,0,.56.56,0,0,1-.25-.23,1,1,0,0,1-.12-.36c0-.13,0-.27,0-.42h-.06l-.83,1.83a1.33,1.33,0,0,1-.12.24.74.74,0,0,1-.11.16.52.52,0,0,1-.11.1l-.13,0a.45.45,0,0,1-.24,0,.29.29,0,0,1-.13-.14.51.51,0,0,1,0-.22A2.44,2.44,0,0,1,125.21,112.84Z"/><path class="cls-13" d="M128.4,111.76a4.83,4.83,0,0,0,.37-.33c.1-.09.19-.19.29-.3l.23-.28.2-.25.29-.36c.11-.14.26-.31.43-.53l.12-.14a.88.88,0,0,1,.15-.12.71.71,0,0,1,.17-.11.59.59,0,0,1,.2-.06.86.86,0,0,1,.27,0,.3.3,0,0,1,.14.07.13.13,0,0,1,0,.1v.1a.35.35,0,0,1-.09.2L131,110l-.18.19a.53.53,0,0,0-.1.14.6.6,0,0,0,0,.19l0,.17s0,.11,0,.17a1.12,1.12,0,0,1,0,.21.88.88,0,0,1,0,.35,3.11,3.11,0,0,0-.06.44l.31-.2.34-.19.36-.22.38-.27-.06.78q-.26.19-.57.39c-.22.12-.44.24-.67.35s-.47.2-.7.27a4,4,0,0,1-.66.17l-.42,0a1.4,1.4,0,0,1-.32-.06.43.43,0,0,1-.22-.17.49.49,0,0,1-.09-.28l-.1,0-.1,0h-.11a.13.13,0,0,1-.09,0s0,0-.06-.06a.58.58,0,0,1,0-.15.64.64,0,0,1,.06-.16l.12-.14.13-.12Zm.44.37a.12.12,0,0,1,.09,0l.12.09a.42.42,0,0,0,.16.09.36.36,0,0,0,.21,0,.67.67,0,0,0,.24-.08.5.5,0,0,0,.17-.15.56.56,0,0,0,.09-.19.65.65,0,0,0,0-.21,1.15,1.15,0,0,0,0-.19.72.72,0,0,1,0-.24.42.42,0,0,0,0-.22l0-.13Z"/><ellipse class="cls-14" cx="124.65" cy="126.7" rx="6.19" ry="4.25" transform="matrix(0.87, -0.5, 0.5, 0.87, -46.65, 79.3)"/><ellipse class="cls-15" cx="122.65" cy="121.87" rx="6.19" ry="4.25" transform="translate(-47.06 154.95) rotate(-55.84)"/><ellipse class="cls-15" cx="109.65" cy="127.64" rx="4.25" ry="6.19" transform="translate(-55.72 158.78) rotate(-60)"/><path class="cls-16" d="M99.77,104.57s3.57-.42,5,.07,1.54,1.39,2.59,2.23a4.89,4.89,0,0,0,4.34.35,74.11,74.11,0,0,1,7.62-2,15.17,15.17,0,0,1,6.08-.07,27.05,27.05,0,0,0,6.86.35c-2.24,1-8.18-.35-9.65.14s-5.46.7-7.63,2.17-6.92,2.8-8.11,1.82-.84-3.64-1.75-4.13-3.7-.14-3.7-.14a54,54,0,0,0,2,8.19,9.78,9.78,0,0,1,0,7.69c-1,1.89-2.38,6.15-2.38,7.76s-.42,4.55-.56,5.81c3.77.7,10,.7,12.87-.07s9.09-1.82,12.44-1a26.43,26.43,0,0,0-9.79,1.54c-3.49,1.19-12.58,2.51-17.06,1.32.91-3.63.63-6.5,1.26-8.67s1.4-5.87,2.38-7.76.07-5.1-.84-7.41A32.4,32.4,0,0,1,99.77,104.57Z"/><path class="cls-17" d="M134,110.3s-2.38,5.38-2.38,8.11.91,5,1.33,7.21.21,5.31.77,6.57a28,28,0,0,1,1.12,4.34,5,5,0,0,1-3.57-.42,13.73,13.73,0,0,0-3.64-1.47,30.24,30.24,0,0,1,3.64,1,3.86,3.86,0,0,0,2.45.07,10.83,10.83,0,0,1-1.33-4c0-1.61.49-3.71-.14-5.94s-2.59-6.09-2.45-7.84S133.62,111.77,134,110.3Z"/><path class="cls-18" d="M97.11,126.63s.87-1.13,1.43-1.92a22.43,22.43,0,0,1,2.16-2.47,7.23,7.23,0,0,1,.62-.55,20.12,20.12,0,0,1,2.39-1.4,6.14,6.14,0,0,0,1.5-2.22c.45-.92.6-1.64,1.08-2.93a2.21,2.21,0,0,1,.25-.48,8.35,8.35,0,0,1,2.51-2l.57,1.09-1.28,4.09-2.16,2.39-1.82,2-3.81,4.21-2.42.64Z"/><path class="cls-19" d="M100.7,122.24a7.23,7.23,0,0,1,.62-.55,20.12,20.12,0,0,1,2.39-1.4,6.14,6.14,0,0,0,1.5-2.22c.45-.92.6-1.64,1.08-2.93a2.21,2.21,0,0,1,.25-.48l.83,3.67-1.19,1.87-1.28,2h-.54Z"/><path class="cls-18" d="M125.42,147.74l1.77-5.7,1.94-1.76,3.44-3.13L135,135l1.47-.66,1.2.83s-.62.8-1.29,1.55a6.13,6.13,0,0,1-1.29,1.19,2.25,2.25,0,0,1-.76.34,4.62,4.62,0,0,0-1.92,1,9.6,9.6,0,0,0-1.74,1.86,7,7,0,0,0-.58,1.72l0,.12a12.78,12.78,0,0,1-1.55,2.57c-.64.78-1.62,2.56-2.16,3A6.2,6.2,0,0,1,125.42,147.74Z"/><path class="cls-19" d="M130.07,142.8l-1.13-1.94.19-.58.81-2.42a2.19,2.19,0,0,1,2.63-.71l.05,0a8.82,8.82,0,0,0,2.45.7,2.25,2.25,0,0,1-.76.34,4.62,4.62,0,0,0-1.92,1,9.6,9.6,0,0,0-1.74,1.86A7,7,0,0,0,130.07,142.8Z"/><path class="cls-20" d="M101.71,129.65a18.7,18.7,0,0,1-2.76-2l-.82-.63s3-4.62,4.93-6,2.06-2.49,3.27-4.58a5.45,5.45,0,0,1,.45-.66h0a6.35,6.35,0,0,1,2.84-2.06,10.74,10.74,0,0,0,1.63,1.88l.11.12c1.54,1.58,3.5,2.44,5.28,3.55a30,30,0,0,1,5.73,5.34,21.81,21.81,0,0,0,3.84,3.16,38.93,38.93,0,0,0,5,3,34.11,34.11,0,0,1,5.28,3.55s-.52.79-1.22,1.7h0a15.89,15.89,0,0,1-1.66,1.86c-1.33,1.21-2.79,1.92-3.6,3.13-.65,1-1.39,2.29-2.08,3.33h0c-.18.26-.35.5-.52.72-.82,1.07-2,2.7-2,2.7a22.19,22.19,0,0,1-4-3.72,9,9,0,0,0-.84-.93h0a21.71,21.71,0,0,0-5.7-3.72,23.06,23.06,0,0,1-5.67-3.72c-1-1.05-2.32-2.45-3.49-3.48A40.41,40.41,0,0,0,101.71,129.65Z"/><g class="cls-21"><path class="cls-22" d="M127.89,144.32a53.37,53.37,0,0,0,1.81-5.64c.41-1.78,1.8-4,2.5-3.59s.85,2,1.83,1.5l1.2-.59a15.89,15.89,0,0,1-1.66,1.86c-1.33,1.21-2.79,1.92-3.6,3.13C129.32,142,128.58,143.28,127.89,144.32Z"/><path class="cls-22" d="M105.76,132.17a40.41,40.41,0,0,0-4.05-2.52,18.51,18.51,0,0,0,5.21,1.53c2,0,3.71,2.34,5.47,3.35s5.46,3.94,6.69,6.21a21,21,0,0,0,1.54,2.35,21.71,21.71,0,0,0-5.7-3.72,23.06,23.06,0,0,1-5.67-3.72C108.22,134.6,106.93,133.2,105.76,132.17Z"/><path class="cls-22" d="M111.36,115.72c1.54,1.58,3.5,2.44,5.28,3.55a30,30,0,0,1,5.73,5.34,21.81,21.81,0,0,0,3.84,3.16c-1.56-.7-3.15-1.46-4-2-2-1.22-4.77-2.9-6.57-4.2-1.26-.91-3.25-3.89-4.38-6Z"/><path class="cls-22" d="M98.13,127.07s3-4.62,4.93-6,2.06-2.49,3.27-4.58a5.45,5.45,0,0,1,.45-.66,18.45,18.45,0,0,1-1.81,4.87c-1.16,1.73-1.34,2.64-2.46,3.53S99.75,125,98.13,127.07Z"/></g><path class="cls-5" d="M107.92,127.56a1.28,1.28,0,0,1-.43-.55,1.63,1.63,0,0,1-.1-.7,2.23,2.23,0,0,1,.19-.77,3.46,3.46,0,0,1,.47-.77,5.61,5.61,0,0,1,.69-.69,7.17,7.17,0,0,1,.86-.65,7,7,0,0,1,1-.53,4.37,4.37,0,0,1,1-.3,2.87,2.87,0,0,1,1,0,1.93,1.93,0,0,1,.86.37,1.06,1.06,0,0,1,.33.42.91.91,0,0,1,.07.46,1.19,1.19,0,0,1-.13.47,2.44,2.44,0,0,1-.28.43,2.63,2.63,0,0,1-.34.33,1.54,1.54,0,0,1-.38.23.73.73,0,0,1-.37.08.57.57,0,0,1-.33-.11.38.38,0,0,1-.09-.15.42.42,0,0,1,0-.2.88.88,0,0,1,0-.3.61.61,0,0,0,.42,0,1.74,1.74,0,0,0,.4-.23,3.74,3.74,0,0,0,.42-.39.57.57,0,0,0,.17-.43.44.44,0,0,0-.17-.31,1.13,1.13,0,0,0-.8-.16,4.07,4.07,0,0,0-1.17.34,7.38,7.38,0,0,0-1.32.8,8.09,8.09,0,0,0-1.27,1.22,2.7,2.7,0,0,0-.39.59,1.54,1.54,0,0,0-.13.5.8.8,0,0,0,.07.39.71.71,0,0,0,.21.27,1.24,1.24,0,0,0,.45.21,2.15,2.15,0,0,0,.5,0,2.31,2.31,0,0,0,.47-.07,1.77,1.77,0,0,0,.35-.12.24.24,0,0,1,.16,0,.11.11,0,0,1,.08.07.17.17,0,0,1,0,.12.26.26,0,0,1-.12.11,3.11,3.11,0,0,1-.56.22,4,4,0,0,1-.6.11,2.31,2.31,0,0,1-.59,0A1.39,1.39,0,0,1,107.92,127.56Z"/><path class="cls-5" d="M114.71,129.2l-.43.13-.54.14-.51.11-.38,0a.61.61,0,0,1-.18-.05l-.18-.09-.14-.12a.6.6,0,0,1-.09-.15.38.38,0,0,1,0-.18,1.76,1.76,0,0,1,.07-.22,1.54,1.54,0,0,1,.19-.28,1.38,1.38,0,0,1-.59.12,1.63,1.63,0,0,1-.47-.06,1.42,1.42,0,0,1-.41-.2.34.34,0,0,1-.13-.19.48.48,0,0,1,0-.3,1,1,0,0,1,.16-.37,1.72,1.72,0,0,1,.4-.42,2.58,2.58,0,0,1,.76-.45,3.45,3.45,0,0,1,.78-.2,2.05,2.05,0,0,1,.66,0,.75.75,0,0,1,.41.17.8.8,0,0,1,.19.29.39.39,0,0,1,0,.26.57.57,0,0,1-.34.22l.16.09.09.06s0,0,0,0a.09.09,0,0,1,0,0l-.12.13-.27.23-.43.37a.34.34,0,0,0-.09.08l-.09.07-.1.09-.14.12-.09.11a.56.56,0,0,0-.07.13.2.2,0,0,0,0,.13.28.28,0,0,0,.08.12.37.37,0,0,0,.21,0l.35,0,.41-.08.42-.1.36-.1.23,0a.22.22,0,0,1,.14,0,.09.09,0,0,1,0,.08.23.23,0,0,1-.08.11A.51.51,0,0,1,114.71,129.2Zm-1.92-1.07.29-.22.3-.25.23-.21c.06-.06.08-.09.07-.1l-.08,0-.09,0-.11-.06.18-.11a.46.46,0,0,0,.07-.1.13.13,0,0,0,0-.08c0-.07-.11-.1-.29-.09a2.5,2.5,0,0,0-.77.22,2.16,2.16,0,0,0-.39.22,3,3,0,0,0-.32.27,1.22,1.22,0,0,0-.22.26.38.38,0,0,0-.07.18.24.24,0,0,0,.1.18.5.5,0,0,0,.2.08,1.1,1.1,0,0,0,.26,0,1.12,1.12,0,0,0,.27,0,1.16,1.16,0,0,0,.22-.06A.35.35,0,0,0,112.79,128.13Z"/><path class="cls-5" d="M115.05,131.56a.7.7,0,0,1-.2-.23.79.79,0,0,1,0-.25.55.55,0,0,1,.07-.25.83.83,0,0,1,.19-.23l.23-.17.32-.24.33-.26a2.35,2.35,0,0,0,.28-.25.9.9,0,0,0,.15-.23.12.12,0,0,0,0-.16.5.5,0,0,0-.24-.09,2,2,0,0,0-.34,0l-.39.09-.42.13-.36.28-.27.22-.21.17-.18.15a.26.26,0,0,1-.19,0l-.26-.05-.2-.1s-.06-.07,0-.1a1,1,0,0,1,.16-.13,2.89,2.89,0,0,1,.3-.23l.36-.29.37-.29.3-.25.32-.27.42-.33a.28.28,0,0,1,.13,0l.12,0,.12.06a.3.3,0,0,1,.08.08.39.39,0,0,1,.12.19l-.13.08-.17.12-.21.15.34-.08a2.21,2.21,0,0,1,.37,0,1.34,1.34,0,0,1,.35,0,.81.81,0,0,1,.31.15.44.44,0,0,1,.15.22.66.66,0,0,1,0,.28,1.3,1.3,0,0,1-.15.32,1.36,1.36,0,0,1-.32.31l-.26.21a2.89,2.89,0,0,1-.3.23c-.11.09-.24.19-.39.29a.75.75,0,0,0-.2.2.12.12,0,0,0,0,.18.6.6,0,0,0,.37.08,3.07,3.07,0,0,0,.57-.06l.6-.13.46-.14a.37.37,0,0,1,.17,0s.07,0,.08.05a.11.11,0,0,1,0,.1.5.5,0,0,1-.17.12l-.29.12-.43.13-.49.11a3,3,0,0,1-.5.07,2.2,2.2,0,0,1-.45,0A.76.76,0,0,1,115.05,131.56Z"/><path class="cls-5" d="M118.93,132.53l-.33.3-.23.24a.36.36,0,0,0-.11.25.2.2,0,0,0,.08.17.51.51,0,0,0,.26.07,2,2,0,0,0,.42,0l.48-.06.46-.09a2.33,2.33,0,0,0,.37-.08l.21,0a.2.2,0,0,1,.11,0,.13.13,0,0,1,0,.06s0,.05,0,.08-.07.06-.13.09l-.39.12-.48.11-.53.1-.51,0a1.48,1.48,0,0,1-.43,0,.67.67,0,0,1-.31-.12.4.4,0,0,1-.12-.16.85.85,0,0,1,0-.23.67.67,0,0,1,0-.24.45.45,0,0,1,.12-.21l.12-.12a3.45,3.45,0,0,1-.83,0,1.14,1.14,0,0,1-.61-.21.61.61,0,0,1-.14-.17.6.6,0,0,1-.06-.27.94.94,0,0,1,.07-.34,1.3,1.3,0,0,1,.25-.4,3,3,0,0,1,.63-.54,2.7,2.7,0,0,1,.71-.3,2,2,0,0,1,.68-.05,1.27,1.27,0,0,1,.56.22.62.62,0,0,1,.14.19.67.67,0,0,1,0,.24,1,1,0,0,1,0,.25,1.12,1.12,0,0,1-.09.22l.34-.28.31-.25.49-.38.52-.39c.19-.15.4-.31.62-.46a.46.46,0,0,1,.17,0l.13,0,.11.06a.47.47,0,0,1,.1.1.2.2,0,0,1,0,.14,1,1,0,0,1-.1.22c-.06.08-.14.19-.26.33a3.17,3.17,0,0,1-.53.49,6,6,0,0,1-.69.47c-.26.15-.52.3-.8.43S119.21,132.43,118.93,132.53Zm-.41-.19.22-.19A2.11,2.11,0,0,1,119,132h-.06c-.06,0-.09,0-.09-.07a.17.17,0,0,1,.06-.12.5.5,0,0,1,.09-.13,1.51,1.51,0,0,0,.11-.22.64.64,0,0,0,0-.23A.22.22,0,0,0,119,131a.56.56,0,0,0-.38-.07,2.08,2.08,0,0,0-.52.13,3.26,3.26,0,0,0-.53.26,1.76,1.76,0,0,0-.4.33.84.84,0,0,0-.25.46.32.32,0,0,0,.13.29.51.51,0,0,0,.3.1,1.81,1.81,0,0,0,.4,0l.41-.07Z"/><path class="cls-5" d="M121.29,132.62a.29.29,0,0,1,.15,0,1.24,1.24,0,0,1,.2.1l.18.1.08.07-.12.1-.3.21-.37.24-.3.2-.25.19a3.16,3.16,0,0,0-.27.2l-.23.2a.35.35,0,0,0-.11.19.23.23,0,0,0,0,.14.13.13,0,0,0,0,.09.75.75,0,0,0,.4.1,3.17,3.17,0,0,0,.6,0,4,4,0,0,0,.62-.1l.47-.11a.19.19,0,0,1,.15,0,.09.09,0,0,1,.08.07.13.13,0,0,1,0,.1.24.24,0,0,1-.14.09,4.35,4.35,0,0,1-.57.18c-.24.06-.48.1-.73.14a5.44,5.44,0,0,1-.67,0,.8.8,0,0,1-.44-.09.52.52,0,0,1-.17-.19.64.64,0,0,1-.1-.24,1.11,1.11,0,0,1,0-.26.63.63,0,0,1,.09-.24,4.52,4.52,0,0,1,.31-.4c.15-.16.3-.32.47-.47l.51-.42A1.41,1.41,0,0,1,121.29,132.62Zm1.77-.63a.39.39,0,0,1-.16.07.65.65,0,0,1-.19,0,.48.48,0,0,1-.17-.05.19.19,0,0,1-.08-.1.36.36,0,0,1,0-.31.5.5,0,0,1,.22-.16.62.62,0,0,1,.27-.05.41.41,0,0,1,.21,0,.14.14,0,0,1,.09.11.27.27,0,0,1,0,.15.48.48,0,0,1-.08.16Z"/><path class="cls-5" d="M124.35,136.56a6.35,6.35,0,0,1-.78.19,4.59,4.59,0,0,1-.81.07,3,3,0,0,1-.75-.09,1.5,1.5,0,0,1-.6-.27,1.11,1.11,0,0,1-.23-.28,1,1,0,0,1-.13-.4,1.26,1.26,0,0,1,.07-.49,1.39,1.39,0,0,1,.34-.53,1.88,1.88,0,0,1,.54-.39,2.85,2.85,0,0,1,.69-.25,2.39,2.39,0,0,1,.7-.05,1.07,1.07,0,0,1,.58.21.54.54,0,0,1,.24.37.42.42,0,0,1-.13.34.9.9,0,0,1-.36.25,1.48,1.48,0,0,1-.41.12,2.06,2.06,0,0,1-.42,0l-.39,0-.38,0h-.32a.78.78,0,0,0-.13.28.58.58,0,0,0,0,.26.48.48,0,0,0,.09.21.91.91,0,0,0,.17.17,1,1,0,0,0,.51.19,3.57,3.57,0,0,0,.66,0c.23,0,.46,0,.68-.08l.55-.1a.18.18,0,0,1,.13,0s.06,0,.06.06a.09.09,0,0,1,0,.09S124.42,136.53,124.35,136.56Zm-.8-2.07a.53.53,0,0,0-.22-.06,1.22,1.22,0,0,0-.35.06,2.19,2.19,0,0,0-.43.19,2.58,2.58,0,0,0-.46.34h.5a2.34,2.34,0,0,0,.61-.06.87.87,0,0,0,.31-.17.33.33,0,0,0,.1-.18A.18.18,0,0,0,123.55,134.49Z"/><path class="cls-5" d="M124,137.89a.23.23,0,0,0,.07.1.52.52,0,0,0,.13.06.42.42,0,0,0,.16,0,.26.26,0,0,0,.15,0,.63.63,0,0,0,.15-.19,2.23,2.23,0,0,0,.12-.31c0-.12.08-.24.11-.37s.07-.23.1-.33a1,1,0,0,1,.07-.21.75.75,0,0,1,0-.16.36.36,0,0,0,0-.11l-.22.07-.32.1-.33.09-.21.05a.31.31,0,0,1-.14,0,.12.12,0,0,1-.06-.08.22.22,0,0,1,0-.1.26.26,0,0,1,.14-.08l.22-.07.3-.11.28-.09.15-.05a.26.26,0,0,0,.06-.15.28.28,0,0,1,.12-.19.84.84,0,0,1,.25-.11,1.34,1.34,0,0,1,.35,0,.88.88,0,0,1,.33,0,.33.33,0,0,1,.21.17.46.46,0,0,1,0,.19.16.16,0,0,1,0,.15l-.09,0-.16.07-.27.06a1.53,1.53,0,0,0-.14.29,1.86,1.86,0,0,0-.09.24,1.4,1.4,0,0,0-.06.24l-.06.3-.06.31c0,.09-.06.18-.08.26a.45.45,0,0,1-.11.17.85.85,0,0,1-.29.16,1.85,1.85,0,0,1-.42.11,1.77,1.77,0,0,1-.46,0,.8.8,0,0,1-.41-.17.49.49,0,0,1-.18-.26,1,1,0,0,1-.06-.33,1.19,1.19,0,0,1,0-.29c0-.09.06-.14.11-.16l.15-.06a.65.65,0,0,1,.16,0h.09l.11,0,.16.06a2.49,2.49,0,0,0-.12.36,1.49,1.49,0,0,1,0,.22A.32.32,0,0,0,124,137.89Z"/><path class="cls-23" d="M125.06,141.05c-.23.62-1.2.82-2.17.46s-1.57-1.15-1.34-1.76,1.19-.81,2.16-.45S125.29,140.44,125.06,141.05Zm-4.17-3.64c-.54-.88-1.43-1.32-2-1s-.57,1.33,0,2.22,1.43,1.32,2,1S121.43,138.29,120.89,137.41Zm7,1c-.94-.44-1.92-.33-2.2.26s.25,1.43,1.18,1.87,1.92.33,2.2-.26S128.78,138.87,127.85,138.42Zm1.42-6.14c-.46-.93-1.3-1.45-1.88-1.17s-.69,1.28-.24,2.2,1.3,1.45,1.88,1.17S129.72,133.21,129.27,132.28Zm-18.13-2.8c-.94-.42-1.93-.28-2.19.31s.28,1.42,1.23,1.84,1.92.28,2.19-.31S112.08,129.9,111.14,129.48Zm-4.4-1.32c-.54-.89-1.42-1.33-2-1s-.57,1.33,0,2.22,1.42,1.33,2,1S107.27,129,106.74,128.16Zm-2.91-3.87c-1,.33-1.6,1.1-1.39,1.72s1.17.84,2.15.51,1.6-1.11,1.39-1.73S104.8,124,103.83,124.29Zm6-3.83c.25-1-.06-1.95-.69-2.1s-1.35.53-1.6,1.53.07,2,.7,2.11S109.58,121.46,109.82,120.46Z"/><path class="cls-24" d="M135.41,134.28a4.17,4.17,0,0,1-1.14,1.49c-.65.41-.93,0-1.39-.68s-.84-1-1.52-.32a9.63,9.63,0,0,0-2.06,3.94,24.56,24.56,0,0,1-1.52,4.87,34.77,34.77,0,0,1-2,3,15.38,15.38,0,0,0,2.15-4.66,26.3,26.3,0,0,1,1.47-5.82c.59-1.19,1.66-2.41,2.2-2.51s1.63-.06,1.89.53.79-.17.79-.17a31.73,31.73,0,0,0-4.85-3.09c-1.52-.58-7.62-4.17-9.5-5.23s-5.21-3.3-6.16-4.62-2.31-3.82-2.88-4.53a18.14,18.14,0,0,0-1.5-1.55,4.76,4.76,0,0,0-1.93,2.59c-.74,2-1.29,3.8-2.16,4.84s-1.82,2.27-2.56,2.55a8.43,8.43,0,0,0,2.62-3.56c.41-1.13.82-3.7,1.43-4.75a6.48,6.48,0,0,1,2.64-2.49,25.79,25.79,0,0,1,3.79,5.23,11.45,11.45,0,0,0,3.29,3.32c1.33.83,4.74,2.87,6.43,3.84s3.9,2.1,5.4,3.06S134.2,132.36,135.41,134.28Z"/><polygon class="cls-25" points="145.77 128.71 145.77 118.01 143.99 118.62 112.49 118.62 110.71 118.01 110.71 128.71 112.1 128.03 144.38 128.03 145.77 128.71"/><path class="cls-26" d="M144,118.62h-31.5l-1.78-.61v10.7l1.39-.68h32.28l1.39.68V118Zm-.1,8.43a229.31,229.31,0,0,1-31.89,0,22.31,22.31,0,0,1,0-7.56,229.32,229.32,0,0,1,31.89,0A22.06,22.06,0,0,1,143.89,127.05Z"/><polygon class="cls-27" points="110.71 118.01 109.37 117.97 109.93 119.12 109.28 120.32 109.79 120.69 109.33 121.38 109.79 121.89 109.23 123.18 109.69 123.91 109.19 124.74 109.6 125.44 109.14 126.59 109.65 126.95 109.14 127.51 109.6 127.88 109.14 128.8 110.71 128.71 110.71 118.01"/><polygon class="cls-27" points="145.69 128.75 147.03 128.8 146.47 127.65 147.12 126.45 146.61 126.08 147.07 125.39 146.61 124.88 147.16 123.59 146.7 122.85 147.21 122.02 146.8 121.33 147.26 120.18 146.75 119.81 147.26 119.26 146.8 118.89 147.26 117.97 145.69 118.06 145.69 128.75"/><path class="cls-28" d="M143.15,126.68a254,254,0,0,1-30.6,0,16.49,16.49,0,0,1,0-6.64,254,254,0,0,1,30.6,0A16.32,16.32,0,0,1,143.15,126.68Z"/><path class="cls-5" d="M141.57,123.8a2,2,0,0,0-2.14-2,2.33,2.33,0,0,0-1.12.29.9.9,0,0,0-.34-.2v-.16a.74.74,0,0,0-.74-.74h-.9a.74.74,0,0,0-.74.74v.14h-.89a.64.64,0,0,0-.2,0,2,2,0,0,0-.66-.1,2.12,2.12,0,0,0-1,.24v-1a.74.74,0,0,0-.74-.74h-.9a.74.74,0,0,0-.74.74v1.08a2.69,2.69,0,0,0-1.23-.29,2.64,2.64,0,0,0-1.34.35,2.39,2.39,0,0,0-2.84.26,2.47,2.47,0,0,0-1.68-.61,2.52,2.52,0,0,0-1.64.56,2,2,0,0,0-1.48-.56V121a.74.74,0,0,0-.73-.74h-.9a.76.76,0,0,0-.58.27,3.64,3.64,0,0,0-1.17-.18,2.72,2.72,0,1,0,0,5.42,3.51,3.51,0,0,0,1.29-.23.73.73,0,0,0,.46.16h.9a.73.73,0,0,1,1,0h.9a.71.71,0,0,0,.58-.29,2.61,2.61,0,0,0,1.37.36,2.48,2.48,0,0,0,1.68-.61,2.41,2.41,0,0,0,2.84.27,2.72,2.72,0,0,0,1.34.34,2.56,2.56,0,0,0,1.38-.38.72.72,0,0,0,.59.31h.9a.74.74,0,0,0,.57-.27,2.13,2.13,0,0,0,1.15.34,2,2,0,0,0,.65-.11.54.54,0,0,0,.22,0h.89a.69.69,0,0,0,.56-.27,1.68,1.68,0,0,0,1.06.34,2.34,2.34,0,0,0,1-.23l.09-.06a2.33,2.33,0,0,0,1.12.29,2.2,2.2,0,0,0,2-1,.74.74,0,0,0,.1-.61h0l.06-.19A1.93,1.93,0,0,0,141.57,123.8Zm-7.46.18a.19.19,0,0,1-.13-.18.2.2,0,0,1,.13-.18.22.22,0,0,1,.13.18A.18.18,0,0,1,134.11,124Zm-5-.18a.22.22,0,0,1,.13-.18.2.2,0,0,1,.13.18c0,.1-.08.18-.12.18A.19.19,0,0,1,129.11,123.8Zm-5.86,0a.2.2,0,0,1,.13-.18.22.22,0,0,1,.13.18.14.14,0,1,1-.26,0Zm-5.81-.45a.79.79,0,0,1-.4.11c-.51,0-.65-.24-.65-.38s.13-.38.65-.38a.79.79,0,0,1,.4.11.71.71,0,0,0,.46.13v.28A.71.71,0,0,0,117.44,123.35Z"/><path class="cls-27" d="M117.86,124l.41.74a2.43,2.43,0,0,1-1.38.35,2,2,0,1,1,0-3.94,2.43,2.43,0,0,1,1.38.35l-.41.73A1.59,1.59,0,0,0,117,122c-1,0-1.39.61-1.39,1.12s.42,1.12,1.39,1.12A1.54,1.54,0,0,0,117.86,124Z"/><path class="cls-27" d="M118.63,121h.91v1.85h0a1.14,1.14,0,0,1,.74-.32c.48,0,1.15.22,1.15.88V125h-.9v-1.34a.46.46,0,0,0-.47-.46.53.53,0,0,0-.53.46V125h-.91Z"/><path class="cls-27" d="M123.39,122.54a1.4,1.4,0,0,1,1.55,1.26c0,.73-.65,1.25-1.55,1.25s-1.58-.52-1.58-1.25S122.5,122.54,123.39,122.54Zm0,1.81a.56.56,0,0,0,.61-.55.61.61,0,0,0-1.22,0A.55.55,0,0,0,123.38,124.35Z"/><path class="cls-27" d="M126.14,123.79a.6.6,0,0,0,.62.59.81.81,0,0,0,.43-.11l.31.57a1.62,1.62,0,0,1-.88.21,1.38,1.38,0,0,1-1.44-1.25,1.39,1.39,0,0,1,1.44-1.26,1.52,1.52,0,0,1,.88.23l-.31.55a.81.81,0,0,0-.43-.11A.6.6,0,0,0,126.14,123.79Z"/><path class="cls-27" d="M129.25,122.54a1.4,1.4,0,0,1,1.56,1.26c0,.73-.66,1.25-1.56,1.25s-1.57-.52-1.57-1.25A1.4,1.4,0,0,1,129.25,122.54Zm0,1.81a.56.56,0,0,0,.6-.55.61.61,0,0,0-1.21,0A.55.55,0,0,0,129.25,124.35Z"/><path class="cls-27" d="M131.22,121h.9v4h-.9Z"/><path class="cls-27" d="M133.84,122.54a1.25,1.25,0,0,1,.86.3v-.23h.9V125h-.89v-.27h0a1.19,1.19,0,0,1-.86.34,1.26,1.26,0,1,1,0-2.51Zm.27,1.81a.56.56,0,0,0,.61-.55.61.61,0,0,0-1.22,0A.56.56,0,0,0,134.11,124.35Z"/><path class="cls-27" d="M136.33,121.73h.9v.88h.55v.63h-.55V124c0,.22.06.33.2.33a.45.45,0,0,0,.23-.08l.22.66a1.59,1.59,0,0,1-.66.15.81.81,0,0,1-.89-.9v-.91H136v-.63h.38Z"/><path class="cls-27" d="M138.94,123.91a.51.51,0,0,0,.56.49.76.76,0,0,0,.64-.26l.65.29a1.51,1.51,0,0,1-1.36.62,1.27,1.27,0,1,1,0-2.51,1.24,1.24,0,0,1,1.4,1.26v.11Zm1-.45a.45.45,0,0,0-.49-.38c-.31,0-.48.16-.5.38Z"/><path class="cls-29" d="M150,113.11l-2,10,0,.15c-.55,2.27-3.33,6.63-3.22,9.1a37.24,37.24,0,0,1-.27,7.92c-.43,2.13-2.48,5.48-4,5.46s-2-3.91-3-4.22a5.56,5.56,0,0,0-1.46-.3,5.81,5.81,0,0,0-1.46-.3c-1.07-.12-3,3.27-4.46,2.68s-2-4.47-1.56-6.6a37.11,37.11,0,0,1,2.86-7.39c1.07-2.23.23-7.33.62-9.63l0-.15,2-10a13.44,13.44,0,0,1,4.12-5.83,10.05,10.05,0,0,0,4.47-7.09h0l.5-2.45,4.58.94-.5,2.45h0a10.05,10.05,0,0,0,1.33,8.28A13.44,13.44,0,0,1,150,113.11Z"/><rect class="cls-30" x="142.38" y="95.95" width="5.43" height="0.46" transform="translate(22.24 -27.15) rotate(11.57)"/><rect class="cls-30" x="142.39" y="94.4" width="6.03" height="0.58" transform="translate(21.95 -27.24) rotate(11.57)"/><rect class="cls-31" x="142.96" y="92.39" width="5.41" height="2.04" transform="translate(21.7 -27.32) rotate(11.57)"/><path class="cls-32" d="M146.84,104.56l-6.62-1.36a12.21,12.21,0,0,1-1.81,1.63,13.2,13.2,0,0,0-3.79,5.57l-1.94,9.46c-.43,2.11.35,7.11-.67,9.28a37.61,37.61,0,0,0-2.67,7c-.41,2,.07,5.71,1.37,6.25s3.1-2.68,4.08-2.58a98370219847029.3,98370219847029.3,0,0,0,2.64.54c.94.29,1.31,4,2.73,4s3.3-3.19,3.72-5.22a38,38,0,0,0,.31-7.5c-.08-2.4,2.6-6.69,3-8.8l1.94-9.47a13.19,13.19,0,0,0-1.3-6.6A12.18,12.18,0,0,1,146.84,104.56Z"/><path class="cls-33" d="M150,113.21l-2,9.86,0,.15-16-3.28,0-.15,2-9.86Z"/><path class="cls-5" d="M136.67,115.59l-.73,1.32-.71-.14-.27-2.68.7.14.12,1.83h0l.86-1.62.48.09.15,1.83h0l.83-1.63.7.14-1.31,2.36-.7-.15Z"/><path class="cls-5" d="M140.7,117.89l-.68-.14-.1-.55-1.06-.21-.31.46-.68-.14,1.64-2.29.59.12Zm-1-2h0l-.46.67.63.12Z"/><path class="cls-5" d="M141,115.32l2,.4-.11.51-.66-.14-.41,2-.63-.13.41-2-.66-.13Z"/><path class="cls-5" d="M144.66,116.6l-.95-.2-.11.5.92.19-.1.51-.92-.19-.1.5,1,.2-.11.5-1.59-.32.52-2.52,1.59.33Z"/><path class="cls-5" d="M146.13,116.37c.51.11.85.44.75.94a.75.75,0,0,1-.72.61l.75,1.24-.81-.17-.65-1.17-.2,1-.63-.13.51-2.52Zm-.52,1.06c.24,0,.53.1.6-.22s-.22-.39-.46-.44h-.08l-.13.66Z"/><path class="cls-34" d="M131.8,137.65a36.72,36.72,0,0,1,2.87-7.38c1.09-2.28.19-7.56.64-9.79l2-10a13.44,13.44,0,0,1,4.12-5.83A10.06,10.06,0,0,0,146,97.6h0l.5-2.45-3-.62L143,97h0a10,10,0,0,1-4.48,7.09,13.47,13.47,0,0,0-4.11,5.83l-2,10c-.46,2.22.44,7.51-.65,9.78A37.79,37.79,0,0,0,128.8,137c-.44,2.13-.19,5.42,1.25,6,.59.24,1.25-.18,1.91-.74A8.14,8.14,0,0,1,131.8,137.65Z"/><path class="cls-35" d="M149.48,113a13.44,13.44,0,0,0-1.5-7,10.06,10.06,0,0,1-1.33-8.28h0l.5-2.44-1.78-.37-.5,2.45h0a10.05,10.05,0,0,0,1.33,8.28,13.44,13.44,0,0,1,1.5,7l-2,10c-.46,2.23-3.36,6.73-3.25,9.25a37.24,37.24,0,0,1-.27,7.92c-.36,1.78-1.32,4-2.7,4.79a1.3,1.3,0,0,0,1,.61c1.56,0,3.08-2.9,3.51-5a37.15,37.15,0,0,0,.27-7.91c-.11-2.53,2.79-7,3.25-9.25Z"/><path class="cls-5" d="M150.35,135.07a16.8,16.8,0,0,1-5.92.89c-2.7.07-1.87-.57-4.57-.5-1.78,0-3,1.14-6.42-1.19-1.88-1.27-2.15-5.15.14-7.34a20,20,0,0,1,3.24-1.84c-.12-.21-.82-.65-.77-.88.1-.5.66-.74,1.16-.83a15.8,15.8,0,0,1,3.71.52A30.41,30.41,0,0,1,152,121.67"/><path class="cls-7" d="M150.32,135a14.71,14.71,0,0,1-8.46.55c-1.83-.45-3.57.4-5.37.06a6.42,6.42,0,0,1-3.63-2,4.85,4.85,0,0,1-.7-3.73c.49-2.57,2.56-3.62,4.72-4.63a.13.13,0,0,0,0-.19c-.12-.13-.49-.34-.53-.5-.12-.41.29-.86.65-1a2,2,0,0,1,.54-.06,10.4,10.4,0,0,1,1.93.24,6.42,6.42,0,0,0,1.42.3,8.4,8.4,0,0,0,1.64-.63,34.33,34.33,0,0,1,9.44-1.6.12.12,0,0,0,0-.24,42.35,42.35,0,0,0-6.46.77c-.84.18-1.67.39-2.49.65a6.87,6.87,0,0,1-2.46.73c-1.26-.13-2.86-.89-4.08-.22-.3.17-.66.49-.56.87s.35.36.49.53.2.27.23.15a2.75,2.75,0,0,1-.57.28,7.73,7.73,0,0,0-3.42,2.53,5.71,5.71,0,0,0-.7,4.34c.68,2.75,4,4,6.57,3.57a10,10,0,0,1,2.44-.15c.66.06,1.27.31,1.92.41a16.57,16.57,0,0,0,3.52,0,13.29,13.29,0,0,0,3.95-.8c.14-.06.08-.29-.06-.24Z"/><path class="cls-5" d="M90.8,135.19c2.33,1.47,24.74,1.5,26.8-.58,1.85-1.87,3.09-4.8,1.57-7a5.13,5.13,0,0,0-1.9-1.59l.65-.11.1,0s0-.13,0-.19a1.72,1.72,0,0,0-1.41-.87,10.6,10.6,0,0,0-3.64,0c-2.8-.53-5.74-.19-8.49-1-3.82-1.06-6.07-2-7.74-2.44"/><path class="cls-7" d="M90.74,135.3c1.29.76,3.3.71,4.73.82,2.89.22,5.8.26,8.7.23s5.81-.13,8.7-.44c1.43-.16,3.5-.2,4.71-1.12A6.84,6.84,0,0,0,120,130a4,4,0,0,0-.92-2.69,4.5,4.5,0,0,0-.8-.77c-.57-.44-.83-.26-.2-.51a.13.13,0,0,0,.09-.11c0-1.22-2.1-1.3-2.88-1.35-1.07-.06-2.1.08-3.17,0s-2.39-.19-3.6-.26c-4.14-.25-7.75-2-11.7-3-.15,0-.22.19-.07.23,3.18.84,6.22,2.34,9.5,2.79,2.08.29,4.2.23,6.29.53.92.13,1.81-.09,2.75,0a6.73,6.73,0,0,1,1.61.23,1.26,1.26,0,0,1,1,.8l-.65.11a.12.12,0,0,0,0,.22,4.38,4.38,0,0,1,1.85,6.23,4.81,4.81,0,0,1-2.32,2.54,20.89,20.89,0,0,1-5.44.88,104.05,104.05,0,0,1-15.29.1c-1.55-.11-3.76,0-5.15-.83-.13-.08-.25.13-.12.21Z"/></g></g></g></svg>