<svg xmlns="http://www.w3.org/2000/svg" xmlns:xlink="http://www.w3.org/1999/xlink" viewBox="0 0 427.98 305.85"><defs><style>.cls-1{isolation:isolate;}.cls-2{mix-blend-mode:screen;opacity:0.6;}.cls-3{fill:#85d6d0;}.cls-4{fill:#cbccd0;}.cls-5{fill:#737a7e;}.cls-6{fill:#fff;}.cls-7{fill:#ffe74d;}.cls-8{fill:#807427;}.cls-9{fill:#c8c9ce;}.cls-10{fill:#b1b2b7;}.cls-11{fill:#bfad3a;}.cls-12{fill:#e8e6e5;}.cls-13{fill:#d17527;}.cls-14{fill:#437380;}.cls-15{fill:#65adbf;}.cls-16{fill:#150301;}.cls-17{fill:#211613;}.cls-18,.cls-20{fill:none;}.cls-18{stroke:#211613;stroke-miterlimit:10;stroke-width:0.55px;}.cls-19{fill:#140408;}.cls-20{stroke:#221714;stroke-linecap:round;stroke-linejoin:round;stroke-width:1.15px;}.cls-21{fill:#140407;}.cls-22{fill:#221714;}.cls-23{opacity:0.15;}.cls-24{mix-blend-mode:multiply;fill:url(#radial-gradient);}.cls-25{fill:#c98d3b;}.cls-26{fill:#a37639;}.cls-27{fill:#b3232e;}.cls-28{fill:#7c212e;}</style><radialGradient id="radial-gradient" cx="-4117.05" cy="1285.49" r="12.87" gradientTransform="matrix(0.02, 0.18, -1.46, 0.02, 2185.3, 926.2)" gradientUnits="userSpaceOnUse"><stop offset="0" stop-color="#3d2913"/><stop offset="0.07" stop-color="#513f2b"/><stop offset="0.26" stop-color="#85786b"/><stop offset="0.45" stop-color="#b1a8a0"/><stop offset="0.62" stop-color="#d3cec9"/><stop offset="0.77" stop-color="#ebe9e7"/><stop offset="0.9" stop-color="#faf9f9"/><stop offset="1" stop-color="#fff"/></radialGradient></defs><g class="cls-1"><g id="Layer_2" data-name="Layer 2"><g id="圖層_1" data-name="圖層 1"><g class="cls-2"><path class="cls-3" d="M94,129.63a2.34,2.34,0,0,0,.43,0l-.55-.05S93.92,129.62,94,129.63Z"/><path class="cls-3" d="M96.69,127.6l.31,0a1.22,1.22,0,0,0,1.18-.36c.33-.35-.21-.69-.68-.83a1.5,1.5,0,0,0-.29-.06,3.12,3.12,0,0,0-1,.15c-.26,0,0,.23-.11.55S95.85,127.49,96.69,127.6Z"/><path class="cls-3" d="M96.48,124.93a1.56,1.56,0,0,1,.61.43s0,0,.07,0,.15,0,.36-.19.07-.21-.13-.59-.26-.59-.64-.62a1.29,1.29,0,0,0-.33,0c-.26,0-.34.28-.34.55S96.17,124.79,96.48,124.93Z"/><path class="cls-3" d="M88.1,122.71c.2,0,1-.08,1.36-.1a.87.87,0,0,1,.23,0l.16,0,.14,0a1.31,1.31,0,0,0,.56-.1,1.54,1.54,0,0,1,.68-.07l.46.06.5.07a4,4,0,0,0,.49,0c.85,0,1.22-.37,1.26-.67,0-.09-.14-.14-.42-.17a22.12,22.12,0,0,0-3.93.32,3.94,3.94,0,0,0-1.5.57S88.05,122.7,88.1,122.71Z"/><path class="cls-3" d="M82.17,134.26c-.11,0-.14-.06-.07-.07.24-.07.33-.51-.1-.68a1,1,0,0,0-.29-.07,4.57,4.57,0,0,0-1.3.23,8.78,8.78,0,0,1-1.78.16c-.2,0-.22-.07.12-.17,1-.3.87-.52.92-1,0-.09-.09-.14-.26-.15a3.05,3.05,0,0,0-.8.06l-.89,1.25Z"/><path class="cls-3" d="M84.72,134.11a1.71,1.71,0,0,0-.52,0,6.35,6.35,0,0,1-1.38.16l2.51.23A.68.68,0,0,0,84.72,134.11Z"/><path class="cls-3" d="M75.36,133.64l.2-.27a5.36,5.36,0,0,0-.6.24Z"/><path class="cls-3" d="M84.94,140.23c.77.21.26.21,1.12.39s.57.36,1.25.42l.21,0a5.48,5.48,0,0,0,2.21-.36c-.08-.08-.1-.27.2-.54.08-.08,0-.11-.07-.12a6.13,6.13,0,0,0-1.35.2.3.3,0,0,1-.13,0c-.24,0,.17-.43,1-.6a2.94,2.94,0,0,1,.82,0c.46,0,.79.18,1.09.21.45,0,.66-.86-.06-1.07s-.85-.58-1.76-1.13c-.51-.3-.5-.48-.38-.68l-2.43-.22-2.13,3C84.72,139.78,84.36,140.06,84.94,140.23Z"/><path class="cls-3" d="M89.59,134.93c.07-.61.08-1.2-.16-1.39a1.22,1.22,0,0,0-.35-.2l-1,1.45Z"/><path class="cls-3" d="M71.33,138.42a4.07,4.07,0,0,0,.31.44l.51-.71C71.6,138.2,71.21,138.28,71.33,138.42Z"/><path class="cls-3" d="M73,135.57l.84.24.18-.24-1.32-.12Z"/><path class="cls-3" d="M71.71,136.8a2.91,2.91,0,0,0,1.16.34l.64-.9C72.23,136.4,71.3,136.52,71.71,136.8Z"/><path class="cls-3" d="M76.14,137.25a7.43,7.43,0,0,1,1.58.31,11.92,11.92,0,0,0,2.4.5h0a10.41,10.41,0,0,1-2,.22c-1,0-2.36-.16-3.46-.22l-1.19,1.66.4.06.42,0,.39,0a2,2,0,0,1,.47.08c.75.22-.15.8,0,.92a.76.76,0,0,0,.26,0c.57.05,2,0,3.36,0,1.73-.06,1.26-.28,2.66-.38h0l2.83-4-8-.72-1,1.44Z"/><path class="cls-3" d="M98.41,132.16l-.31,0H98a6.23,6.23,0,0,0-2.94.56c-.08.21.7.19,1.21.5s.73.3-.46,1a1.22,1.22,0,0,1-.7.23c-.37,0-.27-.52-.37-.62s0-.21-.15-.22a2.05,2.05,0,0,0-.46.05c-.76.15-1.39.36-.59.8a7.34,7.34,0,0,1,1.36,1l1.08.1Z"/><path class="cls-3" d="M99.42,135.82a3.85,3.85,0,0,0,.69-.39c.47-.38.12-.5,0-.89s-.1-.49-.52-.54l-1.24,1.72Z"/><path class="cls-3" d="M101,132.72c.3-.11.08-.23-.29-.31l-.68,1C101,133.18,100.47,132.94,101,132.72Z"/><path class="cls-3" d="M77.09,128.09c.15,0,.33,0,.51,0a.66.66,0,0,0,.2,0l-1.06-.1A.63.63,0,0,0,77.09,128.09Z"/><path class="cls-3" d="M90.3,132.89a.89.89,0,0,0,.61.49,1.24,1.24,0,0,0,.83-.41c.66-.61.63-.94-.49-1l-.54,0a4.09,4.09,0,0,0-.63,0l-.39.54A.82.82,0,0,1,90.3,132.89Z"/><path class="cls-3" d="M96.65,141.79c.8-.15.92-.21.92-.32A4.44,4.44,0,0,0,96.15,140c-.3-.17-.47-.27-.6-.33l-1.44,2a6.06,6.06,0,0,0,.85.12A7.26,7.26,0,0,0,96.65,141.79Z"/><path class="cls-3" d="M84.55,125.46c-.57.1-.64.2.08.33l.23,0c.62.05,1.1-.12,1.09-.32s-.12-.11-.28-.13A6,6,0,0,0,84.55,125.46Z"/><path class="cls-3" d="M3.81,149.21H4c.52,0,.85,0,.78-.14s-.09-.22,0-.38,0-.14,0-.14a5.38,5.38,0,0,0-1,.15,2.72,2.72,0,0,1-.78,0l-.27,0-.14,0s0,0,.09.07A2.77,2.77,0,0,0,3.81,149.21Z"/><path class="cls-3" d="M18.49,151.7l-.21,0-.43.12.49,0Z"/><path class="cls-3" d="M110,152.35c.34-.23.27-.34-.08-.37a5.57,5.57,0,0,0-1,0,.65.65,0,0,0-.4.25l1.4.12Z"/><path class="cls-3" d="M108.39,148.74c-.36-.72-.85-.94-1.7-1.28-.61-.25-.54-.73-.78-.75-.09,0-.23,0-.48.22a13.42,13.42,0,0,0-1.93,1.65,5.65,5.65,0,0,1-1.08,1c-.43.34.59,0,.69.55.06.31,0,.48.13.5a3.75,3.75,0,0,0,1-.34,5.41,5.41,0,0,1,2.53-.49,3.65,3.65,0,0,1,.87.19l.07,0,.79-1.11Z"/><path class="cls-3" d="M103.82,128.41l0-.12a7.45,7.45,0,0,1,.4-.8l-.64.9Z"/><path class="cls-3" d="M102.36,126.63a5.21,5.21,0,0,1-.79,0c-.68-.06-1,0-.65.21s.3.42.41.63-.21.59-.23.63-.71-.71-.71-.71c-.27-.23-.4-.42-.75-.45a1.22,1.22,0,0,0-.37,0c-.65.09-.32.32-.39.41s.67,0,.52.28-.07.31-.46.32l2.31.21Z"/><path class="cls-3" d="M94.52,127.57a.89.89,0,0,0-.33-.09l-.48-.06a1.1,1.1,0,0,0-.41,0l0,0Z"/><path class="cls-3" d="M83.18,129.06c-.13.1-.11.14,0,.15a6.24,6.24,0,0,0,1.16-.17,11.24,11.24,0,0,1,1.87,0,12.44,12.44,0,0,1-2.63.6c-1.24.14-2.19.19-2.51.19s0,.35,1.18.62a2.38,2.38,0,0,0,.37.06c1,.09,2.22-.41,4.11-.67a20.08,20.08,0,0,1,2.26-.3,1.47,1.47,0,0,1,.27.06l.28-.39-6.07-.55A.85.85,0,0,1,83.18,129.06Z"/><path class="cls-3" d="M91.49,126.45a1.06,1.06,0,0,0-.17-.48.29.29,0,0,0-.21-.12,5.92,5.92,0,0,0-1.61.64c-.55.23-.71.41-.65.57l2.08.19Z"/><path class="cls-3" d="M79,128.59l.25-.35h0C79,128.4,78.92,128.5,79,128.59Z"/><path class="cls-3" d="M83,128.58l-1.38-.13-.51.71A3.77,3.77,0,0,0,83,128.58Z"/><path class="cls-3" d="M84.7,126.65l-.33,0H84l1,.09A1.32,1.32,0,0,0,84.7,126.65Z"/><path class="cls-3" d="M92.36,129.43l-.45-.05,0,.06Z"/><path class="cls-3" d="M86.69,123.77c.28,0,.48,0,.48-.08s-.15-.46-.77-.52a3.25,3.25,0,0,0-.72,0c-.44.07-.57.07,0,.32A3.61,3.61,0,0,0,86.69,123.77Z"/><path class="cls-3" d="M73.58,133.48l.28-.12c.44-.16,1.32-.3,2-.46l1.48-2.07a2.12,2.12,0,0,0-.68-.16,6.39,6.39,0,0,0-1.71.21s0,0,0-.06c.2-.22-.45-.4-.79-.53A3.26,3.26,0,0,0,73,130c-.21,0-.47,0-.77,0a26.31,26.31,0,0,0-2.76.06l-.58.82a.58.58,0,0,1,.05.37c-.1.58.2.23-.83.8l-.09.05-.62.86Z"/><path class="cls-3" d="M65.76,135.41c.24.23.35.65,1,.7a1.65,1.65,0,0,0,.38,0,19.73,19.73,0,0,0,2-.35,3.47,3.47,0,0,0,1.36-.5l-4.46-.4-.35.49Z"/><path class="cls-3" d="M87.83,124.66a8.21,8.21,0,0,0,1.18,0c1.44-.11,2.62-.46,2.26-.58a7.4,7.4,0,0,0-.89-.32c-.36-.07.44-.14,1.41-.24.67-.07,1.11-.23.34-.29a17.67,17.67,0,0,0-1.82,0,10.74,10.74,0,0,0-2.46.39,1.06,1.06,0,0,0-.34.83C87.52,124.55,87.55,124.64,87.83,124.66Z"/><path class="cls-3" d="M79.11,126.14a7.53,7.53,0,0,1,1.59-.52h0c.1,0-.65.33-.67.64h0l.56,0,1.56-2.19a2.8,2.8,0,0,0-.45.16,15.17,15.17,0,0,0-3.62.8,19.6,19.6,0,0,0-2,.82l3,.27Z"/><path class="cls-3" d="M84.38,124.53l-.09.12C84.38,124.61,84.41,124.58,84.38,124.53Z"/><path class="cls-3" d="M148.1,143.65h.26c.72-.09.8.09,1.29-.07s.7-.42.47-.72a.3.3,0,0,1,0-.41l-1.13-.1a3.53,3.53,0,0,0-.46.15l-.76,1.06A.9.9,0,0,0,148.1,143.65Z"/><path class="cls-3" d="M332.66,135.54l-.38,0,.17,0Z"/><path class="cls-3" d="M164.06,117.21a18.11,18.11,0,0,1-2.35,0,15,15,0,0,0-3.8.46l5.45.5Z"/><polygon class="cls-3" points="172.31 121.04 164.34 120.32 160.48 125.73 168.45 126.45 172.31 121.04"/><path class="cls-3" d="M147.4,145a5.23,5.23,0,0,0-1.69,1.43l-.6.83a1.29,1.29,0,0,0-.14.34.8.8,0,0,0,0,.15l7.81.71,3.86-5.41-4.54-.41a.3.3,0,0,1,0,.08C151.05,144.08,152,143.66,147.4,145Z"/><polygon class="cls-3" points="163.07 149.38 166.94 143.97 158.96 143.25 155.1 148.66 163.07 149.38"/><polygon class="cls-3" points="178.78 127.39 182.64 121.98 174.67 121.26 170.81 126.66 178.78 127.39"/><path class="cls-3" d="M167.33,149.76c.94-.21,2-1.81,4.06-2.2a37.28,37.28,0,0,1,4.3-.53h.06l1.51-2.11-8-.72-3.86,5.4Z"/><path class="cls-3" d="M173.69,119.12l.86-1.21-.91-.29-.85-.27a11.22,11.22,0,0,0-2.19-.39,24.33,24.33,0,0,0-3.86,0l-1,1.43Z"/><polygon class="cls-3" points="199.44 129.25 203.3 123.84 195.32 123.13 191.46 128.53 199.44 129.25"/><polygon class="cls-3" points="189.11 128.32 192.97 122.91 185 122.19 181.14 127.6 189.11 128.32"/><path class="cls-3" d="M147.8,124.58l3.79-5.31c-1.47.35-2.9.67-3.47.79-1.1.24-.87.41,0,.67s1.79.44,1.79.44a8.49,8.49,0,0,1-4.59,1.86c-1.44.13-3.6.43-5.37.71l-.09.12Z"/><path class="cls-3" d="M151.52,134.77l-.39,0c0,.2,0,.4,0,.61Z"/><path class="cls-3" d="M153.21,156.29c1.16-.93,2.69-2.21,3.95-3.25s1.5-1.6,2.05-2l-5.48-.5L149.87,156Z"/><path class="cls-3" d="M145.48,154.34c0,.39-.07.85,0,1.25l2.07.19,3.86-5.41-6.56-.59c0,.27,0,.54-.06.83C144.59,151.8,145.38,153.55,145.48,154.34Z"/><path class="cls-3" d="M174.56,116.32l-.18,0c-.11,0-.08.07,0,.18a3.47,3.47,0,0,0,.79.47l.6-.84Z"/><polygon class="cls-3" points="168.31 142.05 172.17 136.64 164.2 135.92 160.34 141.33 168.31 142.05"/><path class="cls-3" d="M207.36,124.21l-1.71-.15L205,125Z"/><path class="cls-3" d="M176.93,118.73l-.36-.13-.53.73,8,.72,3.15-4.42c-.87.28-1.39.93-2.43.87h-.15a14.25,14.25,0,0,1-1.82-.33,17.85,17.85,0,0,0-2.15-.36,7,7,0,0,0-.79,0c-.38,0-.82,0-1.29.07l-1.76,2.46A3.68,3.68,0,0,1,176.93,118.73Z"/><polygon class="cls-3" points="157.98 141.11 161.84 135.71 153.87 134.99 150.01 140.39 157.98 141.11"/><path class="cls-3" d="M182.82,145.67l.76-.19-4-.36-1.07,1.5A42.32,42.32,0,0,0,182.82,145.67Z"/><polygon class="cls-3" points="158.13 125.52 161.99 120.11 154.01 119.39 150.15 124.8 158.13 125.52"/><polygon class="cls-3" points="183.87 135.65 187.73 130.24 179.76 129.52 175.9 134.93 183.87 135.65"/><polygon class="cls-3" points="177.41 129.31 169.43 128.59 165.57 134 173.54 134.72 177.41 129.31"/><path class="cls-3" d="M194.34,121l3.33-4.66a21.42,21.42,0,0,0-3-.55l-.44,0c-1.35,0-3-.18-4.43-.24l-3.4,4.76Z"/><polygon class="cls-3" points="194.2 136.58 198.06 131.18 190.09 130.46 186.23 135.86 194.2 136.58"/><path class="cls-3" d="M187.18,143.75a6.64,6.64,0,0,1,.52-1.89c.63-1.09,1.36-1.1,2.4-2.05a10.28,10.28,0,0,1,1.72-1.39l-7-.63-3.86,5.4Z"/><polygon class="cls-3" points="182.5 137.57 174.53 136.85 170.66 142.26 178.64 142.98 182.5 137.57"/><path class="cls-3" d="M150.89,130.57a3.92,3.92,0,0,1,.32,2.13l1.68.15,3.86-5.41-8-.72-2,2.82C148.69,129.8,150.49,130.11,150.89,130.57Z"/><path class="cls-3" d="M212,122.58c1.45-.3,2.15-.53,2.79-.63.36,0,.77,0,.93-.1l.06-.08a3.35,3.35,0,0,0-.92-.36,11.33,11.33,0,0,0-2.71-.74c-.21,0-.43,0-.7,0-1.17,0-1.92.31-3.61.37l-.8,1.12Z"/><polygon class="cls-3" points="163.22 133.78 167.08 128.38 159.11 127.66 155.25 133.06 163.22 133.78"/><path class="cls-3" d="M137.53,127.17c.22.51,1.21.55,1.62,1.09.25.34.6.42,1.31.49l.61,0,.81.07.38,0a19,19,0,0,1,2.23.33l1.93-2.71-8-.72-.95,1.33Z"/><path class="cls-3" d="M204.67,121.92l.63-.88c-2,.1-4,.41-4,.41s1.11-.4.74-.89,3.11-1.73,3.64-1.86-2.68-1-4.39-1.42c-.43-.1-.94-.24-1.5-.39l-3.08,4.31Z"/><path class="cls-3" d="M337.26,139.91c.32.09.75.17,1.31.29,1.35.28.89.39,1.32.42l.3,0c.93,0,2.06.25,2-.07s-.14-.51.38-1.07,1.3-.47.63-.92a1.86,1.86,0,0,0-.83-.28,2.78,2.78,0,0,0-.41,0,.84.84,0,0,1-.21,0s0,0,0,0,1-.2.73-.25-1.84-.23-1.6-.83.87-.59,1.22-.6.29-.05.13-.21l-2.32-.21Z"/><path class="cls-3" d="M334.46,136.48c-.72.45-1.45,1-1.45,1a1.25,1.25,0,0,0,1,.6h.28a3.29,3.29,0,0,1,1.45.46l1.83-2.57-.89-.08,0,0C335.32,136.63,335.18,136.05,334.46,136.48Z"/><path class="cls-3" d="M124.16,122.37a5.46,5.46,0,0,0-.81,0l1.57.15A3.52,3.52,0,0,0,124.16,122.37Z"/><path class="cls-3" d="M120.24,117l.44-.61-.78-.07C119.83,116.5,120,116.74,120.24,117Z"/><path class="cls-3" d="M122.53,118.11a6.36,6.36,0,0,0,.79.12,28.1,28.1,0,0,0,4-.06h0c.12,0-1.69.65-1.69.65s1.59-.06,3.43-.2l1-.09.87-1.22-8-.72-1,1.38Z"/><path class="cls-3" d="M157.54,116.28c-.25-.08-.63-.18-1.09-.3l-.51.71C157.06,116.37,157.54,116.28,157.54,116.28Z"/><path class="cls-3" d="M117.48,127.67c1,.08,2,.11,3.84.24a5.76,5.76,0,0,0,2.27-.21l2.18-3.06-5.58-.5c.64.16,1.67.39,1.71.72,0,.08.13.13.33.14a13.42,13.42,0,0,0,2.52-.28,7.64,7.64,0,0,1-2.91.75c-1-.08-.68-.6-1.9-.71l-.38,0c-1.68,0-1.76.23-1.33.66s.89.57-.55.84a16.33,16.33,0,0,0-1.8.36l-.51.71A8,8,0,0,0,117.48,127.67Z"/><path class="cls-3" d="M146.7,119.41l1.94-.51-4.95-.44-1.18,1.64A32.31,32.31,0,0,0,146.7,119.41Z"/><path class="cls-3" d="M129.5,122.93l5.79.52c1.1-.7,1.08-1.27.49-1.47s1.55.08,2.47-.14l.6-.12,2.48-3.48-5.07-.46c-.46.14-2.17.65-3.82,1Z"/><path class="cls-3" d="M134.22,118.06c1.19-.15,1.75-.24,2-.28l-2.85-.26-.51.71Z"/><path class="cls-3" d="M129.58,119.31a36.82,36.82,0,0,1-5.06.22c-1.16-.07-1.31.41-.45.9s1.13,1.4,1.53,1.73a.64.64,0,0,1,.23.44l1.31.12Z"/><path class="cls-3" d="M142,121c.83-.39,1.23-.58.45-.64h-.1l-.53.73Z"/><path class="cls-3" d="M142.71,116.32l1.54-2.16c-2-.12-4.09-.34-4.95-.33-1.17,0,.25.47.66.77.09.07,0,.08-.17.06s-.54-.07-1-.13-1-.12-1.56-.17a15.75,15.75,0,0,0-1.58-.08l-1,1.32Z"/><path class="cls-3" d="M152.24,117.18l.88,0,1.17-1.65a32.48,32.48,0,0,0-3.36-.53,6.35,6.35,0,0,0-1,0h-.63a2.25,2.25,0,0,1-1-.32,3.17,3.17,0,0,0-1.29-.35l-.3,0-1.64,2.29Z"/><path class="cls-3" d="M127.07,128.26c2.34-.3,1.94-1.1,2-1.36s-.63-.41-1-.59,1.22-.79,2-1.28l-1.91-.18-2.58,3.63Z"/><path class="cls-3" d="M133.05,114.44c-1.74.16-2.71.33-1.86.84l1.19.1Z"/><path class="cls-3" d="M180.17,171.24h.26l1.13-1.57C180.15,170.54,179.18,171.16,180.17,171.24Z"/><path class="cls-3" d="M188.83,167.32c.15-.29,0-.56-.62-.77s-.51-.39-.59-.4l-.65.1-.51.08-.52.73Z"/><path class="cls-3" d="M184.81,170.53a2.15,2.15,0,0,0,1.93-1.15,1.45,1.45,0,0,0,.12-.19l-2.29-.21-1.34,1.87A6.4,6.4,0,0,1,184.81,170.53Z"/><path class="cls-3" d="M105.85,151.77a4.24,4.24,0,0,0,.66-.17L107,151h-.44c-1.55,0-2,0-2.19.57,0,.19,0,.31.07.37l.5.05C105.16,151.9,105.47,151.85,105.85,151.77Z"/><path class="cls-3" d="M381.13,155.53h-.05l0,0Z"/><path class="cls-3" d="M384.5,156.2h.28c.59-.07,1.13-.11,1.6-.18l-2.08-.19C384.22,156,384.18,156.17,384.5,156.2Z"/><path class="cls-3" d="M382.73,153.63l-.21-.13-.07.1Z"/><path class="cls-3" d="M380.34,153.05c-.24.07-.51.17-.81.29l.56,0Z"/><path class="cls-3" d="M378.72,155.32h-.06l0,.05Z"/><path class="cls-3" d="M384.94,153.35h-.07c-.31,0-.48.2-.73.42l2.05.18A3.54,3.54,0,0,0,384.94,153.35Z"/><path class="cls-3" d="M389.05,156.25l-.63-.06a1.72,1.72,0,0,0,.38.4Z"/><path class="cls-3" d="M392.29,157.58a2.85,2.85,0,0,0,2-.53c.3-.2-.52-.19-1.31-.38a3.08,3.08,0,0,0-.53-.08l-.65,0h-.49l-.71,1h0C391,157.58,391.54,157.57,392.29,157.58Z"/><path class="cls-3" d="M381.43,156.82a3.62,3.62,0,0,0-.75.05c-.7.11-.75.25-.35.67s.25.32-.23.56c-.23.11-.23.11-.09.13a2.38,2.38,0,0,1,.86.22c.75.36.78.91,1.3,1.08a1.63,1.63,0,0,0,.42.08,2.22,2.22,0,0,0,.61,0,1.9,1.9,0,0,0-.12-1c-.21-.55-1.32-.8-1.23-1.26C381.91,157,381.81,156.86,381.43,156.82Z"/><path class="cls-3" d="M345.09,140.83l-.27,0,.33,0,.33-.46-.24,0A5.85,5.85,0,0,0,343,141a20.52,20.52,0,0,1-2.35,1l3.35.3Z"/><path class="cls-3" d="M347.85,142.67c0-.06,0-.13-.1-.22-.51-.44-.46-.33-.83-.68l-.54.77Z"/><path class="cls-3" d="M116.67,137.38l2-2.87c-.23-.68-.41-1.12-.41-1.12-.91-.15-2-.34-3-.43a5.57,5.57,0,0,0-3.81.66c-.4.31-.9.71-1.43,1.16l-1.34,1.88Z"/><path class="cls-3" d="M127,138.31l.37-.51c-.91-.46-.79-1.41-1.6-1.84a2.06,2.06,0,0,0-.77-.19,34.41,34.41,0,0,0-4.79.38l-.16,0-1,1.42Z"/><path class="cls-3" d="M129.79,138.57a2.21,2.21,0,0,0-.34-.18l-.1.14Z"/><path class="cls-3" d="M134.91,146.83a4.81,4.81,0,0,0,.45-.49c.14-.19,0-.21-.38-.3l-.53.75Z"/><path class="cls-3" d="M130.72,148.5l-.27,0c0,.09.07.17.1.26Z"/><path class="cls-3" d="M120.87,151c.33.12-.13.21-.64.28l-.29.4a19.84,19.84,0,0,1,1.85.82,9.31,9.31,0,0,0,3,.9c.54.05.78,0,.37-.31-1-.61-1-1.59-1.33-2-.12-.12-.17-.16-.13-.16s.45.19,1.06.36a3.76,3.76,0,0,1,1.76,1.19.3.3,0,0,0,.21.1c.29,0,.75-.32,1.55-1.07,1-1,.55-1-.67-1.92-.81-.62-1.13-1.11-1.19-1.54l-3.71-.34-2.22,3.11Z"/><path class="cls-3" d="M110.07,139.88c.84.1,1.92.23,2.82.31a8.23,8.23,0,0,0,1.75,0l.07-.1,0,0c-.23-.2-.13-.33.29-.36l.32-.45-8-.72-.28.39A9.17,9.17,0,0,0,110.07,139.88Z"/><path class="cls-3" d="M124.12,145.86l8,.72.86-1.21-.53-.26a18.69,18.69,0,0,0-3.76-1.72,13.2,13.2,0,0,1,2.6-.6c1.53-.3,2.05-.21.68-2l-4-.36Z"/><path class="cls-3" d="M119,139.64l-1.32-.12-.27.38C118.38,140,118.78,139.81,119,139.64Z"/><path class="cls-3" d="M121.93,143.13a9.24,9.24,0,0,0,.94,1l2.75-3.85-6.29-.57a2.29,2.29,0,0,0,.81.73C121.1,141,121.31,142.31,121.93,143.13Z"/><path class="cls-3" d="M113.43,148.69c-.36.59-.36.85,1.19,1,1.13.1,2.9-.22,3.88-.14a2,2,0,0,1,.42.08l1.1-1.53a9.61,9.61,0,0,1-2,.23C113.82,148.43,113.8,148.1,113.43,148.69Z"/><path class="cls-3" d="M112.56,131.25l-.08.12c1.59.12,4,.29,5.8.4Z"/><path class="cls-3" d="M113,127.06a2.14,2.14,0,0,0-.49-.09h-.18c-.65,0-.89,0-1.13,0a4.56,4.56,0,0,1-1-.29,15.49,15.49,0,0,0-3.4-.65c-.48-.05-.36.12-.24.7s.11.66.63.7a4.77,4.77,0,0,0,.64,0,8.76,8.76,0,0,1,1.24,0c.53,0,.91.21,1.06.68s.3.75.21.94l1.24.11Z"/><path class="cls-3" d="M110.11,131.17l.1-.13-1-.09A2.67,2.67,0,0,0,110.11,131.17Z"/><path class="cls-3" d="M125.14,130.34c0-.11-.06-.21-.22-.32a3.79,3.79,0,0,0-.34-.2l-.32.44Z"/><path class="cls-3" d="M114,129.33h0Z"/><path class="cls-3" d="M122.55,129.15h-.09c-.93-.08-1.93.16-3.4.14a7.18,7.18,0,0,0-2,.33l4.86.44Z"/><path class="cls-3" d="M108,123.51c-.42.08-1.29,0-.9.43.22.23.26.33.43.34a4.14,4.14,0,0,0,.72-.08,12.36,12.36,0,0,0,2.66-.65c.09-.06,0-.16-.14-.26l-2.89-.26C108.06,123.28,108.16,123.48,108,123.51Z"/><path class="cls-3" d="M106.42,119.28c-1.6.17-1.39.39-.08,1a3.7,3.7,0,0,0,.42.19l.94-1.32C107.31,119.16,106.82,119.24,106.42,119.28Z"/><path class="cls-3" d="M99.27,122.66h.19l.52,0a17.07,17.07,0,0,1,2,.38c1,.21,1,.13,1.15.56a.83.83,0,0,0,.79.44h.28l.87-1.22,0-.08-5-.46C99.33,122.42,98.82,122.62,99.27,122.66Z"/><path class="cls-3" d="M106.7,130.72l-1.59-.14a4,4,0,0,0,.83.19A2.38,2.38,0,0,0,106.7,130.72Z"/><path class="cls-3" d="M120.22,143.85a2.53,2.53,0,0,0-.52,0c-1.15.18-1.84.32-1.52,1.11,0,.12.1.24.15.34l1.43.13C120.39,144.88,121.1,143.92,120.22,143.85Z"/><path class="cls-3" d="M121.43,135.25l.23,0a13.44,13.44,0,0,0,3.11-.24c.28,0-1.38-.88-3-1.28l-.94,1.32A2.39,2.39,0,0,0,121.43,135.25Z"/><path class="cls-3" d="M119.47,118.06l0,0a3.28,3.28,0,0,0-2.22-1.4h-.11a6.21,6.21,0,0,0-3,.93c-1.41.65-2.57,1.21-1.61,1.37.29,0,.54.07.75.09h.15c.37,0,.56,0,.51.18s-.43.34-1.93.21-1.2.13-.82.85c.22.41.39.52.75.55s.62,0,1.17,0c1,.07,1.61-.07,2.26,0a2.63,2.63,0,0,1,.6.11c.94.27,1.14.47,0,.58l-1,.08,1.77.16Z"/><path class="cls-3" d="M122.6,122c.94,0,1.34-.2.67-.46s-1.52-.42-1.33-.56,1-.52.81-.77-.74-.29-1.11-.44c-.21-.09-.34-.33-.49-.56l-2,2.77,2.18.19A6.73,6.73,0,0,1,122.6,122Z"/><path class="cls-3" d="M111.46,124.94c-1.38-.09-3.66,0-2.53.16.92.1,1.64.27,2.9.38.29,0,.6,0,1,.06.58,0,1,0,1.33,0l.56-.78A17,17,0,0,1,111.46,124.94Z"/><path class="cls-3" d="M215.06,213.73c-.39-.2-.41-.47-.32-.85a4.89,4.89,0,0,0,.12-1.32c0-.4.2-.24-.19-.64l-.19-.21-4.46-.4-3.86,5.41,8,.72,1.7-2.38A5.93,5.93,0,0,1,215.06,213.73Z"/><path class="cls-3" d="M216.62,216.52c.32-.41.49-.3.45-.68l-.58.81h0Z"/><polygon class="cls-3" points="168.43 237.77 164.56 243.17 172.53 243.9 176.4 238.49 168.43 237.77"/><path class="cls-3" d="M151,205a2.89,2.89,0,0,1-.62,1.28c-.34.28-.37.21-1,.65s-1.94,1.28-2.06,1.44.14.2.26.55.09,1,.23,1.55l4.36.39,3.86-5.4Z"/><path class="cls-3" d="M214.28,200.84l1.17-1.64c-.34-.08-.55-.21-.63-.45a.28.28,0,0,0-.28-.18,4.14,4.14,0,0,0-1.24.3,5,5,0,0,1-1.61.1l-.18,0a9.58,9.58,0,0,1-2.3-.67,3.4,3.4,0,0,0-.8-.15l-.47,0h0c-.12,0-.09,0-.08-.12l-1.52,2.14Z"/><polygon class="cls-3" points="179.04 207.51 175.18 212.91 183.15 213.63 187.01 208.23 179.04 207.51"/><path class="cls-3" d="M289.74,160.26l-.38.54,1.8.16A5,5,0,0,1,289.74,160.26Z"/><polygon class="cls-3" points="189.37 208.44 185.51 213.85 193.48 214.57 197.34 209.16 189.37 208.44"/><path class="cls-3" d="M255.76,214.44c-.2.31-.34.55-.4.67a3.92,3.92,0,0,0-.72,2.86c0,.72.1,1.46.18,2.14l.62.06,3.87-5.41Z"/><polygon class="cls-3" points="168.71 206.57 164.85 211.98 172.82 212.7 176.69 207.29 168.71 206.57"/><polygon class="cls-3" points="199.7 209.37 195.83 214.78 203.81 215.5 207.67 210.09 199.7 209.37"/><path class="cls-3" d="M300.15,157.58a1.16,1.16,0,0,0-.51-.16,5.31,5.31,0,0,0-1.69.43c-.91.26-.38,1-.61,1.41s-2.69,1.15-3.82,1.51a5.3,5.3,0,0,0-.79.33l4.6.42Z"/><path class="cls-3" d="M377.94,190.71a.65.65,0,0,0,.45.19c.66.06,1.88-.48,4-2.05,1.78-1.36,2.11-.83,3.57-1.66l-5.13-.47Z"/><polygon class="cls-3" points="338.5 180.85 342.36 175.44 334.39 174.72 330.52 180.13 338.5 180.85"/><path class="cls-3" d="M367.69,179.5a1.86,1.86,0,0,1,1.29-.32l.65.09,2.68.42,1-1.45-8-.72-2.82,3.94C364.43,180.71,367.18,179.74,367.69,179.5Z"/><path class="cls-3" d="M227.29,182a.37.37,0,0,0,.23.28l.14-.21A1.22,1.22,0,0,1,227.29,182Z"/><polygon class="cls-3" points="178.75 238.7 174.89 244.11 182.86 244.83 186.72 239.42 178.75 238.7"/><polygon class="cls-3" points="348.82 181.78 352.69 176.38 344.71 175.66 340.85 181.06 348.82 181.78"/><path class="cls-3" d="M391.85,180.87c-8.8,2.42-2.18,1.37-8.71,2.56l-1,1.37,6.15.55,1.22-1c.58-.47-4.21-.79,3.2-2.42l1.27-1.77-.2,0A6.72,6.72,0,0,1,391.85,180.87Z"/><polygon class="cls-3" points="317.84 178.98 321.7 173.57 313.73 172.85 309.87 178.26 317.84 178.98"/><path class="cls-3" d="M183.66,182.13c-.8-.18-1.51-.34-1.93-.41l-.17,0c-.25,0-.58,0-.94,0s-.74,0-1.11,0a5,5,0,0,1-.69-.1,19.35,19.35,0,0,0-2-.34c-.21,0-.08.26.07.48,0,0,0,.1-.05.16l6.65.6Z"/><polygon class="cls-3" points="328.17 179.92 332.03 174.51 324.06 173.79 320.2 179.19 328.17 179.92"/><path class="cls-3" d="M358.82,182.69l.42-.1,3.77-5.28-8-.72L351.18,182Z"/><path class="cls-3" d="M311,149.27c-.11.41-.47,1.49-.57,1.93s.59.14,1.05.47a1,1,0,0,1,.53,1c0,.42,0,.47-.67.43h-.09c-.64-.06-1-.33-2.75-.8-.95-.26-1.32-.47-1.71-.56l-1.87,2.62,8,.72,3.87-5.41L311,149.2Z"/><path class="cls-3" d="M262.3,218c.44-.66.77-.57,1.49-.68s1.11-.14,4.53-1.52l.44-.17-7.1-.64-3.86,5.4,2.09.19a5.75,5.75,0,0,0,1.28-1A11,11,0,0,0,262.3,218Z"/><path class="cls-3" d="M188.44,243.49a7.47,7.47,0,0,1,0-1.32c.06-.31.31-.24,1-.68a29.27,29.27,0,0,1,2.88-1.25,2.26,2.26,0,0,1,.75-.24l-4-.37L185.22,245l1.88.17.65-.72C188.19,244,188.43,244.08,188.44,243.49Z"/><path class="cls-3" d="M295.33,222.42a3.7,3.7,0,0,0,.82-2.12A6,6,0,0,0,295,218l-2.37-.21-3.86,5.41,4.59.41A5.51,5.51,0,0,0,295.33,222.42Z"/><path class="cls-3" d="M284.52,221.7a1.21,1.21,0,0,1,1.37-.55h0c.26,0-.63.42-.24.52a12.63,12.63,0,0,1,1.35.47l3.27-4.57-8-.73-1.25,1.75a5.69,5.69,0,0,0,1.67-.64,5.61,5.61,0,0,1,.72-.35c.07,0,0,.14,0,.42a11.76,11.76,0,0,1-.81,2.88,13.43,13.43,0,0,1-.81,1.66l1.13.1C283.59,222.2,284.15,222.36,284.52,221.7Z"/><path class="cls-3" d="M210.7,159.66a2.83,2.83,0,0,0-1.31.94c-.22.25-.41.49-.58.72l.66.06Z"/><path class="cls-3" d="M244,148c1.23-.48,1.68-.66,1.26-.7h-.59a3.93,3.93,0,0,1-.61,0h0l-.71,1C243.55,148.17,243.78,148.07,244,148Z"/><path class="cls-3" d="M328.19,198.8a.39.39,0,0,1,.16.1c.3.29-.09.33-.28.95-.06.2,0,.27.07.27a2,2,0,0,0,.51-.1,2.72,2.72,0,0,1,.84-.07l.13,0c1,.15,1.38.4,1.42.61s-.7.58-.77,1.13.72.21,1.13.71-.81.73-1.19.9c-.14.07-.13.12-.07.19l3,.27.67-.94c0-.47-.21-1-.26-1.43-.08-.76,0-.59,1.25-1.15a8.34,8.34,0,0,1,1.15-.42l1.05-1.47-8-.72Z"/><polygon class="cls-3" points="312.46 201.91 316.32 196.5 308.35 195.78 304.49 201.19 312.46 201.91"/><polygon class="cls-3" points="245.55 172.45 249.41 167.04 241.44 166.32 237.58 171.73 245.55 172.45"/><path class="cls-3" d="M220.53,165.38a6,6,0,0,1,2.08-.76l-1.83-.17L219.69,166A7.56,7.56,0,0,1,220.53,165.38Z"/><polygon class="cls-3" points="387.4 177.47 395.37 178.19 399.23 172.78 391.26 172.06 387.4 177.47"/><polygon class="cls-3" points="235.22 171.51 239.08 166.11 231.11 165.38 227.25 170.79 235.22 171.51"/><path class="cls-3" d="M228.76,165.17l-.45,0c0,.1.11.24.17.42Z"/><path class="cls-3" d="M322.79,202.84l.54-.76a4.82,4.82,0,0,1-.75,0,1.37,1.37,0,0,1-.28,0c-.64-.16-.79-1.24-.86-1.49s0-.41,1.27-.62a14.24,14.24,0,0,0,2.45-.41l1.49-2.09-8-.72-3.86,5.4Z"/><polygon class="cls-3" points="302.13 200.98 306 195.57 298.02 194.85 294.16 200.26 302.13 200.98"/><path class="cls-3" d="M246.24,205.78l-1.29,1.8a5.41,5.41,0,0,0,1.31.3l1.23.15A6.43,6.43,0,0,0,249,208a6.19,6.19,0,0,1,2.1-.18c.68,0,1.18-.06,1.42,0,.09,0,.14,0,.14.12,0,.26.07.28.05.48a2.73,2.73,0,0,1,0,.36l1.56-2.19Z"/><polygon class="cls-3" points="260.82 197.24 264.69 191.84 256.71 191.12 252.85 196.52 260.82 197.24"/><polygon class="cls-3" points="281.48 199.11 285.34 193.7 277.37 192.98 273.51 198.39 281.48 199.11"/><polygon class="cls-3" points="291.81 200.04 295.67 194.64 287.7 193.92 283.83 199.32 291.81 200.04"/><path class="cls-3" d="M248.4,191.15c-.82-.07-1.4.15-1.44.61s.51.31.07,1a7.18,7.18,0,0,0-.82,1.81c-.22.67.43,1.19-1.31,1a14.62,14.62,0,0,1-2.18-.33l-.2.28,8,.72,3.86-5.41-5.14-.46a1.28,1.28,0,0,0,0,.26C249.34,191.21,249.22,191.23,248.4,191.15Z"/><path class="cls-3" d="M220.35,211.24,219.1,213a4.74,4.74,0,0,1-.49,1.31,3.17,3.17,0,0,0-.44,1.2c0,.37-.22.37.32.5l.14,0a10.12,10.12,0,0,0,2.18-.36,20.6,20.6,0,0,1,2.87-.13c1,0,1-.1,1.35-.26a1.24,1.24,0,0,1,1-.28h.12l2.17-3Z"/><polygon class="cls-3" points="333.4 172.59 337.27 167.18 329.29 166.46 325.43 171.86 333.4 172.59"/><path class="cls-3" d="M228.92,214.64l.53-.08c.93-.13.36-.15,1.19-.4a5,5,0,0,1,1.46-.34c.84-.11,1.07.06,1.42-.07a12.17,12.17,0,0,1,1.16-.65,11.93,11.93,0,0,1,2.08-.37l-6.08-.55Z"/><polygon class="cls-3" points="323.08 171.65 326.94 166.24 318.97 165.52 315.11 170.93 323.08 171.65"/><polygon class="cls-3" points="158.39 205.64 154.52 211.05 162.5 211.77 166.36 206.36 158.39 205.64"/><polygon class="cls-3" points="335.76 172.8 343.73 173.52 347.59 168.11 339.62 167.39 335.76 172.8"/><polygon class="cls-3" points="255.88 173.38 259.74 167.97 251.77 167.25 247.9 172.66 255.88 173.38"/><polygon class="cls-3" points="266.2 174.31 270.06 168.91 262.09 168.19 258.23 173.59 266.2 174.31"/><polygon class="cls-3" points="364.39 175.39 368.25 169.98 360.28 169.26 356.42 174.66 364.39 175.39"/><polygon class="cls-3" points="354.06 174.45 357.92 169.04 349.95 168.32 346.09 173.73 354.06 174.45"/><path class="cls-3" d="M204,199.91l2-2.83c-.07,0-.07-.09,0-.26s-.18-.3-.59-.34l-.91,0a3.19,3.19,0,0,0-1.59.11c-.26.15-1.12.63-1.28.76s0,.37,0,.52-.4.37-.86.62a1,1,0,0,1-.52.17,3.72,3.72,0,0,1-.43-.09,2.3,2.3,0,0,1-1-.61,9.73,9.73,0,0,0-1.56-.47L196,199.18Z"/><polygon class="cls-3" points="276.53 175.25 280.39 169.84 272.42 169.12 268.56 174.53 276.53 175.25"/><path class="cls-3" d="M225.59,203.91l-3.86,5.41,8,.72,3.68-5.16a.62.62,0,0,0,0-.27Z"/><polygon class="cls-3" points="374.71 176.32 378.58 170.91 370.6 170.19 366.74 175.6 374.71 176.32"/><path class="cls-3" d="M408.05,179.33l4.53.41a1.22,1.22,0,0,1,0-.26c.1-.61-.9-1.45-.9-1.45a22.42,22.42,0,0,0,3.46-.21c1-.23,1.5-1.16,2.1-1.13l.6,0s-.74.69-.07.85l2.09-2.92-8-.72Z"/><path class="cls-3" d="M338.78,149.66l3.74-5.24a4.46,4.46,0,0,0-2.11.67c-1.11.7,1.56.82-2.92,1.1-1.92.12-3.47.13-4.8.11l-1.88,2.64Z"/><path class="cls-3" d="M349.11,150.59l2.41-3.37a7.69,7.69,0,0,0-1.77-.52c-.84-.18-1.39-.32-1.72-.35s-.41,0-.41.28c0,.49,1.19.72-.92.54s-2.71-.73-1.44-.89,1.8-.08-.08-.55a1.81,1.81,0,0,1-.83-.35l-3.21,4.49Z"/><polygon class="cls-3" points="178.9 223.1 175.03 228.51 183.01 229.23 186.87 223.82 178.9 223.1"/><path class="cls-3" d="M247.87,190.38a.28.28,0,0,1,.06-.06h-.08A.1.1,0,0,0,247.87,190.38Z"/><path class="cls-3" d="M170.68,222.36c-.37.41-.73.8-1,1.08-.48.62-.51.38-.43.78a2.11,2.11,0,0,0,.32.78c.19.36,0,.45.26.79s0,.19.28.5.54.16.47.6a5.61,5.61,0,0,1-.37,1.19l2.42.22,3.86-5.41Z"/><polygon class="cls-3" points="189.22 224.04 185.36 229.44 193.34 230.16 197.2 224.76 189.22 224.04"/><path class="cls-3" d="M204.47,229.25c.33-.2.59-.34.86-.48l2.19-3.08-8-.72-3.86,5.41,5.83.53a2.19,2.19,0,0,0,.58-.36C202.39,230.23,203.81,229.68,204.47,229.25Z"/><polygon class="cls-3" points="385.04 177.25 388.9 171.85 380.93 171.13 377.07 176.53 385.04 177.25"/><path class="cls-3" d="M328.46,148.72l1.77-2.48c-.69,0-1.33,0-2,0-1.91,0-5.31-.22-6.75.35l-.79,1.11c0,.12,0,.23,0,.35Z"/><path class="cls-3" d="M221.89,188.24c-.53,0-1.14-.06-1.54-.06s-.49,0-.71.1.47.23.68.29-.33.13-.61.17a6.54,6.54,0,0,1-1.59.19,15.53,15.53,0,0,0-1.58,0,2.41,2.41,0,0,0-1.39.48c-.42.29-.43.38-.24.4a3.28,3.28,0,0,0,.5,0l.33,0c.08,0-.07.07-.24.19a2.82,2.82,0,0,0-.82,1.37c-.19.66-.28.65.07,1.12a2,2,0,0,0,.81.75l2.33.21.12-.12c.11-.12.17-.17.29-.16a2.19,2.19,0,0,1,.34.09,4.67,4.67,0,0,1,.89.32l3.85-5.39-.23,0-.15.09C222.68,188.36,222.42,188.27,221.89,188.24Z"/><path class="cls-3" d="M173.29,186.16c-1,.87-.67,1-.42,1H173c.23,0-.14.19-.72.76a6.93,6.93,0,0,1-1.08,1c-.05,0-.06,0,0,0a15.43,15.43,0,0,1,2.12,0c.49,0,.85,0,1.1.07.55,0,.54.13.13.51l1.89.17a2,2,0,0,1,.5,0l.42.06.42.05a4.1,4.1,0,0,0,.49,0l3.83-5.36-6.78-.62a3.85,3.85,0,0,0-.35.6C174.68,185,174.41,185.14,173.29,186.16Z"/><path class="cls-3" d="M374.43,180.23c.79-.12.78-.41,1.4-.35a3.84,3.84,0,0,1,.65.12c1.35.34,3,.61,2.19.7s-1.51.18-.39.34c.5.08,1.25.17,1.91.23s1.48.08,1.35-.08-1-.22,1-1.15c.27-.13.53-.24.79-.34l.37-.52-8-.72Z"/><path class="cls-3" d="M240.17,195.37l.6-.83c-.12-.14-.24-.25-.76-.35-1-.17.94-.91,1.48-1.84s1.53-1.2,2.06-1.71L244,190l-8-.72-3.86,5.4Z"/><path class="cls-3" d="M237.52,205a1,1,0,0,0,.56.32,4.37,4.37,0,0,0,1,.23l.89.05.76,0c.68.06.9.16.94.38s-.38.59.51.76c.32.07.54.1.72.13l.95-1.34Z"/><path class="cls-3" d="M221.87,193.72l.33,0a.86.86,0,0,1,.62-.21,1,1,0,0,1,.25.06c.19.06.2.18.39.2h.14a4.6,4.6,0,0,1,.74,0c.15,0,.2.06,0,.19h0l5.49.5,3.66-5.13a5.22,5.22,0,0,1-.76.08,9.84,9.84,0,0,1-1.36,0l-.34,0c-.43,0-.57,0-.65,0a2.32,2.32,0,0,1-.48-.15c-.65-.23-1.21-.38-1.49-.5a.14.14,0,0,1-.1-.08l-2.59-.24Z"/><path class="cls-3" d="M181.75,188.91c1.3-.46,1.26-.82,1.77-1.22s-1,.09.89-1.05a13,13,0,0,1,3.49-1.75l-3.48-.31-3.21,4.49Z"/><path class="cls-3" d="M200.9,186.19c.57.16.94.24,1.12.55l.16.25.54-.76-2.09-.19A.43.43,0,0,0,200.9,186.19Z"/><path class="cls-3" d="M216.19,188.38c0,.13-.24.38-.1.39h.1c.31-.09.52-.24,1.18-.49a2.26,2.26,0,0,1,1.08-.24,2.19,2.19,0,0,1,.31.05l.51.1c.09,0,.15,0,.33-.13s.09-.11-.09-.3l-4.11-.37L215,188C215.54,188.14,216.2,188.25,216.19,188.38Z"/><path class="cls-3" d="M208,188.28a1.51,1.51,0,0,1,.19,1.11c-.06.51-.24.53.2.83s.15.31-.35.75-.29.82-.38,1,0,.08,0,.08h.24a.28.28,0,0,1,.27.2.42.42,0,0,0,.13.23l.59.05a2,2,0,0,1,.34-.37l.51-.44.94-1.32c-.23-.1-.43-.18,0-.68.77-.82.22-.94.42-1.3s.15-.53,1.09-.74l.48-.09.32-.44-4.22-.38a5.07,5.07,0,0,1-.64.68C207.72,187.91,207.75,187.78,208,188.28Z"/><polygon class="cls-3" points="271.15 198.18 275.01 192.77 267.04 192.05 263.18 197.46 271.15 198.18"/><path class="cls-3" d="M176.72,250.76c1.23-.68,1.7-.95,2.79-1.52l.31-.15,1.67-2.34-8-.72-3.87,5.41,4.43.4.34-.1A8,8,0,0,0,176.72,250.76Z"/><path class="cls-3" d="M163.19,245.1l-1.54,2.15a2.52,2.52,0,0,1,.13,1.28,3.5,3.5,0,0,0,0,1.14c.07.4.13.44-.2,1l5.76.52,3.86-5.41Z"/><path class="cls-3" d="M211.5,164.38c.6-.28,1-.49,1.3-.65l-2.34-.21L209.41,165A7.58,7.58,0,0,0,211.5,164.38Z"/><path class="cls-3" d="M213.79,165.48c.16.71.26,1.18.4,1.75S213,168.76,214,169l.22,0a1.62,1.62,0,0,0,.9-.18l3.29-4.6-4.18-.38C214.49,164.25,213.64,164.81,213.79,165.48Z"/><path class="cls-3" d="M418.24,172.45a6.8,6.8,0,0,0-3.91-1.9l-1,1.45Z"/><polygon class="cls-3" points="184.13 215.77 180.27 221.18 188.24 221.9 192.1 216.49 184.13 215.77"/><polygon class="cls-3" points="194.46 216.71 190.6 222.11 198.57 222.83 202.43 217.43 194.46 216.71"/><path class="cls-3" d="M353,149.33c.11-.4.11-.58,0-.73l-1.18,1.65C352.67,150,352.86,149.93,353,149.33Z"/><path class="cls-3" d="M395.57,181.41h.28s-.63.67-.31.7h.11a5.09,5.09,0,0,1,2.06-.38,4,4,0,0,1,.76.14,15.5,15.5,0,0,0,1.57.45,1.47,1.47,0,0,0,.62-.11c.49-.16,1.85-.47,3.38-.76l.28-.4-8-.73Z"/><path class="cls-3" d="M345.47,144.86c.34,0,0-.16-.56-.26l-.35.48A4.43,4.43,0,0,1,345.47,144.86Z"/><path class="cls-3" d="M303.35,153.09h-.08l-.32,0c-.58-.06-.65-.57.2-1.36a2.89,2.89,0,0,0,1-1.47,5,5,0,0,1-1.69,1.16c-1.27.62-1.37,1.46-1.79,2.26a2.17,2.17,0,0,1-.22.34l2.15.2Z"/><polygon class="cls-3" points="204.79 217.64 200.93 223.05 208.9 223.77 212.76 218.36 204.79 217.64"/><path class="cls-3" d="M173.8,214.84l-3.06,4.28h.3c.31,0,.56,0,.74,0a.63.63,0,0,1,.23,0c.26.09.25.53.45.85s.16.26,0,.43l5.43.49,3.86-5.41Z"/><polygon class="cls-3" points="323.22 156.05 327.08 150.65 319.11 149.93 315.25 155.33 323.22 156.05"/><polygon class="cls-3" points="333.55 156.99 337.41 151.58 329.44 150.86 325.58 156.27 333.55 156.99"/><path class="cls-3" d="M354.58,192.63l.1-.07a5.05,5.05,0,0,0,.5-.35l-.28,0Z"/><path class="cls-3" d="M187.07,181.06c-.47.77-.72,1.19-1.1,1.35l-.17.24,5.46.5a4.62,4.62,0,0,1,.58-.24,3.16,3.16,0,0,1,1.14-.22,1.8,1.8,0,0,1,.86.37l.1.07,3.69-5.16-8-.72-1.33,1.85C188.21,179.46,187.68,180,187.07,181.06Z"/><path class="cls-3" d="M198.6,182.12c.82.08,1,.44,1,.91,0,.31-.17.56-.22.85l3.94.36V184c0-.66.32-.55-.3-1s-.54-.26-.12-.68a1.14,1.14,0,0,0,.43-.8c0-.16.12-.24,1.08-.37a4.07,4.07,0,0,1,.62-.07c.15,0,.11.12.46.41a1,1,0,0,1,.3.39l2.15-3-8-.72-3,4.19A4.23,4.23,0,0,1,198.6,182.12Z"/><path class="cls-3" d="M354.2,158.86l1.92-2.69-.79-.07c-1.33-.12-2.51-.4-1-.87s1.93-.43-1.07-.69a23.12,23.12,0,0,1-2.87-.36,4.45,4.45,0,0,1-1.14-.26l-3,4.21Z"/><path class="cls-3" d="M377.39,161l7.8.71.05-.08-.09,0c-1.31-.4-.45-.33-2.79-1a18.38,18.38,0,0,0-2.7-.75,2.52,2.52,0,0,0-1.2.22c-.39.15-.65.25-.81.33l-.29.4C377.37,160.79,377.38,160.86,377.39,161Z"/><path class="cls-3" d="M409.14,169.49c-.6-.05-.38.13-.38.9s.11.81-1.27.78l-.2,0c-1.16-.1-.89-.81-1.42-1.23-.25-.21-.23-.25-.4-.27l-.5,0c-.21,0-.52,0-.94,0L403,171.07l8,.72,1.22-1.71c-1.44-.31-2.32-.51-2.87-.58Z"/><path class="cls-3" d="M364.53,159.79l2-2.82-.07-.1c-.28-.43.49-.8-1.08-.94s-2.11-.09-3.61-.18-.87.61-2.19.63c-.35,0-.72,0-1.09,0l-1.94,2.71Z"/><polygon class="cls-3" points="397.73 178.4 405.7 179.12 409.56 173.71 401.59 172.99 397.73 178.4"/><path class="cls-3" d="M343.88,157.92l3.18-4.46a44.83,44.83,0,0,0-4.72.25c-1.49.11-2.29.2-2.47.18s.15-.1.87-.32c1.36-.42,1.41-.85,3.14-1.4l-4.11-.38-3.87,5.41Z"/><path class="cls-3" d="M218.5,223c.51-.34,2.13-1.18,3.18-1.76l1.41-2-8-.72L211.25,224l4.58.41a4.45,4.45,0,0,0,.46-.18A15.53,15.53,0,0,0,218.5,223Z"/><path class="cls-3" d="M292.78,160l.44-.08a5.53,5.53,0,0,0,2.81-1.28c.91-.68.14-1.23-.17-1.66s-.19-.52.44-1.29l-3.08-.28L289.9,160A17.2,17.2,0,0,0,292.78,160Z"/><path class="cls-3" d="M340.71,196.66l5.07.46c1.42-.53,3.22-1.27,4.4-1.84l2.36-3.31-8-.72Z"/><path class="cls-3" d="M400.61,170.86l1.14-1.6c-.34-.12-.3-.21-.55-.23a3.55,3.55,0,0,0-.55,0,7.62,7.62,0,0,1-1.06,0,12.73,12.73,0,0,1-2-.48c-1.28-.33-.4-.61-.09-1s1.28-.89-.75-1.48c-.38-.11-.67-.21-.93-.3l-3.14,4.39Z"/><polygon class="cls-3" points="183.99 231.37 180.13 236.78 188.1 237.5 191.96 232.09 183.99 231.37"/><polygon class="cls-3" points="307.66 162.45 311.52 157.04 303.55 156.32 299.69 161.73 307.66 162.45"/><path class="cls-3" d="M282.83,154.55c.15.13.38.32.64.56s-.75.57-1.57.74l-2.87,4,8,.72,2.82-3.94a4.51,4.51,0,0,0-.8-.83c-.36-.28-.81-.61-1.3-.92l-4.83-.43Z"/><path class="cls-3" d="M299.16,156.58h.3a4.8,4.8,0,0,1,1.22.23l.51-.72-2.58-.23-.21.26C298.17,156.47,298.58,156.53,299.16,156.58Z"/><path class="cls-3" d="M199,176l3.72-5.2a2.73,2.73,0,0,0-1.16.12c-.88.21-.8.42-1.31,1s-1,1-.92,1.09.2.28-1.18.23a4.79,4.79,0,0,0-2.57.31c-.33.26.31.67-.54.91s-1.8.13-1.95.49-.13.5-1.43.39a3.7,3.7,0,0,1-.59-.09l0,0Z"/><polygon class="cls-3" points="317.99 163.39 321.85 157.98 313.88 157.26 310.01 162.66 317.99 163.39"/><path class="cls-3" d="M382.31,169.2l8,.72,3.41-4.77h-.1c-.25,0-.55,0-.9,0-1.5,0-2.16.15-2.66.1a1.22,1.22,0,0,1-.67-.26c-.35-.24-.32-.54-.36-.88l-2.83-.26Z"/><polygon class="cls-3" points="351.32 166.4 359.3 167.12 363.16 161.71 355.19 160.99 351.32 166.4"/><polygon class="cls-3" points="369.62 168.05 373.49 162.65 365.51 161.93 361.65 167.33 369.62 168.05"/><path class="cls-3" d="M169.54,230.06a7,7,0,0,0-.42,1.32,1.51,1.51,0,0,1-.38,1.07,3.31,3.31,0,0,1-1,1.06,17.15,17.15,0,0,1-1.92,1.16c-.58.32-.41.39-.69.75l2.29.21,3.87-5.41Z"/><polygon class="cls-3" points="173.66 230.44 169.8 235.84 177.77 236.56 181.63 231.16 173.66 230.44"/><path class="cls-3" d="M325.74,202.23l-.2.28C325.76,202.39,325.84,202.3,325.74,202.23Z"/><polygon class="cls-3" points="286.86 176.18 290.72 170.77 282.75 170.05 278.89 175.46 286.86 176.18"/><path class="cls-3" d="M230.36,151l-3,4.15,8,.73,3.86-5.41-6.15-.56A22,22,0,0,0,230.36,151Z"/><path class="cls-3" d="M420.15,178.41c-.09.74.66.65,1.26.88S423,180,423,180s0-.35.57-.63a4,4,0,0,0,1.12-.93,5.4,5.4,0,0,0,1.49.31l.56,0c1.29,0,1.26-.09,1.26-.09a10,10,0,0,0-2.15-1.52c-1.27-.66-1.06-.45-2.56-1.2a3,3,0,0,0-.74-.32s-.06-.14-.47-.52L420,178A.43.43,0,0,1,420.15,178.41Z"/><path class="cls-3" d="M207.06,164.75l1-1.45-.56-.05,0,.05C207.06,163.94,206.57,164.44,207.06,164.75Z"/><path class="cls-3" d="M209.14,226.94l1.45-.66.52-.26-1.23-.11Z"/><path class="cls-3" d="M187.69,190.48c-.46-.19-.35-.25-.58-.27h-.33a17.32,17.32,0,0,0-2.15.15l3.45.32Z"/><path class="cls-3" d="M199,237.67l1.33-1.87c.48-.74.72-1.07.52-1.64s-.27-.08-.18-.78a1.11,1.11,0,0,1,.2-.49l-6.52-.59-3.87,5.41,7.67.69a5.77,5.77,0,0,0,.63-.52A2.13,2.13,0,0,0,199,237.67Z"/><path class="cls-3" d="M199.32,190.23c-1.35,0-2.12,0-1.76.23s.79.19,1.21.52a.59.59,0,0,1,.23.47l.87-1.23Z"/><path class="cls-3" d="M204.09,189.29c.26-.32,0-.7.57-1.12.33-.24.55-.44.76-.42s.31.14.51.43.21.27.27.27.17-.54.15-.72-.54-.61-1-1a2.94,2.94,0,0,1-.29-.23l-2.4,3.36.4-.22C203.48,189.45,203.82,189.61,204.09,189.29Z"/><polygon class="cls-3" points="245.69 156.85 249.56 151.44 241.58 150.72 237.72 156.13 245.69 156.85"/><polygon class="cls-3" points="240.31 179.78 244.18 174.37 236.2 173.65 232.34 179.06 240.31 179.78"/><polygon class="cls-3" points="229.99 178.84 233.85 173.44 225.88 172.72 222.01 178.12 229.99 178.84"/><path class="cls-3" d="M226.53,152.89a13.27,13.27,0,0,0-1.84,1.08c-.38.27-.82.57-1.28.87L225,155Z"/><path class="cls-3" d="M248.36,156.63l-.31.43.36,0A.83.83,0,0,0,248.36,156.63Z"/><path class="cls-3" d="M297.71,153.75a3.07,3.07,0,0,0,.11-.32,2.29,2.29,0,0,1,1.24-1.85l.13-.09a10.05,10.05,0,0,0,2.31-2.07l-.74-.13c-.72-.13-1.8-.31-2.46-.36a1.55,1.55,0,0,0-.48,0l-3.23,4.52Z"/><path class="cls-3" d="M282.2,225.85a6.24,6.24,0,0,1,.25-1.19l-2.46-.22c-.21.24-.27.42-.12.65.32.47,1.67,1.32,1.53,1.93s-.7,1.8-.58,2.3a1.64,1.64,0,0,0,.52.77l2-2.8-.21-.21C282.28,226.23,282.18,226.69,282.2,225.85Z"/><polygon class="cls-3" points="219.66 177.91 223.52 172.5 215.55 171.78 211.69 177.19 219.66 177.91"/><polygon class="cls-3" points="281.62 183.51 285.49 178.11 277.51 177.38 273.65 182.79 281.62 183.51"/><polygon class="cls-3" points="291.95 184.45 295.81 179.04 287.84 178.32 283.98 183.73 291.95 184.45"/><polygon class="cls-3" points="260.97 181.65 264.83 176.24 256.86 175.52 253 180.93 260.97 181.65"/><polygon class="cls-3" points="271.3 182.58 275.16 177.17 267.19 176.45 263.32 181.86 271.3 182.58"/><polygon class="cls-3" points="250.64 180.71 254.5 175.31 246.53 174.58 242.67 179.99 250.64 180.71"/><polygon class="cls-3" points="328.31 164.32 332.18 158.91 324.2 158.19 320.34 163.6 328.31 164.32"/><polygon class="cls-3" points="348.97 166.19 352.83 160.78 344.86 160.06 341 165.47 348.97 166.19"/><path class="cls-3" d="M161.38,252.74c.15.29.12.42.52.46a4.23,4.23,0,0,0,.51,0c1,0,1.7-.06,3.51,0h0Z"/><path class="cls-3" d="M148.4,212.54a2.17,2.17,0,0,0,.08.3c.18.55-.12,1,.32,1.59a6.79,6.79,0,0,1,.37.6l1.62-2.27Z"/><path class="cls-3" d="M163.48,213.9l-2.64,3.7a17.23,17.23,0,0,1,4.86-.53c.9,0,1.45.05,1.81.08s.54.08.6.16a12.1,12.1,0,0,1,.61,1.1v0l2.72-3.8Z"/><path class="cls-3" d="M153.15,213l-2.36,3.31a7.42,7.42,0,0,1,1.31,1,1.42,1.42,0,0,0,.86.38,3.75,3.75,0,0,0,.89-.06,11.27,11.27,0,0,1,2.91-.33c.25,0,.51.07.78.13l.82.2,2.76-3.87Z"/><path class="cls-3" d="M266.35,158.72l2.21-3.09c-1.16.3-2.28.61-3,.74a9.46,9.46,0,0,1-2.75.49h-.11c-.6-.05-.89-.43-.87-.78s.34-.67,1-.62l.11,0,.28,0c1,.08.29-.44.17-.88a.25.25,0,0,0-.25-.16,7,7,0,0,0-2.07.62c-.69.25-.22.51.13,1.19s-.38,1.09-1,1.46a1.32,1.32,0,0,1-.76.1c-.19,0-.4-.05-.64-.08l-.2,0-.19.27Z"/><path class="cls-3" d="M276.68,159.65l3.13-4.38c-1.55,0-2.22.24-3.93.31a7,7,0,0,1-.95,0c-.74-.06-.69-.29-1.05-.45a1.85,1.85,0,0,0-.73-.22,8.21,8.21,0,0,0-1.63.09l-2.82,3.94Z"/><path class="cls-3" d="M250.36,156.22c1.34.45,1.43.85,2.56.95a11.67,11.67,0,0,0,1.56,0c1.6-.11,2.19-.45,2.61-.88l1.15-1.61c-.39-.19-1.41-.24-2.13-.57-1.15-.52-1.34-1.49-3.1-1.81-.61-.12-1-.2-1.35-.28L249,155.73C249.39,155.88,249.85,156.05,250.36,156.22Z"/><polygon class="cls-3" points="302.28 185.38 306.14 179.97 298.17 179.25 294.31 184.66 302.28 185.38"/><path class="cls-3" d="M255.9,223l.09,0a8.21,8.21,0,0,0,1.58-.6l-1.15-.1Z"/><polygon class="cls-3" points="338.64 165.25 342.5 159.85 334.53 159.13 330.67 164.53 338.64 165.25"/><polygon class="cls-3" points="209.33 176.98 213.19 171.57 205.22 170.85 201.36 176.26 209.33 176.98"/><polygon class="cls-3" points="266.06 189.91 269.92 184.5 261.95 183.78 258.09 189.19 266.06 189.91"/><polygon class="cls-3" points="276.39 190.84 280.25 185.44 272.28 184.72 268.42 190.12 276.39 190.84"/><path class="cls-3" d="M249,149.35c.88-.24.65-.32-.41-.84a3.16,3.16,0,0,0-2-.61l-.13,0a7.89,7.89,0,0,0-3.52.84l0,.08Z"/><path class="cls-3" d="M240.85,148.24c-.29.08-.67.16-1.2.26l.95.08Z"/><path class="cls-3" d="M251,183.83a1.42,1.42,0,0,0,.43,0,2.36,2.36,0,0,1,.82-.09.49.49,0,0,1,.22.05c.15.65.39.67-.11,1.12s-.44.63,0,.78l.18,0a4.77,4.77,0,0,0,.65,0c.22,0,.42,0,.5,0s0,.06-.43.21a9.17,9.17,0,0,1-1,.3s0,0,0,0,.21,0-.22-.11-1.51-.29-2.4-.41l-.55.77s0,.07-.06.08L247.91,188a.91.91,0,0,0,.1.24l7.72.7,3.86-5.41-8-.72-.69,1Z"/><polygon class="cls-3" points="286.71 191.78 290.58 186.37 282.6 185.65 278.74 191.06 286.71 191.78"/><path class="cls-3" d="M207.28,184.28a4.5,4.5,0,0,1,.53.36l6.61.6,3.86-5.4-8-.73-3.52,4.94A2.61,2.61,0,0,1,207.28,184.28Z"/><path class="cls-3" d="M243,187.83c.33-1,.45-.77.27-1.13a5.9,5.9,0,0,0-.51-.83,5.21,5.21,0,0,0,2.33-.81c.61-.62.8-.07,1.82-.8a3.22,3.22,0,0,1,1.62-.6l.74-1-8-.72-3.86,5.4Z"/><polygon class="cls-3" points="297.04 192.71 300.9 187.31 292.93 186.58 289.07 191.99 297.04 192.71"/><path class="cls-3" d="M293.29,151.79a5.91,5.91,0,0,0-1.24.67c-.54.42-.33.54-.18.76l.37,0Z"/><path class="cls-3" d="M219.89,185.74c.13-.06.29-.1.54-.21.43-.19.62-.19.87-.49a8.8,8.8,0,0,1,.66-.62c.21-.23,0-.34.48-.42s.39,0,.75-.18a1.47,1.47,0,0,0,.66-.48,2.79,2.79,0,0,1,.63-.72c.22-.13.26-.09.59-.29a2.43,2.43,0,0,1,.83-.36c.44-.12.33-.25.85-.26h.46l.54.08h.12l.74-1-8-.72-3.86,5.4Z"/><path class="cls-3" d="M229.49,184.52a6.84,6.84,0,0,1,1.3-.33c.32,0,.67-.18.92-.2s-.2-.11-.37-.16.13,0-.4-.34-.44-.5-.4-.7,0,0,.94-.34.42-.35,1.71-.45a22.9,22.9,0,0,1,3-.16h.09c.6,0,.56.13.38.28a1.45,1.45,0,0,1-1,.37c-.64,0-1.16-.06-1.11.12s1.1.57.42.66-.73.08-1,.31-.15.35-.93.4-1.05,0-1.14.27.57.6.93.81a5.16,5.16,0,0,1,1.06.61c.26.29.64,1,.89,1.17a3.72,3.72,0,0,0,.33.27h.05l3.86-5.41-8-.72-2.65,3.7A4.78,4.78,0,0,0,229.49,184.52Z"/><polygon class="cls-3" points="343.59 189.12 347.45 183.71 339.48 182.99 335.62 188.39 343.59 189.12"/><polygon class="cls-3" points="333.26 188.18 337.12 182.78 329.15 182.05 325.29 187.46 333.26 188.18"/><polygon class="cls-3" points="297.19 177.12 301.05 171.71 293.08 170.99 289.21 176.39 297.19 177.12"/><polygon class="cls-3" points="307.37 193.65 311.23 188.24 303.26 187.52 299.4 192.93 307.37 193.65"/><polygon class="cls-3" points="312.61 186.31 316.47 180.91 308.5 180.19 304.63 185.59 312.61 186.31"/><polygon class="cls-3" points="307.51 178.05 311.38 172.64 303.4 171.92 299.54 177.33 307.51 178.05"/><polygon class="cls-3" points="322.93 187.25 326.8 181.84 318.82 181.12 314.96 186.53 322.93 187.25"/><path class="cls-3" d="M353.92,190.05l3-4.18c-.59-.14-.74-.4-.53-.9a.76.76,0,0,0,.11-.44l-6.67-.61-3.87,5.41Z"/><polygon class="cls-3" points="317.7 194.58 321.56 189.17 313.59 188.45 309.73 193.86 317.7 194.58"/><polygon class="cls-3" points="328.02 195.51 331.89 190.11 323.91 189.38 320.05 194.79 328.02 195.51"/><path class="cls-3" d="M357.18,190.34c.46-.45.92-.91,1.38-1.3,1.29-1.1,2-1.58,2.21-2.29s-.26-1.11-.82-1.64l-3.68,5.15Z"/><polygon class="cls-3" points="338.35 196.45 342.21 191.04 334.24 190.32 330.38 195.73 338.35 196.45"/><polygon class="cls-3" points="379.95 168.99 383.81 163.58 375.84 162.86 371.98 168.27 379.95 168.99"/><polygon class="cls-3" points="263.47 166.26 271.44 166.98 275.3 161.57 267.33 160.85 263.47 166.26"/><path class="cls-3" d="M223.36,162.64c0-.27.42-.57,1.25-1.41,1.29-1.3,1.61-1.14,3.11-1.57s3.3-.71,3.52-1.28c.13-.32-.09-.52-.05-.79l-5.17-.47-3.86,5.41Z"/><polygon class="cls-3" points="281.77 167.92 285.63 162.51 277.66 161.79 273.8 167.19 281.77 167.92"/><path class="cls-3" d="M219.73,156.86a30.81,30.81,0,0,0-3.57,1.31,7.3,7.3,0,0,1-2.44.78l-1.89,2.64,8,.72,3.86-5.4-3.31-.3A5,5,0,0,1,219.73,156.86Z"/><polygon class="cls-3" points="261.11 166.05 264.97 160.64 257 159.92 253.14 165.33 261.11 166.05"/><path class="cls-3" d="M162.62,238.06c-.14.23.1,0,.06.59a3.54,3.54,0,0,0,.1,1.22,3.93,3.93,0,0,1,.09,1.13,6.65,6.65,0,0,1-.08,1.14l3.28-4.59-2.73-.24A7.54,7.54,0,0,0,162.62,238.06Z"/><path class="cls-3" d="M320.91,204.72l-7.47-.67-3.86,5.41,8,.72,3.59-5c-.08-.15-.15-.28-.21-.41Z"/><path class="cls-3" d="M233,159.23h0c-1.7.6-3.84,1-3.7,1.74s-.43,1-.92,1.65a.91.91,0,0,0-.2.44l2,.18Z"/><path class="cls-3" d="M308.21,211.38l-2.9,4.06h.39a18.17,18.17,0,0,0,5.31-.9c2.94-.83,3-.91,4.32-1.75l.65-.4.2-.28Z"/><polygon class="cls-3" points="292.1 168.85 295.96 163.44 287.98 162.72 284.12 168.13 292.1 168.85"/><polygon class="cls-3" points="302.42 169.78 306.28 164.38 298.31 163.66 294.45 169.06 302.42 169.78"/><path class="cls-3" d="M329.08,206.13a4.92,4.92,0,0,0,2.19-.37.6.6,0,0,0,.15-.09l-2.16-.19c-.19.25-.35.46-.42.54S328.9,206.11,329.08,206.13Z"/><path class="cls-3" d="M226.78,167.93l-.06,0c-1-.24-.08-.83-.71-.88h-.26c-1.11.08-1,.18-1.41.66s-.25.2-.82.79,0,.51-.56,1.3a1.09,1.09,0,0,1-.7.56l2.63.24Z"/><polygon class="cls-3" points="245.26 203.64 249.12 198.23 241.15 197.51 237.29 202.92 245.26 203.64"/><path class="cls-3" d="M209.58,167.94c.71-.74,1.46-.68,2.33-1.69.58-.68,1-.94.57-1a8.27,8.27,0,0,0-1.21.07c-1.94.19-2,.18-3,2.05a8.64,8.64,0,0,0-.71,1.61l1.28.12A2.58,2.58,0,0,1,209.58,167.94Z"/><polygon class="cls-3" points="240.46 164.18 244.32 158.77 236.35 158.05 232.49 163.46 240.46 164.18"/><path class="cls-3" d="M232.78,202.51a.47.47,0,0,1,.21-.17c.48-.22,1-.51,1.22-.55s-.29-.13.81,0l.56,0,3.21-4.5-8-.72L227,202Z"/><polygon class="cls-3" points="307.23 209.24 311.09 203.84 303.12 203.12 299.25 208.52 307.23 209.24"/><path class="cls-3" d="M159.51,197.94c-.72.41-1.52.94-1.91,1.16-.6.33-1.25.69-2.46,1.43s-2.22,1.22-2.66,1.45-.78.22-.89.69a2.75,2.75,0,0,1-.08.3l5.89.53,3.87-5.41Z"/><path class="cls-3" d="M220.43,197.81a11.79,11.79,0,0,1-2.12,1.28,4.21,4.21,0,0,1-.39.17l-1.29,1.79.65.06a1.22,1.22,0,0,1,.4-.17s0,0,0,.09a.42.42,0,0,1,0,.12l6.93.62,3.86-5.4-5.63-.51h0C222.34,196.33,221,197.34,220.43,197.81Z"/><path class="cls-3" d="M188.56,190.66l-.05,0h0Z"/><polygon class="cls-3" points="265.92 205.51 269.78 200.1 261.81 199.38 257.94 204.79 265.92 205.51"/><path class="cls-3" d="M288.26,225.33a1.29,1.29,0,0,0,.39-.11l-.34,0C288.23,225.28,288.22,225.33,288.26,225.33Z"/><path class="cls-3" d="M194.58,191.25c.2-.11.33-.16.43-.21s.18-.1-.27-.28a9.2,9.2,0,0,0-1.1-.39c-.08,0-.64.18-1,.26a2.75,2.75,0,0,1-.83.05,4.84,4.84,0,0,1-.64-.1l-.24.34Z"/><polygon class="cls-3" points="255.59 204.57 259.45 199.17 251.48 198.45 247.62 203.85 255.59 204.57"/><polygon class="cls-3" points="194.6 201.11 190.74 206.52 198.72 207.24 202.58 201.83 194.6 201.11"/><polygon class="cls-3" points="312.75 170.72 316.61 165.31 308.64 164.59 304.78 170 312.75 170.72"/><path class="cls-3" d="M215.27,208.35c.16-.59.13-.4-.16-.8s-.44-.52-.25-1.39A2.31,2.31,0,0,0,215,205c0-.33-.07-.94-.1-1.5l-3.51,4.91,3.72.34A2.87,2.87,0,0,0,215.27,208.35Z"/><path class="cls-3" d="M223.23,203.7l-5.53-.5c0,.12,0,.26.05.42.07.95.06,1,.13,1.64a3.34,3.34,0,0,0,.57,1.28c.16.31,0,.79-.12,1.3a7.81,7.81,0,0,1-.55,1.12l1.59.14Z"/><path class="cls-3" d="M171.28,192.37c-.67.15-2,.48-2.79.64s-.8.51-1.37,1.07-1.55,1.65-1.91,2l-.21.3,8,.72,3.86-5.4-3.77-.34-.24.17A3.7,3.7,0,0,1,171.28,192.37Z"/><polygon class="cls-3" points="184.28 200.18 180.41 205.58 188.39 206.3 192.25 200.9 184.28 200.18"/><path class="cls-3" d="M256.57,206.71l-2.49,3.48a1.08,1.08,0,0,0,.25,0h.13c.68,0,1.26,0,1.26,0s0,.2-.59.32a8.13,8.13,0,0,1-1.41.11l-.21.29a5.78,5.78,0,0,0,.37.56,1.07,1.07,0,0,0,.92.58l.52,0a1.74,1.74,0,0,0,.92-.18,6.33,6.33,0,0,0,.54-.36,6.21,6.21,0,0,1,1.36-.59s0,0,0,0-.55.73-1.07,1.46l3.61.33,3.86-5.41Z"/><polygon class="cls-3" points="287.55 209.51 283.69 214.92 291.66 215.64 295.52 210.23 287.55 209.51"/><path class="cls-3" d="M300.61,215.21a2.2,2.2,0,0,1,.75.19c.25.11.15.35-.17.65s-.07.4.11.42a.3.3,0,0,0,.23-.08c.21-.2.22-.55,1-.67l.13,0,3.24-4.53-8-.72-3.86,5.4,2.66.24a19.57,19.57,0,0,0,2.22-.59A4,4,0,0,1,300.61,215.21Z"/><polygon class="cls-3" points="204.93 202.04 201.07 207.45 209.04 208.17 212.9 202.76 204.93 202.04"/><polygon class="cls-3" points="266.9 207.65 263.04 213.05 271.01 213.77 274.87 208.37 266.9 207.65"/><polygon class="cls-3" points="286.57 207.38 290.43 201.97 282.46 201.25 278.6 206.65 286.57 207.38"/><path class="cls-3" d="M193.62,199l2.18-3.05-.37-.13a11.72,11.72,0,0,1-2-.63,8.87,8.87,0,0,1-1.32-.74c-.68-.42-.74-.48-.15-.74.39-.17.83-.34,1.17-.51l-3.63-.33-3.86,5.41Z"/><polygon class="cls-3" points="296.9 208.31 300.76 202.9 292.79 202.18 288.93 207.59 296.9 208.31"/><path class="cls-3" d="M250.78,165.11l3.87-5.4-1.58-.14a3.14,3.14,0,0,1-.44,0l-.2,0a4.59,4.59,0,0,1-.67-.1l-1.53-.14c-.5.17-.64.5-.27.69s.38.54.46.73-.84.22-1.41.25a4.21,4.21,0,0,1-.52.05,3.91,3.91,0,0,1-1.18-.5c-1.05-.56-.79-.83-.18-1.5l-.46,0-3.86,5.4Z"/><polygon class="cls-3" points="163.62 198.31 159.76 203.72 167.73 204.44 171.59 199.03 163.62 198.31"/><path class="cls-3" d="M277.22,208.58l-3.82,5.36.24-.13c.46-.29-.12-.67.89-.64a16,16,0,0,0,4.27-.19,5.32,5.32,0,0,1,1.19-.31c.19,0,.23.17.17.59a1.75,1.75,0,0,0,.37,1.37l.8.08,3.87-5.41Z"/><path class="cls-3" d="M240.91,208c-.53-.24-.7-.1-.68-.54s.74-1,.49-1.12h0c-.25,0-.65.51-1.19.63a10.13,10.13,0,0,1-2.42.72,11.16,11.16,0,0,1-1.86,0l-.55,0-.42,0a.83.83,0,0,1-.25,0l-1.94,2.71,8,.72,1.79-2.5C241.49,208.31,241.33,208.2,240.91,208Z"/><polygon class="cls-3" points="183.3 198.04 187.16 192.63 179.19 191.91 175.32 197.32 183.3 198.04"/><polygon class="cls-3" points="173.95 199.24 170.09 204.65 178.06 205.37 181.92 199.96 173.95 199.24"/><polygon class="cls-3" points="276.24 206.44 280.1 201.03 272.13 200.31 268.27 205.72 276.24 206.44"/><path class="cls-3" d="M423.49,180.72h-.07l.16,0Z"/><path class="cls-3" d="M298.11,236c-.67.4-.78.56-.7.86s.56.23.63.39-.87,1.23-1.33,1.57c-.25.2-.17.32.09.39l3.06-4.29C299.23,235.37,298.49,235.81,298.11,236Z"/><path class="cls-3" d="M300.47,238.06c0,.27.13.5.42.52a1.25,1.25,0,0,0,.43-.06c.65-.2,1.3-.44,1.3-.44s-.8-.27-.65-.48.67-.35.51-1.1-.48-.81.37-.77,1.2-.51,1.79-.62a3.75,3.75,0,0,1,1,0l.26,0a.94.94,0,0,0-.7-.3,1.65,1.65,0,0,0-.38,0,17.49,17.49,0,0,0-2.33.25l-.22.05-1.8,2.53A2.75,2.75,0,0,0,300.47,238.06Z"/><path class="cls-3" d="M309.46,232.86l.42,0,.48-.33Z"/><path class="cls-3" d="M326,256.57c.44-1.13.59-1-.17-1.54s-1.13-.45-1-1.13.67-.83.15-.87c-.2,0-.41,0-.59,0s-.47-.09-.46-.37a2.7,2.7,0,0,0,0-.8l-.67-.06-3.86,5.41,6,.55C325.85,257.2,325.63,257.56,326,256.57Z"/><polygon class="cls-3" points="313.01 250.84 309.15 256.25 317.12 256.97 320.98 251.56 313.01 250.84"/><polygon class="cls-3" points="302.68 249.91 298.82 255.31 306.79 256.03 310.65 250.63 302.68 249.91"/><path class="cls-3" d="M284.76,256.09l-6.59-.6a3.43,3.43,0,0,1,.17,1.07c-.08.56.23.44-.3,1.43s-.12,1.61-1.28,2.06-1.66.3-1.09.93l.05,0,4.47.4a4.24,4.24,0,0,1,.92-.23Z"/><path class="cls-3" d="M305.46,265.92c.3.06.61.1.9.13s.87,0,1.26,0a1.34,1.34,0,0,0,.46-.08l-3.22-.29A2.39,2.39,0,0,0,305.46,265.92Z"/><polygon class="cls-3" points="300.33 249.69 292.36 248.97 288.49 254.38 296.46 255.1 300.33 249.69"/><path class="cls-3" d="M302,244.79a1.21,1.21,0,0,0-.47-.14,3,3,0,0,0-1.19.26c-.91.33-4,1.41-5.06,1.65a2.92,2.92,0,0,0-1.33.51l7.76.7,1.67-2.33C302.86,245.22,302.26,244.91,302,244.79Z"/><path class="cls-3" d="M311.4,246.42c-.42-.5.08-.47.63-.89a5.82,5.82,0,0,1,1.88-1c.75-.24.67-.37.17-.68a7.26,7.26,0,0,0-2.62-.51l-.66-.06c-.75-.06-1.2-.06-1.38.28s.12.56-.17.54l-.39-.08a7.62,7.62,0,0,0-1.17-.21,2.8,2.8,0,0,0-.65,0l-3,4.17,8,.72,1-1.42A4.69,4.69,0,0,1,311.4,246.42Z"/><path class="cls-3" d="M322.49,248.27c-.67-.32-.44.11.19-.78s.54-.77,0-1-.81-.22-.86-.8a10.13,10.13,0,0,1,.07-1.88l-.47,0-.48.26a5.33,5.33,0,0,0-1.65,1.34c-.38.54-.24.88-.75,1.6a7.54,7.54,0,0,1-2.58,1.76,1.16,1.16,0,0,1-.6.15c-.28,0-.41-.24-.62-.33l-.06,0-.27.37,8,.72C322.72,249.11,323.12,248.58,322.49,248.27Z"/><path class="cls-3" d="M288.25,248.88c-1.87.19-5.48,1-6,1.49s-.42.5-.48.49l-.06,0a1.08,1.08,0,0,1-.3-.41,3.88,3.88,0,0,0-1.13,1.08c-.26.53-.11.88-.62,1.54a5.26,5.26,0,0,1-.44.49l6.95.63,3.84-5.38C289.5,248.8,289,248.81,288.25,248.88Z"/><path class="cls-3" d="M309.34,266.12c0,.14,0,.28.6.33l.38,0h0l.18-.25Z"/><path class="cls-3" d="M287.12,256.3l-3.36,4.7h.45a3.91,3.91,0,0,0,2.44-.27,2.84,2.84,0,0,1,1.69-.7,10.37,10.37,0,0,1,2-.36h.27l.36.05.36.05a3.09,3.09,0,0,0,1.24-.18c.58-.19.76-.31,1-.37l1.58-2.22Z"/><polygon class="cls-3" points="307.77 258.17 303.91 263.58 311.88 264.3 315.75 258.89 307.77 258.17"/><path class="cls-3" d="M319.29,262.73c1.33-.75,1.22-.34,2.58-1.48.66-.56,1.35-1.11,1.95-1.63l-5.72-.52-3.86,5.41,2.65.24a3.2,3.2,0,0,0,.24-.26A6,6,0,0,1,319.29,262.73Z"/><path class="cls-3" d="M295.93,259.36a10.21,10.21,0,0,1,2.66.59c.64.24,1.56.78,1.64,1.12s.23.76.36.77h.05a2.13,2.13,0,0,0,.95-.23c.36-.14,1-.34,1.58-.51l2.25-3.14-8-.72Z"/><path class="cls-3" d="M277.32,232a2.74,2.74,0,0,1,0,.32c-.09.57.09,1,0,1.48-.06.31.34.65.7,1l1.85-2.59Z"/><path class="cls-3" d="M277.67,227.89c0-.32-.44-.63-2.41-1l-.11,0-.3.42a3.33,3.33,0,0,0,.63,1,.4.4,0,0,0,.31.16h.38c.14,0,.24.08.22.37,0,.71-.21.71.05,1l0,0,3.41.31a8.26,8.26,0,0,1-1.42-1.11C278.13,228.61,277.66,228.22,277.67,227.89Z"/><path class="cls-3" d="M279.45,236.78a.28.28,0,0,0,.13,0,.59.59,0,0,1,.36-.08l.24.05.25,0h.21c.4-.05.74-.36,1.52-1.12s.61-1.16.42-1.37-.76-.3-.79-.48a5.6,5.6,0,0,0,0-.75l-2.57,3.6A.49.49,0,0,0,279.45,236.78Z"/><path class="cls-3" d="M286.78,237.87l-.31-.06-.07,0c-.13,0-.12.06-.17.12s-.15.11-.49.08a4.14,4.14,0,0,1-.47-.07c-.43-.08-.69-.1-.85-.12h-.19c-.17,0-.19,0-.48-.25-.52-.39-.48-.44-.94-.54l-.2,0a.88.88,0,0,0-.48.06c-.27,0-.43-.09-.61-.11a1.24,1.24,0,0,0-.73.23c-.67.4-.62.41-.05.45s.31.24.25.29-.21,0,.47.24l4.82.44Z"/><path class="cls-3" d="M288.64,238.78l.48.05a3.39,3.39,0,0,0-.39-.18Z"/><path class="cls-3" d="M287.87,233c-.08.2-.17.41,0,.46l.08,0h.19a.55.55,0,0,1,.18,0c.09,0,.17.05.24.2.16.35-.8,1.23-.33,1.31l.2,0h.38l1.29-1.81Z"/><path class="cls-3" d="M299.69,231.82c0-.29.36-.4.47-1s-.19-.37.41-.64,1-.31,1.18-.54.38-.23,1-.41,0-.13-.29-.39-.56-1.16-1.09-1.21h0a13.73,13.73,0,0,0-2.53,1c-.57.29.15.27-.55.5a10.9,10.9,0,0,0-1.79.45,11.09,11.09,0,0,1-1.78.61l-.86,1.21,5.93.54A.32.32,0,0,1,299.69,231.82Z"/><path class="cls-3" d="M291.14,235.28h.19a2.1,2.1,0,0,1,.86.25,5,5,0,0,0,1.57.48h.09c.55,0,.58.11,1-.37a3.42,3.42,0,0,1,1.6-1.26c.8-.28.91-.32,1.13-.55l-5.09-.46Z"/><path class="cls-3" d="M290.29,230.92h0a1.61,1.61,0,0,0-.67.15l.74.06C290.25,231,290.29,230.92,290.29,230.92Z"/><path class="cls-3" d="M306.22,236.29a.89.89,0,0,0-.88.34c-.26.36-.5.53.61.63s2.61-.12,1-.77A2.5,2.5,0,0,0,306.22,236.29Z"/><path class="cls-3" d="M317.93,237.15h-.24c-.59-.05-.64-.49-.66-1.26a1.39,1.39,0,0,0,0-.3l-3.32-.3c-.27.07,0,.12.55.33.82.34.9.43,1,.45s1.49.27,1.07.39-1.88.13-1.29.59.42.16,2.17,1.11a7.19,7.19,0,0,0,1.85.68l1.9-2.66C319.61,236.21,318.58,237.12,317.93,237.15Z"/><path class="cls-3" d="M328.71,239.81c0-.66-1.1-1.52-2.54-2.14a20,20,0,0,0-3-1l-3.42,4.79.35,0a1.16,1.16,0,0,1,.59.17l3.51.31c.25-.09.5-.2.77-.32a1.87,1.87,0,0,1,.93-.24,10.94,10.94,0,0,1,1.36.41,2.64,2.64,0,0,1,.55.21l1.09-1.52A1.42,1.42,0,0,1,328.71,239.81Z"/><path class="cls-3" d="M330.63,242.58a6.13,6.13,0,0,0-.36-.51l-.32.45Z"/><path class="cls-3" d="M333.41,240.15h-.25c-.21,0,0-.08-.57-.14l-.22,0c-.53,0-.68,0-.53.24s-.06.46.84.54h.16a17.68,17.68,0,0,0,3-.32,1.56,1.56,0,0,0,1.16-.61c.14-.12-.12-.71-.42-.74a.3.3,0,0,0-.24.11c-.35.38-.19.51-.94.75A6.17,6.17,0,0,1,333.41,240.15Z"/><path class="cls-3" d="M339.52,240.33a1.09,1.09,0,0,0-.62-.35c-.17,0-.27.07-.19.31s0,.25.13.64a.71.71,0,0,0,.43.42l.46-.65A1,1,0,0,0,339.52,240.33Z"/><path class="cls-3" d="M312.6,237.66s.5-.22-.32-.81l-.19-.12-.43.61C312.17,237.49,312.6,237.66,312.6,237.66Z"/><path class="cls-3" d="M309.21,236.44a1.74,1.74,0,0,0-1,.88c0,.13,0,.18.09.19s.41-.06.8-.08h0l.76-1.05Z"/><path class="cls-3" d="M186.91,187.33a2.28,2.28,0,0,0,.48.1c.35,0,.49-.11,1-.25s.08-.26-.39-.3l-.38,0C186.4,186.86,186.13,187.1,186.91,187.33Z"/><path class="cls-3" d="M198.37,183.6s-.15.05-.32.16l.3,0C198.41,183.67,198.42,183.6,198.37,183.6Z"/><path class="cls-3" d="M193.73,188.48a4.23,4.23,0,0,0,1.14-.16c1.54-.37,1.16-.86,1.77-1.44.44-.42.81-.77.31-.82a5.17,5.17,0,0,0-1.07.12,3.15,3.15,0,0,0-2.22,1.07c-.54.56.86.2.23.67C193.49,188.23,193.37,188.45,193.73,188.48Z"/><path class="cls-3" d="M217.92,195.74l.22-.31-.45,0A.34.34,0,0,0,217.92,195.74Z"/><path class="cls-3" d="M422.13,169.13a4.13,4.13,0,0,1-.49-.07c-1.21-.26-1.45-.28-1.45-.28H420l-.11,0h-.1c-.18,0-.32,0-.54.43s-.23.66.37.71c.19,0,.45,0,.78,0,1.33,0,.33,0,2.09.07h.72l.64-.89a6,6,0,0,0-.7,0A6.94,6.94,0,0,1,422.13,169.13Z"/><path class="cls-3" d="M306.36,130.65s0,0,0,0a10.18,10.18,0,0,0-1.45.35l1.5.14C306.4,130.91,306.32,130.71,306.36,130.65Z"/><path class="cls-3" d="M178.91,150.4a1.56,1.56,0,0,0-.88.11c-.08.07,0,.15,0,.22l2.09.19A1.8,1.8,0,0,0,178.91,150.4Z"/><path class="cls-3" d="M187.6,154.44c1.48-.44,1.62-.43,2.26-.59l-5.15-.47-1.2,1.68A16.8,16.8,0,0,0,187.6,154.44Z"/><path class="cls-3" d="M192.7,152.06c.1-.6-1-.52-1.73-.63s-.43-.52-.73-.68a.38.38,0,0,0-.16-.05c-.39,0-1.19.21-2.87.35l-.87.06-.26.35Z"/><path class="cls-3" d="M177.09,153.46c-.39.12.86.19,1.3.29s.51.39-.08.73c-.21.12-.09.17.21.2.52,0,1.57,0,2.21,0h.11a1.91,1.91,0,0,1,.37.06l1.14-1.6L180.5,153a.56.56,0,0,1-.24.1,0,0,0,0,1,0,0l0-.1-2-.18C178.2,153.11,177.46,153.34,177.09,153.46Z"/><path class="cls-3" d="M358.25,197.77c0-.1,0-.14-.12-.15a5,5,0,0,0-.86.17,1.17,1.17,0,0,1-.37,0,1.48,1.48,0,0,1-.75-.29,3.26,3.26,0,0,1-.69-1.36.57.57,0,0,0-.2-.06.31.31,0,0,0-.32.17,2,2,0,0,1-.89.92,1.66,1.66,0,0,0-.66.62l4.67.42A3,3,0,0,0,358.25,197.77Z"/><path class="cls-3" d="M349.91,200.26a7.93,7.93,0,0,1,.81-.26l.57-.05s0-.13-.31-.31l-1.06-.1A4.18,4.18,0,0,0,349.91,200.26Z"/><path class="cls-3" d="M116.16,172.9h-.35l-.2.28.27-.09C116.23,172.94,116.27,172.91,116.16,172.9Z"/><path class="cls-3" d="M297.47,128.82c-1.39.18-1.07.35-2.14.69-.67.21-.73.35-.22.4a11,11,0,0,0,1.46,0c.66,0,1.1-.08,1.46-.13l.7-1A6.87,6.87,0,0,0,297.47,128.82Z"/><path class="cls-3" d="M333.69,206.48l-2.1,2.94a10.54,10.54,0,0,0,1.33-.51c1-.39,1.09-.49,1.4-1s.07-.55-.31-.73-.58,0,.23-.41a1.32,1.32,0,0,1,.63-.14l.2,0a.53.53,0,0,0,.18,0,.65.65,0,0,0,.26,0l.1,0a.88.88,0,0,0-.45.48,5.78,5.78,0,0,0-.29,1c0,.06,0,.09.08.1a8.66,8.66,0,0,0,1-.21c.71-.15,1.08-.72,1.62-.68.31,0,.27.18.42.19a2.08,2.08,0,0,0,.76-.26,3.34,3.34,0,0,0,.65-.37l-.19.57s0,0,0,0,.78-.18,1.33-.25.17-.19.29-.44a.71.71,0,0,1,.32-.27l-5.38-.49a10.11,10.11,0,0,1-1.71.26A1.43,1.43,0,0,0,333.69,206.48Zm5.87,0s0,0,0,0h0S339.56,206.54,339.56,206.52Z"/><path class="cls-3" d="M347.37,205.07l.1-.11a6.45,6.45,0,0,0,.88-1,.88.88,0,0,1,.7-.39c.15,0,.48-.48.95-.71s.48-.34.89-.92-.15-.51.11-.92a4,4,0,0,1,.69-.79,6.62,6.62,0,0,0-1.35.29l-.21.14s0-.06-.17-.07a2,2,0,0,0-.31,0,2,2,0,0,0-1,.81c-.24.41.6,0-1,1.21l-.51.38-1.33,1.87Z"/><path class="cls-3" d="M342.92,204.5c-.2-.1.33-.36.58-.43s-.19-.11-.53-.14l-.32,0c-.35,0-.21.27-.38.47a1.73,1.73,0,0,1-.28.2l1.45.13.09-.12h-.27A.8.8,0,0,1,342.92,204.5Z"/><path class="cls-3" d="M341.88,206.75H342l.08-.11-.6-.06A.52.52,0,0,0,341.88,206.75Z"/><path class="cls-3" d="M300.68,148.85l.16,0a.42.42,0,0,0,.23,0,.25.25,0,0,0,.16-.22.65.65,0,0,0-.11-.33l-1.55-.14A1.57,1.57,0,0,0,300.68,148.85Z"/><path class="cls-3" d="M278.25,147.64a7.34,7.34,0,0,1-2.3,1.14l-.56.79s0,0,0,0c.35,1,1.3,1.65,3.11,2.22a6.77,6.77,0,0,0,1.39.29c.86.08,1.21-.14,1-.26s-.79-2,.86-3.8a5.2,5.2,0,0,1,1.7-1.36l-2.91-.26C279.74,147,279.21,146.74,278.25,147.64Z"/><path class="cls-3" d="M292.67,143.28c1.59-.39,5-.78,7.45-1.07l1.05-1.47c-.77.16-2.25.53-5.09,1a28.31,28.31,0,0,1-4.4.41L290.34,144A20.38,20.38,0,0,1,292.67,143.28Z"/><path class="cls-3" d="M288.89,142.55c-.65.15-1.43.37-2.43.69-2.13.67-3.25,1-3.89,1.33l4.58.42Z"/><path class="cls-3" d="M290.15,131.81a3.21,3.21,0,0,0,.78,0l-2.31-.21C289.5,131.7,289.86,131.79,290.15,131.81Z"/><path class="cls-3" d="M293.1,132.25a2.35,2.35,0,0,0,.8.2c.29,0,.59,0,.92,0,.62,0,.67-.13.36-.26-.05,0,0,0,.08,0L293,132C292.86,132.05,292.89,132.16,293.1,132.25Z"/><path class="cls-3" d="M268.08,153.89a2.06,2.06,0,0,0,.58.15,5.05,5.05,0,0,0,1.1-.11l.45-.62-1.28-.12C268,153.35,267.47,153.68,268.08,153.89Z"/><path class="cls-3" d="M283.8,131.36l.3,0a1.36,1.36,0,0,0,.83-.15l-2.31-.21C281.61,131,282.76,131.27,283.8,131.36Z"/><path class="cls-3" d="M187.66,171.07c-1.16.21-.59.46.14.52H188c.43,0,1.22,0,1.78.06s.81.14.51.33c-.64.42-1.21-.18-2.41.51s-4,1.09-2.93,1.18H185c1.25.06,1.29-.15,4.8-.2l2.71-3.79-2.87-.26a6.64,6.64,0,0,0,0,.67C189.63,170.62,188.9,170.84,187.66,171.07Z"/><path class="cls-3" d="M194.51,173.27c2.16-.22,2.3-.39,1.61-.45-.23,0-.56,0-.94,0h-.24c-.88-.08,1.82-.88,2.16-1.82.15-.4,0-.51-.28-.53h-.65c-.21,0-.38-.08-.43-.28l0-.17-.82-.07-2.55,3.56A10.91,10.91,0,0,0,194.51,173.27Z"/><path class="cls-3" d="M191.31,164.19c-1,.75-2,1.14-1.66,1.17l.47,0c.88-.13,2-.55,2.32-.52.14,0,.16.1,0,.3-.57.72-1.51.52-1.69,1.26s-.38.65,1.18,1c.51.14.71.2.75.26l1.23.11,1.07-1.5a4.48,4.48,0,0,0-1.41-.35h-.17a6.64,6.64,0,0,0,1.75-.74c.52-.33.73-.43,1.06-.62l.76-1.07h-.1a9.94,9.94,0,0,0-1.21,0c-.64,0-1.07.06-1.28,0s-.19-.07,0-.21a7.92,7.92,0,0,1,1.5-.71,2.44,2.44,0,0,0,.67-.35l-1-.09a13,13,0,0,0-2,.2C192,162.65,192.54,163.27,191.31,164.19Z"/><path class="cls-3" d="M361.58,190.19c.4-.7.48-1.29.21-1.53s.16-.53.53-.78a2.92,2.92,0,0,0,1-1.11,8.14,8.14,0,0,0,.55-1.39c0-.06,0-.08-.07-.09a2,2,0,0,0-.61.2l.05.18c-.13.42-.42,1.06-.83,1.09a2.81,2.81,0,0,0-1.4.92c-.42.45-1,1-.88,1.41s-.17.4-.39.71c-.11.16-.27.43-.47.73l2.11.19A2.32,2.32,0,0,1,361.58,190.19Z"/><path class="cls-3" d="M356.58,193.65c-.49.7-.95,1.25-1.11,1.53,0,.07,0,.1,0,.1a4.14,4.14,0,0,0,.6-.3,1.35,1.35,0,0,1,.52,0,.71.71,0,0,1,.54.22l.17.27h.06c.12,0,.38-.06.38-.93,0-1.13-.3-.92.59-1.86l.14-.14-1-.09A13.08,13.08,0,0,1,356.58,193.65Z"/><path class="cls-3" d="M74.71,200c.41,0,.73-.1.57-.37a1,1,0,0,0-.34-.34l-.48.67Z"/><path class="cls-3" d="M77.25,198.39a4.25,4.25,0,0,0,1.83.64l.8.13c.31,0,.35-.07.17-.51l0-.1-2.93-.26Z"/><path class="cls-3" d="M73.27,194.79c-.52.06-.3.16.21.2a7.4,7.4,0,0,0,1.61,0,5,5,0,0,1,.5,0l.31-.43A13.9,13.9,0,0,0,73.27,194.79Z"/><path class="cls-3" d="M78.11,194.89,77.3,196a4,4,0,0,1,.59.29l1.49.14C79.37,196,79.36,195.35,78.11,194.89Z"/><path class="cls-3" d="M86.62,202.88a1.09,1.09,0,0,0-.3-.07c-.42,0-.66.25-.44.53a1.32,1.32,0,0,0,.87.3l1,0C88.45,203.72,87.68,203.28,86.62,202.88Z"/><path class="cls-3" d="M78.52,190.61a1.43,1.43,0,0,0-.17.43l.3-.42Z"/><path class="cls-3" d="M25.91,149.38a2.87,2.87,0,0,1,1.75-.65,1.07,1.07,0,0,1,.32.07c.6.23,1.44,1.15,1.79,1.27l.39.06.43,0,1.94-2.72-8-.72-1.25,1.75a10.59,10.59,0,0,1,2.26-.44c.08,0,.11,0,.09.07-.15.25-.48.27-1.44.5s-.77.29-.46.32H24c.2,0,.05.07-.93.26l-.36.07L21.51,151l.17,0A20.78,20.78,0,0,0,25.91,149.38Z"/><polygon class="cls-3" points="37.77 140.1 29.8 139.38 25.93 144.79 33.91 145.51 37.77 140.1"/><path class="cls-3" d="M106.27,227.83c-.22-.46.15-.21.88-.37l.19,0,2-2.8-8-.72-3.86,5.41,6.76.61c.42-.65.2-.7.77-1S106.48,228.29,106.27,227.83Z"/><path class="cls-3" d="M39.69,137.42l-2.06-.22s-3.66-.4-5.79-.68l-.67.93,8,.72Z"/><polygon class="cls-3" points="58.13 173.16 50.16 172.44 46.3 177.85 54.27 178.57 58.13 173.16"/><path class="cls-3" d="M103.51,146.73l.48.07a1.87,1.87,0,0,0,1.26-.35.63.63,0,0,0,.25-.23l-3.41-.31-.41.58C102.14,146.55,102.82,146.62,103.51,146.73Z"/><path class="cls-3" d="M92.71,236a13.68,13.68,0,0,1,1.46-.21c.91,0,1.89-.87,4.06-1.88a3.76,3.76,0,0,1,2-.44l.48.08.36.07a.54.54,0,0,0,.44-.14,11.68,11.68,0,0,0,1.34-1.68l-6.68-.6Z"/><path class="cls-3" d="M40.75,187.25c.64.64,1.45,1.08,1.46,1.42a1.21,1.21,0,0,1-.17,1c-.28.4.71.64.75,1a.14.14,0,0,0,.14.12,1,1,0,0,0,.84-1.14c-.14-.93-.71-1.2-.93-2.13,0,0,0-.09,0-.13l-2.13-.2Z"/><polygon class="cls-3" points="54.68 243.09 50.82 248.5 58.79 249.22 62.65 243.81 54.68 243.09"/><polygon class="cls-3" points="63.37 165.83 55.4 165.11 51.54 170.51 59.51 171.24 63.37 165.83"/><path class="cls-3" d="M30.05,135.51a1,1,0,0,0-.39-.11c-.65-.06-2.2-.11-2.94-.17a2.71,2.71,0,0,1-.38,0c-.2-.06-.32-.27-.73-.31a2.35,2.35,0,0,0-.88.13,32.15,32.15,0,0,1-3.23.6l-.66.92,8,.72Z"/><path class="cls-3" d="M105.37,144.16a3.78,3.78,0,0,1-.9-.46c-.3-.25-.17-.5.73-1s1-.78,1.06-1-.32-.62-.6-.79l-2.2,3.07Z"/><path class="cls-3" d="M110.69,226.24c.85-.43,1.94-1,2.49-1.27l-1.48-.14Z"/><path class="cls-3" d="M48.38,263.79l.32-.45a3.63,3.63,0,0,1-.87-.45c-1.2-.82-2.38-.74-2.21-1.75a25.68,25.68,0,0,1,.94-2.64.7.7,0,0,1,.4-.5l-2.75-.24-3,4.23a14.39,14.39,0,0,0,2.42,1.47l3.89.35h.89Z"/><path class="cls-3" d="M61.14,249.43l.48,0a3.18,3.18,0,0,1,.07-.81Z"/><path class="cls-3" d="M18.65,136.08l-.66.18.5.05Z"/><polygon class="cls-3" points="75.48 229.36 71.62 234.77 79.59 235.49 83.45 230.08 75.48 229.36"/><path class="cls-3" d="M111.64,175.22l.59-.83a3.2,3.2,0,0,0-.6.08,12.51,12.51,0,0,0-1.9.89c-.46.18-.55.3-.46.37l.68.07c.42-.1,1-.35,1.58-.54Z"/><polygon class="cls-3" points="63.23 181.43 55.26 180.71 51.39 186.11 59.37 186.83 63.23 181.43"/><path class="cls-3" d="M47.94,193.22l-.39.35,6.58.59,3.86-5.4L50,188l-2.51,3.51C48,192.12,48.51,192.68,47.94,193.22Z"/><polygon class="cls-3" points="68.46 174.09 60.49 173.37 56.63 178.78 64.6 179.5 68.46 174.09"/><path class="cls-3" d="M94.8,158.82a6.19,6.19,0,0,0-1.3-.8h0l-.46.64Z"/><path class="cls-3" d="M67.53,205.52l-.45-.33L64.76,205a.88.88,0,0,0,.17.32,9.21,9.21,0,0,0,1.5.95,6.3,6.3,0,0,1,.83.32l.59-.82A2.35,2.35,0,0,1,67.53,205.52Z"/><path class="cls-3" d="M11.44,153.52l.44-.15-2.07-.19a4.29,4.29,0,0,1-.43.16l-.71.23-.59.83a29.29,29.29,0,0,0,3.15-.8Z"/><path class="cls-3" d="M48.46,195.7a4.4,4.4,0,0,1,.76.41,15.11,15.11,0,0,0,2.8,1l.74-1Z"/><path class="cls-3" d="M40.31,157.16a1.41,1.41,0,0,0,.28,0,2,2,0,0,1,.42,0,.86.86,0,0,1,.82.56c.12.39-.44,1.07-.41,1.45s.9.88.93,1.23.08.92.17,1.35a.38.38,0,0,0,.08.17l1.49.14L48,156.63l-8-.72-.2.28,0,.12C39.9,156.78,39.88,157.12,40.31,157.16Z"/><path class="cls-3" d="M66.15,212.91c-.6.36-1.14.68-1.61,1l-3.11,4.35,8,.72,3.87-5.41Z"/><path class="cls-3" d="M68,220.89l-6.24-.57a16.26,16.26,0,0,1,.2,2.2,6.43,6.43,0,0,0,.12,2.33,4,4,0,0,0,1.06,1.35l1,.09Z"/><path class="cls-3" d="M69.5,201.42c.14-.3.61-.46-.12-.86a2.59,2.59,0,0,0-.91-.21l-.72,0c-.23,0-.46,0-.66,0a1.44,1.44,0,0,1-.54-.12,6,6,0,0,0-2-.39,2.52,2.52,0,0,1-.82-.19l-1.32,1.85a5.45,5.45,0,0,1,1.27.84l.8.64,3.65.33a4,4,0,0,0,.36-.29A9.71,9.71,0,0,0,69.5,201.42Z"/><path class="cls-3" d="M109.22,155.55c-1.12.53-.84.61-.71.82a4.36,4.36,0,0,1,.18,1.42,3.09,3.09,0,0,1-.65,1.35c-.16.17-.43.51-.73.81l4,.36,3.86-5.41-5.16-.47c-.07.22-.12.4-.14.5S110.33,155,109.22,155.55Z"/><path class="cls-3" d="M113.65,160.52l8,.72,3.86-5.41-.29,0a4.75,4.75,0,0,0-1.23.73c-.33.32-.06.57-.29.66a.51.51,0,0,1-.23,0l-.11,0-.15,0H123c-.38,0-.42,0-1.05.41a1.44,1.44,0,0,1-1,.39,2.89,2.89,0,0,1-.66-.18c-.75-.29-1.26-.87-1.56-.93s-.48-.09-.32-.34a14.39,14.39,0,0,0,1-1.26l-1.87-.17Z"/><polygon class="cls-3" points="73.84 151.17 65.87 150.44 62.01 155.85 69.98 156.57 73.84 151.17"/><path class="cls-3" d="M102.9,135.53c.43-.25.47-1.14.47-1.14s.27.05.65.08a4.81,4.81,0,0,0,2.14-.2c1.08-.45,1.28-1.2,2-1.57a3.31,3.31,0,0,1,1-.36s-.83-.17-1.72-.25a7.54,7.54,0,0,0-1.25,0c-1.16.11-1.85.55-1.84.73a1.12,1.12,0,0,0-.32-.08.86.86,0,0,0-.74.28c-.45.48-1.44,1.18-1.49,1.54a7.43,7.43,0,0,1-.75,1.43l1.15.1A4.81,4.81,0,0,1,102.9,135.53Z"/><polygon class="cls-3" points="85.81 230.3 81.94 235.7 89.92 236.43 93.78 231.02 85.81 230.3"/><path class="cls-3" d="M65.84,228.49a1.36,1.36,0,0,1,0,.73c-.17.8-.11.88-.17,1a15.15,15.15,0,0,1-1.92,2.54c-.47.44-.86.83-1.23,1.23l6.72.61,3.86-5.41Z"/><path class="cls-3" d="M69,195.25l-.39-.05a17,17,0,0,0-1.73,0l-.11.15,2.77.25C69.67,195.43,69.57,195.32,69,195.25Z"/><path class="cls-3" d="M65.4,198.79c.29-.41.4-.49.52-.66s.18-.47.12-.49a6.59,6.59,0,0,0,.79-.28l-1.39-.12-1.58,2.21A3.56,3.56,0,0,0,65.4,198.79Z"/><path class="cls-3" d="M93.45,150.89l.73-.37a2.73,2.73,0,0,1,1.39-.31,9.25,9.25,0,0,0,1-.05l.21-.29a1.86,1.86,0,0,0-1.07-.47c-.51-.1-.53-.28-.77-.4,0,0,0,0,0,0l.82.13c.39.07.85.14,1.27.18h.14l2.09-2.93c-.24-.14-.38-.24-.38-.24l.5.06.35-.49-8-.72-3.86,5.41Z"/><path class="cls-3" d="M11,145.49a18.14,18.14,0,0,0-2.59.37,7.2,7.2,0,0,0-2.16.75c-.71.45-.42,1-.86,1.67s.26,1.07.88,1.21a4.18,4.18,0,0,0,.67.09l.19,0,.2,0c.43,0,.79.08.87.22s-.71.69-.39,1a.44.44,0,0,0,.23.08l3.8-5.32Z"/><path class="cls-3" d="M112.26,143.55a2.41,2.41,0,0,1,.07-.49c.06-.2.32-.29.52-.33l1-1.41a2.28,2.28,0,0,0-1.63-.73c-.58-.08-1-.17-1.34-.2-.47,0-.7.05-.77.48a2.22,2.22,0,0,0,0,1s-.5.14-1.18.3-.57.39-.61.83-1.22.43-1.29.45,0,.53-.22.8l4.65.42Z"/><path class="cls-3" d="M101.8,177.59a.5.5,0,0,1,.18,0l.28.06a1.47,1.47,0,0,0,.26.05.16.16,0,0,0,.14,0c.07-.08,0-.21.15-.45l-1-.09-.48.67Z"/><polygon class="cls-3" points="73.7 166.76 65.73 166.04 61.87 171.45 69.84 172.17 73.7 166.76"/><polygon class="cls-3" points="89.12 175.96 81.15 175.24 77.28 180.65 85.26 181.37 89.12 175.96"/><path class="cls-3" d="M92.06,182c.25-.32.72-.32.57-.71s.52-1.1,1.08-1.43a2.9,2.9,0,0,1,.89-.38c.07,0,0,.09-.22.28-.66.51-.94.91-.89,1.08s.26.21,0,.52-.76.57-.62.59l.13,0a4.55,4.55,0,0,0,1.51-.93c.43-.38.34-.76.42-1.13a1.7,1.7,0,0,1,.43-.71.36.36,0,0,0,0,.52c.28.29-.11.62-.11.62A18.61,18.61,0,0,0,97,179.13a2.94,2.94,0,0,1,1-.76,2.54,2.54,0,0,1,.53-.13l1-1.34-8-.73-3.86,5.41Z"/><polygon class="cls-3" points="91.04 222.97 87.18 228.37 95.15 229.09 99.01 223.69 91.04 222.97"/><path class="cls-3" d="M100.26,149.16a2.16,2.16,0,0,0,1.31-.36c1.09-.61,2.05-1.2,2.05-1.2a8.29,8.29,0,0,1-1,0,7,7,0,0,1-1.51-.29l-1.29,1.82.14,0Z"/><path class="cls-3" d="M13.43,143.39l1.07-1.49a7.5,7.5,0,0,1-2.08.39h-.08a1.79,1.79,0,0,1-1.14-.74s-2.66.58-3.08.66-.31.33-.11.57,0,.26-.1.39l4.13.37A11.52,11.52,0,0,1,13.43,143.39Z"/><path class="cls-3" d="M14.11,138a9.2,9.2,0,0,0-1.79.61c-.81.44.76.82.66,1.12s-.21.65.08.85a9.41,9.41,0,0,0,2.06.38s-.11,0,0,.18l2-2.87Z"/><polygon class="cls-3" points="27.44 139.17 19.47 138.44 15.61 143.85 23.58 144.57 27.44 139.17"/><path class="cls-3" d="M65,244l-2.71,3.79c.51-.09,1.38-.18,1.81-.26a4.41,4.41,0,0,0,1.75-1,.23.23,0,0,1,.2-.06,1.74,1.74,0,0,1,.51.18,2.19,2.19,0,0,0,.67.19h.19a6,6,0,0,0,2.87-.43c1.29-.59,1.12-.77,1-1.17,0-.18,0-.2.07-.19h0c.06,0,.11,0,0-.2s0-.18.1-.17a4.58,4.58,0,0,1,.71.23l.48.16.23-.32Z"/><path class="cls-3" d="M12.82,151.06a2.76,2.76,0,0,1,.6,0c.3,0,.15.17-.25.41l3.42.31.39-.18c1.2-.56,0-.29,1.53-1.17.55-.31,1-.55,1.45-.75l2.25-3.15-8-.72-3.67,5.14a5.26,5.26,0,0,0,.89.15A7,7,0,0,0,12.82,151.06Z"/><path class="cls-3" d="M95.73,166.71,99,162.15a1.09,1.09,0,0,0,0-.36c-.09-.55-.17-.28.44-.51l-7.82-.7L87.76,166Z"/><polygon class="cls-3" points="85.4 165.77 89.26 160.37 81.29 159.64 77.43 165.05 85.4 165.77"/><path class="cls-3" d="M44.93,187.58c.53.53,1.14.63,1,1.46a1.15,1.15,0,0,0,.21.86l1.48-2.08Z"/><polygon class="cls-3" points="78.94 159.43 70.96 158.71 67.1 164.12 75.07 164.84 78.94 159.43"/><path class="cls-3" d="M119.6,167.92h.08c.08,0,0,.07,0,.14s.11.15.48.18h.13a4.24,4.24,0,0,0,2.26-.17,7.45,7.45,0,0,1,2.75-.7,5.93,5.93,0,0,0,2.36-.32,6.78,6.78,0,0,0,1.08-.45l.28-.39h0c-.06-.28.21-.51.52-.73l.48-.66a.63.63,0,0,0-.23-.1,6.34,6.34,0,0,0-1.31-.42h-.36l-.07,0h0a1.82,1.82,0,0,0-.35,0,11.74,11.74,0,0,0-2.16.41.81.81,0,0,1-.31.06c-.15,0,.06-.2.14-.33a2.53,2.53,0,0,1,1.09-.45c.24,0,.59-.11,1-.16l-4.86-.44L119.32,168Z"/><path class="cls-3" d="M103.18,161.84a3.77,3.77,0,0,1-.64,1.84,6.39,6.39,0,0,1-.75,1.18,3.65,3.65,0,0,1-1.5.58h-.07c-.3,0,.31-1-.14-1.33l-2,2.8,8,.72,3.86-5.41-6.67-.6A.18.18,0,0,0,103.18,161.84Z"/><path class="cls-3" d="M113.47,168.31a1.5,1.5,0,0,1,.82-.27,20.86,20.86,0,0,1,2.45,0l3.5-4.91-8-.72-3.86,5.4Z"/><path class="cls-3" d="M74,187.83a3.15,3.15,0,0,0,.83,0,2.15,2.15,0,0,1,.57,0,6.74,6.74,0,0,1,1.52.4c.22.07.23.13.36.14a4.48,4.48,0,0,0,.71-.06,1.91,1.91,0,0,1,.4,0,.74.74,0,0,1,.63.36l1,.09,3.86-5.41-8-.72-3.58,5,.67.1C73.33,187.74,73.69,187.8,74,187.83Z"/><path class="cls-3" d="M114.62,222.3a1,1,0,0,0-.38-.08,4.18,4.18,0,0,0-.52,0h-.14l-.51.72,1.13.1C114.48,222.68,114.79,222.4,114.62,222.3Z"/><path class="cls-3" d="M44.77,138.13a24.41,24.41,0,0,0-2.77-.44l-.5.7,5.16.46C46.07,138.61,45.32,138.31,44.77,138.13Z"/><path class="cls-3" d="M102.56,217.73h0c-.72-.28-.36-.49-.41-1.38,0-.06,0-.12,0-.18l-5.84-.53L92.42,221l8,.72,2.74-3.84Z"/><path class="cls-3" d="M39.9,257.37v0c-.06,1-.2,1.71-.22,2.44a1.38,1.38,0,0,0,.13.55l2-2.86Z"/><polygon class="cls-3" points="48.1 141.03 40.12 140.31 36.26 145.72 44.23 146.44 48.1 141.03"/><path class="cls-3" d="M56.24,198.38l.57,0c.88.08.75.31,1.15.57s.62,1.28,2.35,1.76l.1,0L63.08,197H63a3.6,3.6,0,0,0-.59.44.21.21,0,0,1-.16.1.27.27,0,0,1-.15-.1c-.14-.18-.56-.23-1-.27a15.45,15.45,0,0,0-1.79.14,2.66,2.66,0,0,1-.53,0c-.16,0-.15-.06-.21-.15s-.16-.19-.48-.34a.83.83,0,0,1-.35-.32l-2.58-.23L54,197.92a7.84,7.84,0,0,0,1.88.44Z"/><path class="cls-3" d="M125.6,160.9c-.52-.27-.17-.45.58-.87s.31-.49.3-1c0-.2,0-.57-.07-1L124,161.45l2.3.21C126.28,161.39,126,161.1,125.6,160.9Z"/><polygon class="cls-3" points="70.39 221.1 66.52 226.5 74.5 227.23 78.36 221.82 70.39 221.1"/><path class="cls-3" d="M3,154.68c-.83.19-2.15.63-2.83.82-.24.07-.19.11,0,.13a5.52,5.52,0,0,0,1.76-.2A11.88,11.88,0,0,1,4.83,155l.38,0,.49-.7C4.83,154.34,3.59,154.54,3,154.68Z"/><path class="cls-3" d="M41.81,169.64l7.37.66L53,164.9l-6.59-.6a6.63,6.63,0,0,1,.19,1.07s-.93-.41-1.41-.57l-.49-.16L44,165.69a1.55,1.55,0,0,1,0,.92A16.85,16.85,0,0,1,41.81,169.64Z"/><path class="cls-3" d="M56.82,194.32c0-.14,0-.26,0-.37l-.3.43.35,0S56.83,194.35,56.82,194.32Z"/><path class="cls-3" d="M98.78,140.21c.75.1,1.5.11,1.45.38a.71.71,0,0,1,0,.12,4.71,4.71,0,0,0-1.64.41c-.4.29-.08.33,0,.33h0c.16,0,.92.11-.14.77a4.17,4.17,0,0,1-2.28.58,1.24,1.24,0,0,0-.45.48l5.42.49,2.33-3.27c-.25,0-.73-.13-1.13-.18-.57-.07-.61-.12-.74-.23s1.19-.54,1.44-1.18a.78.78,0,0,0-.1-.74l-4.14-.37a11.73,11.73,0,0,0-1,1.74C97.56,140,98,140.11,98.78,140.21Z"/><path class="cls-3" d="M60.05,190.4c-.34-.58-.3-.61.15-.94A5.15,5.15,0,0,1,61,189l-.68-.06L58,192.28c.89-.6,1.48-.89,1.79-1.14S60.38,191,60.05,190.4Z"/><path class="cls-3" d="M66.87,187.45H67a2,2,0,0,1,.5.1l2.24.21,3.86-5.41-8-.72-3.86,5.41,4.82.43Z"/><path class="cls-3" d="M116.85,152.52a2,2,0,0,0-.77-.31,14.11,14.11,0,0,1-1.45,0c-.19,0-.4,0-.62-.08-.6-.1-1.32-.19-1.89-.24a2.65,2.65,0,0,0-1,0c-.14.12.22,0,.08.61h0l5.32.48Z"/><polygon class="cls-3" points="68.61 158.5 60.63 157.78 56.77 163.18 64.75 163.9 68.61 158.5"/><path class="cls-3" d="M86.53,185.5a6.5,6.5,0,0,0,1-.25c.46-.22.79-.39,1.21-.57a.75.75,0,0,1,.42-.1h.09a1.52,1.52,0,0,0,.36,0,3.72,3.72,0,0,0,1-.28s0,0,0,0h0a.1.1,0,0,1-.11-.12.53.53,0,0,1,.06-.26l-4.35-.39-2,2.76c.44-.13.84-.24,1.1-.33C85.89,185.77,86.11,185.64,86.53,185.5Z"/><polygon class="cls-3" points="58.28 157.56 50.31 156.84 46.45 162.25 54.42 162.97 58.28 157.56"/><path class="cls-3" d="M38.3,177.12l5.65.51,3.86-5.4-8-.72-1.11,1.55c-.29.5-.51.94-.67,1.19C37.67,174.83,38.13,176.37,38.3,177.12Z"/><path class="cls-3" d="M36.9,152.08a5.82,5.82,0,0,1,1,1.59l1.07.1,3.86-5.41-8-.72-2,2.86A40.93,40.93,0,0,1,36.9,152.08Z"/><path class="cls-3" d="M80.62,242a17,17,0,0,0,4.31-1.89c.72-.51,1.59-1.28,2.33-1.87l-6.69-.6L76.71,243l1.21.11A23,23,0,0,1,80.62,242Z"/><path class="cls-3" d="M109.93,220.17c-.74-.32-2.94-1-4.76-1.6l-2.43,3.4,8,.73,1-1.4A7.7,7.7,0,0,0,109.93,220.17Z"/><polygon class="cls-3" points="70.24 236.69 66.38 242.1 74.35 242.82 78.21 237.42 70.24 236.69"/><path class="cls-3" d="M80.52,191.51l-.8,1.12a4.2,4.2,0,0,0,.73-.61C80.67,191.78,80.53,191.86,80.52,191.51Z"/><path class="cls-3" d="M60.75,235.84,58,238.48l-1.92,2.69,8,.72,3.87-5.41Z"/><path class="cls-3" d="M95.36,210.87A21.66,21.66,0,0,1,93.44,209a13.41,13.41,0,0,1-.8-1.52l-1.46-.13-3.86,5.41,8,.72,1.5-2.11A4.52,4.52,0,0,1,95.36,210.87Z"/><path class="cls-3" d="M75.55,206l-.28.16a9,9,0,0,0-1.73,1.16s.08-.88-1.38-1.08l-.24,0a7.21,7.21,0,0,0-1.65.06l-.29,0-.79,1.11c.46-.17,1.21-.61,1.59-.77a1.19,1.19,0,0,1,.57-.1,1.18,1.18,0,0,1,.58.22c.24.18.06.74.12,1.21s-.12.32-.49,1.15.07.87-1.11,1.66a5.75,5.75,0,0,1-.75.43l4.94.45,3.86-5.41Z"/><path class="cls-3" d="M37.92,179.14l-.06.24c-.13.69-.08,1,.86,1.18A3.2,3.2,0,0,1,40.8,182l1.77-2.48Z"/><polygon class="cls-3" points="80.86 206.44 77 211.84 84.97 212.56 88.83 207.16 80.86 206.44"/><path class="cls-3" d="M73.5,141.28c.51-.18.19-.56-.36-.88l-.07,0-.59.83Z"/><path class="cls-3" d="M70.13,141l.69-1c-.78-.18-1.87-.39-2.26-.55a15.24,15.24,0,0,0-3.14-1h-.09a2.89,2.89,0,0,0-.7,0s.1.33-.62.41c-.4.05-.7.07-.91.08l-1,1.33Z"/><polygon class="cls-3" points="75.22 149.24 79.08 143.83 71.11 143.11 67.25 148.52 75.22 149.24"/><path class="cls-3" d="M100.1,213.63c.26-.46-.18-1.32-.76-1.57a3.69,3.69,0,0,0-.42-.13l-1.27,1.78,2.4.22A.42.42,0,0,1,100.1,213.63Z"/><path class="cls-3" d="M104.85,175.33a5.84,5.84,0,0,1,.92-.32,6.14,6.14,0,0,0,1-.36h0s0,0,0,.07,0,.07.13.08a1.4,1.4,0,0,0,.25,0c.57-.09.09-.1.81-.13a3.79,3.79,0,0,0,1.59-.58,5.86,5.86,0,0,0,1,0c.11-.05.14-.16.39-.16s1.38-.24,1.38-.24l.43-.09.68-.94c-.31-.47,0-.65.12-.8s.4-.53,0-.64-.57-.48-.52-.63,0,0,.08,0l.22,0a2.19,2.19,0,0,0,.33.06,1.78,1.78,0,0,0,.78-.11l.08,0-4.17-.38c-1,.29-1.94.59-2.36.78a10.62,10.62,0,0,1-2.3.69,14.23,14.23,0,0,0,2.62-1.17l.74-.41-2.1-.19-3.86,5.4Z"/><polygon class="cls-3" points="85.95 214.7 82.09 220.11 90.06 220.83 93.92 215.42 85.95 214.7"/><polygon class="cls-3" points="80.71 222.03 76.85 227.44 84.82 228.16 88.69 222.75 80.71 222.03"/><path class="cls-3" d="M86.69,142.47a4.79,4.79,0,0,0-1-.29c-.81-.14-.5-1-1.43-1.16L84,141h-.39l-.81,1.14Z"/><path class="cls-3" d="M94.42,143.17c.19-.31.89-.7,1-.79s-1-.32-1.47-.4l-.77,1.08Z"/><polygon class="cls-3" points="63.52 150.23 55.54 149.51 51.68 154.92 59.65 155.64 63.52 150.23"/><path class="cls-3" d="M116.66,174.28a.81.81,0,0,1,.64-.45,3.2,3.2,0,0,0,1.62-1.22c.11-.22.1-.29,0-.3a2.58,2.58,0,0,0-.52.15,2.83,2.83,0,0,0-1.07.7c-.33.3-.67.68-1,.67h0c-.11,0-.07,0-.07-.08s0-.09-.31-.11h-.14l-.34,0-.15,0-.84,1.17.3-.06C116.1,174.4,116.55,174.43,116.66,174.28Z"/><polygon class="cls-3" points="53.19 149.3 45.22 148.58 41.35 153.99 49.33 154.71 53.19 149.3"/><polygon class="cls-3" points="75.62 213.77 71.76 219.17 79.73 219.89 83.59 214.49 75.62 213.77"/><polygon class="cls-3" points="84.03 167.7 76.05 166.98 72.19 172.38 80.17 173.1 84.03 167.7"/><path class="cls-3" d="M53.19,255.08c-.25-.46.17-1,.58-1.63s.61-.35,1.42-.88,1.55-1.06,2-1.44l-7.78-.71-3.86,5.41,5.24.48.94-.34C53.08,255.49,53.44,255.55,53.19,255.08Z"/><polygon class="cls-3" points="90.49 174.04 94.35 168.63 86.38 167.91 82.52 173.32 90.49 174.04"/><path class="cls-3" d="M47.83,248.23l.63.06L50,246.18C49.18,246.94,48.43,247.67,47.83,248.23Z"/><polygon class="cls-3" points="85.55 150.18 89.41 144.77 81.43 144.05 77.57 149.45 85.55 150.18"/><path class="cls-3" d="M45.84,250.1c-1,1-2,2.23-3.29,3.72-.58.68-1,1.19-1.44,1.61l2.12.19,3.86-5.41Z"/><polygon class="cls-3" points="68.75 142.9 60.78 142.18 56.92 147.59 64.89 148.31 68.75 142.9"/><polygon class="cls-3" points="100.82 174.97 104.68 169.56 96.71 168.84 92.85 174.25 100.82 174.97"/><path class="cls-3" d="M48.72,139l.75.07.54-.76C49.62,138.51,49.23,138.82,48.72,139Z"/><path class="cls-3" d="M42.76,184.88c0-.51.17-1.76.17-1.76s2,1.26,1.91,2c0,.12-.05.25-.08.38l4.28.39,3.86-5.41-8-.72-3.86,5.41,1.66.15C42.74,185.15,42.76,185,42.76,184.88Z"/><polygon class="cls-3" points="58.42 141.97 50.45 141.25 46.59 146.65 54.56 147.37 58.42 141.97"/><path class="cls-3" d="M90.64,158.44l.37-.52a.85.85,0,0,1-.33.05c-.3,0-.38-.3-.47-.63s.05-1.65-.35-1.93-1.74-.42-2-.6,1.09-.86,1.66-1.47a8.16,8.16,0,0,1,.76-.69l-3.76-.34-3.87,5.41Z"/><polygon class="cls-3" points="78.79 175.03 70.82 174.31 66.96 179.71 74.93 180.44 78.79 175.03"/><polygon class="cls-3" points="80.31 157.51 84.17 152.1 76.2 151.38 72.34 156.79 80.31 157.51"/><path class="cls-3" d="M60.94,138.45c-.43-.56-1.1-1.52-1.1-1.52l-1.14.71c-.74.46-.46.27-2.31.6s-3.15.55-3.57.58h0c-.2,0,2.37-.63,3.66-.91,1-.23,1.06-.41.63-.45a2.34,2.34,0,0,0-.45,0c-.72.05-3,.65-4.1.87l-.7,1,8,.72Z"/><path class="cls-3" d="M258.24,223.14c-.27.37-.63.77-.85,1.15s-.37.65-.11.76a1.31,1.31,0,0,0,.46.15,2.28,2.28,0,0,0,.59,0c.64-.12,1.33-.36,1.37-.81a5.87,5.87,0,0,0-.08-1.43.92.92,0,0,0-.1-.32l-.71-.07A3.25,3.25,0,0,0,258.24,223.14Z"/><path class="cls-3" d="M84.86,202c.08-.53,1.14-.39-.08-1l-.86,1.21a5.67,5.67,0,0,0,.61.12C84.76,202.29,84.82,202.21,84.86,202Z"/><path class="cls-3" d="M80.8,199.69c-.24,0-.36,0-.28.13.3.44-.17.85-.37,1.06a.32.32,0,0,1-.3.09,10.89,10.89,0,0,1-1.4-.39,5.23,5.23,0,0,0-.66-.17c-.19,0,0,.13.51.42.74.44,1.45.41,1.07.88-.12.15-.07.21.07.23a4.93,4.93,0,0,0,1.43-.35,1,1,0,0,1,.43-.09,2.22,2.22,0,0,1,.48.14l1-1.45A11.28,11.28,0,0,0,80.8,199.69Z"/><path class="cls-3" d="M343.54,269.67l-.08.11a1.42,1.42,0,0,0,.64.21,1.38,1.38,0,0,0,.72-.12l1-.45-1.42-.13A2.9,2.9,0,0,1,343.54,269.67Z"/><path class="cls-3" d="M344.9,264.25l.15-.21h0C344.94,264,344.87,264.09,344.9,264.25Z"/><path class="cls-3" d="M345.94,266.35a5.19,5.19,0,0,1-.61,1l3.91.36c.57-.32,1.11-.63.88-.85a.36.36,0,0,0-.18-.07,7.59,7.59,0,0,0-1.21.29,2.79,2.79,0,0,1-.49,0,1.43,1.43,0,0,1-.56-.17c-.37-.2-.46-.21-.45-.5a.8.8,0,0,0-.1-.47s-.35.34-.6.32a.17.17,0,0,1-.11,0c-.18-.15-.09-.28-.07-.47l-.42.59Z"/><path class="cls-3" d="M210.34,236.88a.69.69,0,0,0-.4-.2c-.56-.05-1,1-2.47,2a4.08,4.08,0,0,1-1,.49l2.26.2,1.68-2.34A.67.67,0,0,0,210.34,236.88Z"/><path class="cls-3" d="M207.26,241.28l-6.69-.61c-.07.21.06.49.14,1.11.19,1.38-1.71,1.06-3.29,2.52-1.13,1.06-.77,1.26-.6,1.79l4.62.42c.47-.45,1.11-1,1.93-1.72A41.84,41.84,0,0,0,207.26,241.28Z"/><path class="cls-3" d="M40.92,161.73s0,0,0,0H41Z"/><path class="cls-3" d="M124.34,169.09l-.3.17,2.57.24a1.35,1.35,0,0,0,.11-.45c0-.53-.81-.18.54-.86.24-.12.45-.24.64-.35l.44-.62h0A18.13,18.13,0,0,0,124.34,169.09Z"/><path class="cls-3" d="M126.69,173a1.18,1.18,0,0,1-.14.23c-.09.13-.06.2,0,.21a2.33,2.33,0,0,0,1.23-.59,2.25,2.25,0,0,0,.73-1.17l-.87-.08Z"/><path class="cls-3" d="M123.16,171.71a14.64,14.64,0,0,1,1.65.46l.53-.74-4.79-.43C120.47,171.19,121.32,171.28,123.16,171.71Z"/><path class="cls-3" d="M38.64,160.18a.86.86,0,0,0,.35.21c.16,0,.19-.25.32-.77.18-.77.45-.75.63-1.23.1-.29-.41-.45-.88-.49h0a2,2,0,0,0-.49,0l-.42.59A1.93,1.93,0,0,0,38.64,160.18Z"/><path class="cls-3" d="M302.62,226.57l-.06.05.46-.1-.28,0Z"/><path class="cls-3" d="M306.85,224.52h-.12a.85.85,0,0,0-.48.24l.66.06C307,224.65,307,224.54,306.85,224.52Z"/><path class="cls-3" d="M312.83,232.14s0,0,0,0-1.67.53-2,.65a.44.44,0,0,0-.24.19l1.45.14A1.36,1.36,0,0,1,312.83,232.14Z"/><path class="cls-3" d="M339.6,271.67l1.69-2.37c-.35.14-.88.36-1.42.63a9.14,9.14,0,0,0-1.55.91,8.43,8.43,0,0,1-2.64.82,9.09,9.09,0,0,0-2.49.72c-.59.31-2.56,1.24-2.9,1.39l4.4.4c1-.51,2.18-1.37,2.81-1.7A16,16,0,0,1,339.6,271.67Z"/><path class="cls-3" d="M317.58,213.83c.14-.1.15-.2.06-.27l-.42.59A2.3,2.3,0,0,1,317.58,213.83Z"/><path class="cls-3" d="M314.39,214.61l.39-.55A.57.57,0,0,0,314.39,214.61Z"/><path class="cls-3" d="M310,227.52a3.92,3.92,0,0,1,.24-.34h0l-.6,0a4,4,0,0,1-1,.29,2.46,2.46,0,0,0-1.31.6c-.24.26.05.29.09.3h0a5.39,5.39,0,0,0,.8-.38,1.78,1.78,0,0,1,1.21-.28h.39c.19,0,.17.07.2.22s-.32.51-.47.74-.36.49.13.68a1.87,1.87,0,0,0,.32.09,4.91,4.91,0,0,1,.54,0c.56,0,.54,0,.59-.16s0-.36.12-.57.51-.27.65-.3h0c.1,0,0,.25,0,.5s0,.21.05.22.12,0,.22-.14a4.52,4.52,0,0,0,.84-.91,3.91,3.91,0,0,1,.28-.54l-2.49-.22C310.45,227.35,310,227.52,310,227.52Z"/><path class="cls-3" d="M310.06,220.62a4.27,4.27,0,0,0-.61.62c-.16.23-.37.35-.17.52l.8-1.12Z"/><path class="cls-3" d="M311.29,223.45s0,0,0,0,.16-.12.29-.24.27-.25.4-.24h0a.82.82,0,0,1,.52.63c.06.25.39.29.39.29s-.11-.61.16-.66.39-.1,0-.39a3.27,3.27,0,0,0-1.36-.35l-.1,0h-.35l-.43.59C311.07,223.2,311.26,223.32,311.29,223.45Z"/><path class="cls-3" d="M312.37,220.94l.17-.1a3.21,3.21,0,0,0,1.09-1.09l.05-.07-.38,0Z"/><path class="cls-3" d="M310.83,269.39a4.07,4.07,0,0,0,1.59-1.28c0-.07,0-.09-.06-.1a3.11,3.11,0,0,0-.77.21l-.87,1.23Z"/><path class="cls-3" d="M308,268a1.22,1.22,0,0,0-.3-.06c-.53-.05-.73.42-.87.79a1.9,1.9,0,0,0-.12,1.16c.05.2.4.35.8.44l1.34-1.86A5.64,5.64,0,0,1,308,268Z"/><path class="cls-3" d="M312.62,224.33l-1.33.64s.14-.17-.13-.54-.22-.45-.86-.59l-.86,1.21.42,0a2.59,2.59,0,0,0,.51-.1s0,0-.24.12l1.71.16a2,2,0,0,0,.3-.29A3.37,3.37,0,0,0,312.62,224.33Z"/><path class="cls-3" d="M313.38,225.08l.08,0c.16.08.06.26.11.26s.08,0,.2-.12a1.71,1.71,0,0,0,.61-.84c.09-.26-.2-.29-.55-.32a4.07,4.07,0,0,0-.52,0c-.1,0-.44-.07-.22.22s.56.39.37.58-.18.21-.31.2h-.08c-.22,0-.26-.09-.36-.1h0c-.1,0-.2.12-.21.24s0,0,.08.14l.47,0C313.13,225.27,313.22,225.07,313.38,225.08Z"/></g><path class="cls-4" d="M310.42,7.22h0S300.16-2.16,286.77.46l0,7.48c-20.32,3.91-47,9-62.74,11.85a15.81,15.81,0,0,0-13.12,15.48V289.78A16,16,0,0,0,227,305.65h69a18.16,18.16,0,0,0,18.31-18V17.21C314.36,15,313.55,9.31,310.42,7.22Z"/><path class="cls-5" d="M286.77.46s6.54-1.75,12.16,2.09,5.12,11.38,5.12,11.38L304,283.1s1.65,23-20.93,22.74Z"/><path class="cls-6" d="M211,15.07c19.4-3.56,55.59-10.63,75.78-14.61a12.22,12.22,0,0,1,14.57,12V287.54a18.3,18.3,0,0,1-18.3,18.3H214a16.13,16.13,0,0,1-16.13-16.13V30.82A16,16,0,0,1,211,15.07Z"/><path class="cls-4" d="M197.88,280.87l32.62,18.35,66.22.34A17.34,17.34,0,0,0,301.34,289c.15-4.23,0-62.53,0-62.53L296,220.3Z"/><polygon class="cls-7" points="296.01 42.45 234.9 51.6 234.9 264.85 296.01 262.32 296.01 42.45"/><polygon class="cls-8" points="202.99 56.38 202.99 266.18 234.9 264.85 234.9 51.6 202.99 56.38"/><path class="cls-9" d="M239,31.77V31.7a1.92,1.92,0,0,1,1.64-1.9l15.17-2.2a1.91,1.91,0,0,1,2.2,1.89h0a1.92,1.92,0,0,1-1.64,1.9l-15.17,2.27A1.91,1.91,0,0,1,239,31.77Z"/><ellipse class="cls-10" cx="309.02" cy="70.64" rx="4.27" ry="5.8"/><ellipse class="cls-10" cx="309.02" cy="95.4" rx="4.27" ry="5.8"/><rect class="cls-10" x="306.63" y="27.44" width="5.95" height="26.72" rx="2.32"/><path class="cls-8" d="M245.57,94.13,296,96.29V42.44S242.26,41.07,245.57,94.13Z"/><path class="cls-11" d="M140.19,106.41s2,8.21,10.52,7.12c10.52-1.34,10.52-9.58,10.52-9.58Z"/><path class="cls-12" d="M161.24,103.94s2,8.22,10.52,7.13c10.52-1.34,10.52-9.58,10.52-9.58Z"/><path class="cls-11" d="M182.28,101.5s2,8.21,10.53,7.12c10.52-1.34,10.52-9.58,10.52-9.58Z"/><path class="cls-12" d="M203.33,99.05s2,8.22,10.52,7.13c10.52-1.34,10.52-9.58,10.52-9.58Z"/><path class="cls-11" d="M224.38,96.59s2,8.21,10.52,7.12c10.53-1.33,10.53-9.57,10.53-9.57Z"/><path class="cls-7" d="M203,54.1c-63.68,7.78-62.8,52.31-62.8,52.31L161.24,104C161.38,102.48,165,68.67,203,54.1Z"/><path class="cls-6" d="M217.77,52.29,203,54.09c-38,14.58-41.61,48.38-41.75,49.86l21-2.45C182.35,100.17,184.2,72.49,217.77,52.29Z"/><path class="cls-6" d="M261.06,46.92,236,50.05c-31,15.78-32.59,48-32.63,49l21-2.45C224.33,95.27,224,57.54,261.06,46.92Z"/><path class="cls-7" d="M261.06,46.92C224,57.54,224.34,95.27,224.38,96.6l21.2-2.47c-.24-34.92,21.89-46.26,36.9-49.93Z"/><path class="cls-8" d="M282.48,44.54c9.12-1.4,13.53-2.1,13.53-2.1A48.86,48.86,0,0,0,282.48,44.54Z"/><path class="cls-7" d="M236,50.05l-18.18,2.24c-33.58,20.21-35.43,47.89-35.5,49.21l21.05-2.45C203.37,98,204.92,65.83,236,50.05Z"/><polygon class="cls-13" points="185.27 216.5 185.27 216.5 186.14 216.47 185.27 216.5"/><polygon class="cls-13" points="219.29 215.41 219.29 215.41 220.78 215.36 219.29 215.41"/><polygon class="cls-14" points="254.88 220.3 254.88 280.88 296.01 279.17 296.01 220.3 254.88 220.3"/><polygon class="cls-3" points="258.04 220.3 143.34 224.79 143.34 232.66 258.04 228.96 258.04 220.3"/><polygon class="cls-3" points="150.98 232.31 150.98 280.88 254.88 280.88 254.88 228.96 150.98 232.31"/><path class="cls-15" d="M258,229l38-.61v-8c-.53,0-38,0-38,0Z"/><polygon class="cls-13" points="166.69 231.8 166.69 231.8 166.78 231.8 166.69 231.8"/><polygon class="cls-14" points="220.78 230.06 219.29 230.1 186.14 231.17 185.27 231.2 166.78 231.8 166.69 231.8 150.98 232.31 150.98 236.61 166.69 236.17 168.58 236.12 185.27 235.66 187.16 235.61 202.99 235.17 205.23 235.1 219.3 234.72 221.61 234.65 236.78 234.23 238.79 234.18 254.88 233.73 254.88 228.96 220.78 230.06"/><path class="cls-16" d="M200.15,217.1c-1.2,7.56-2.26,4.86-6,7.17-2,1.23-4.83.46-7,.27-4.88-.4-11,1.65-15.74.52-2.72-.65-5.55-1.45-7.56-3.39a16,16,0,0,1-2.94-4.47c-.61-1.21-.25-8.24-.07-9.59.76-5.88.89-8.89,3-13.22,1.41-2.9,3.63-3.92,6.64-5.11,3.68-1.45,4.17-.82,9.13.19,1,.2,16,0,15-3.14,1.18,3.7,2.63,6.63,3.32,10.5L200.18,210A21.19,21.19,0,0,1,200.15,217.1Z"/><path class="cls-16" d="M160.16,214.41a2.07,2.07,0,0,0-.32.19,4.77,4.77,0,0,0-1.52,2c-1.32,3-.69,6.72.14,9.76.2.74,3.25,7.58,3.37,7.57-1.29.08,1.11,1.9,2,1.3,1.88-.72.9-5.51,1.59-7.1,1.17-2.71,5.72-1.62,8.23-1.64,1.58,0,3.31-.09,4.49-1.15a4,4,0,0,0,1.12-1.89c.75-2.75-1.08-5.67-3.54-7.12s-5.39-1.74-8.22-2l-3.32-.31A7,7,0,0,0,160.16,214.41Z"/><path class="cls-16" d="M171.2,225.31c-1.95,2.48-5.79,7.66-7,10.54-.29.66.58,1.46.32,2.12s-1,.53-1.51.91a2.6,2.6,0,0,0-.78.77c-.14.27-.18.67-.41.88a1.13,1.13,0,0,1-1.2,0c-.32-.3-.09-1,0-1.41a15.54,15.54,0,0,0,.67-3.21c-.09-3.2-3-7.62-3-10.86"/><path class="cls-16" d="M192.15,219.63c2,6.74-1.82,8.69.51,14.85.3.8,1.55,1,1.76,1.81s-.59,1.18-.81,1.9a3,3,0,0,0-.16,1.08c0,.35.26.77.24,1.1a1.56,1.56,0,0,1-1,1c-.58.1-.89-.61-1.11-1-.63-1.21-.84-2.68-1.69-3.78-2.28-3-10.36-5.27-11.55-12.47"/><path class="cls-16" d="M144.21,174.07c3.09,26,39.31,33,57.12,18.27,3.19-2.65,6.65-5.9,8.54-9.78,3.49-7.19,3.56-18,.63-25.09a60.29,60.29,0,0,0-6.95-12.31,23.15,23.15,0,0,0-8.48-7.44,27,27,0,0,0-4.8-2.2,33.75,33.75,0,0,0-11.63-1.78c-2,0-3.91.47-5.9.7-9.64,1.11-16.67,6.78-21.76,14.35S143.13,165,144.21,174.07Z"/><path class="cls-16" d="M164.23,133.45a5.89,5.89,0,0,0-1.75,2.27,4.43,4.43,0,0,0,.06,2.92c1.22,3.45,4.53,4.66,7.62,2.4a4.12,4.12,0,0,0,1.19-1.27,5.23,5.23,0,0,0,.53-2.82,6.23,6.23,0,0,0-.72-3c-1-1.72-3.65-1.94-5.4-1.5a3.56,3.56,0,0,0-1.42.88Z"/><path class="cls-16" d="M196.6,138.58a4,4,0,0,0-1.26,1c-1.5,1.74-.58,5.19.56,6.91a4,4,0,0,0,4.09,1.88,4.21,4.21,0,0,0,1.41-.73c2-1.51,3.46-5,2.14-7.36S199,137.35,196.6,138.58Z"/><path class="cls-16" d="M182.73,132.67a.81.81,0,0,1-.34.16c.25,0-.48-.46-.5-.47-.37-.12-.9.26-1.24.34-.91.22-1.7.24-2.25,1.18.13-.23,4.45,2.17,4.78,2.28a13.81,13.81,0,0,0,7.43.4c.26-.06.56-.18.59-.45s-.18-.42-.36-.56a26.78,26.78,0,0,1-2.9-2.35c-.86-.8-1.19-.62-2.25-.38-.27.06,1-.92.65-.85s.08-.07-.3-.51S183.58,132.1,182.73,132.67Z"/><path class="cls-6" d="M166.19,162.87c-11.16-.35-13.12,3.86-12.28,11.24.59,5.21,6.18,8.49,10.26,8.84a15.85,15.85,0,0,0,3.77-.18s13.1-2.17,10-13A13.94,13.94,0,0,0,166.19,162.87Z"/><path class="cls-17" d="M167.22,167.25c-.92-.29-5-1-6-.82s-1,2.48-.49,2.94a3.87,3.87,0,0,0,4.54.47C165.94,169.42,168.18,167.55,167.22,167.25Z"/><path class="cls-18" d="M163.33,168.41c-1.71,2.3-2.39,4.52-1.31,7.14"/><path class="cls-6" d="M174.46,158.75c.23,1.59,1.33,2.75,2.47,2.59s1.88-1.58,1.66-3.17-1.34-2.75-2.48-2.59S174.24,157.16,174.46,158.75Z"/><path class="cls-19" d="M175,158.68a1.47,1.47,0,0,0,1.3,1.55,1.41,1.41,0,0,0,1.16-1.61,1.49,1.49,0,0,0-1.3-1.55A1.41,1.41,0,0,0,175,158.68Z"/><path class="cls-6" d="M175.32,158.26a.66.66,0,0,0,.18.73.36.36,0,0,0,.56-.2.64.64,0,0,0-.17-.73A.37.37,0,0,0,175.32,158.26Z"/><path class="cls-6" d="M161.34,157.53c-.49,1.53-1.78,2.48-2.87,2.13s-1.59-1.88-1.1-3.41,1.78-2.48,2.88-2.13S161.83,156,161.34,157.53Z"/><path class="cls-19" d="M160.27,157.15a1.48,1.48,0,0,1-1.55,1.31,1.41,1.41,0,0,1-.86-1.79,1.47,1.47,0,0,1,1.54-1.3A1.41,1.41,0,0,1,160.27,157.15Z"/><path class="cls-6" d="M159.15,156.49a.63.63,0,0,1-.3.69.37.37,0,0,1-.52-.29.65.65,0,0,1,.3-.69A.36.36,0,0,1,159.15,156.49Z"/><path class="cls-17" d="M158.89,174.33a4.35,4.35,0,0,1,1.07.13,4.25,4.25,0,0,1,.87.13,4.13,4.13,0,0,0,1.3.32,6,6,0,0,0,1.46-.14,15.47,15.47,0,0,1,2.68-.52.36.36,0,0,1,.18,0,.3.3,0,0,1,.12.15,2.59,2.59,0,0,1,0,2.16,3.53,3.53,0,0,1-1.5,1.58,5.6,5.6,0,0,1-2.12.63,3.25,3.25,0,0,1-2.33-.49,3.11,3.11,0,0,1-.85-1.14c-.22-.47-.41-.95-.64-1.41a2.22,2.22,0,0,1-.36-1.13"/><path class="cls-16" d="M189.8,196.72c.56.39,2.37,1.39,2.63,2,1.84,4.46,5.52,7.29,7.92,11.36a2.61,2.61,0,0,1,.43,1.13c0,.34-.09.68-.07,1s.24.72.58.72.68-.5,1.07-.43.45.58.6,1a1.74,1.74,0,0,0,2.66.42,3.84,3.84,0,0,0,1.11-2.85c.15-3.53-1.47-6.9-3.43-9.84-2.1-3.15-4.34-7.6-7.92-9.58"/><path class="cls-16" d="M170.32,194.47a71,71,0,0,1-9.51,1.41c-5.25-.69-9.93,1.34-15.1,1.42a2.82,2.82,0,0,1-1.32-.2c-.33-.18-.59-.47-.93-.64a.75.75,0,0,0-1,.16c-.21.39.11.95-.16,1.29s-.8.12-1.23.06c-1.14-.17-2,1.21-1.82,2.38a4.34,4.34,0,0,0,2.13,2.67c3.28,2.13,7.37,2.42,11.23,2.14,4.14-.3,8.2-.94,12.36-.94"/><path class="cls-6" d="M260.52,213.94c-.78,8.34-2.13,5.46-6.09,8.25-2.11,1.48-5.24.82-7.67.77-5.34-.11-11.92,2.55-17.13,1.64-3-.52-6.15-1.19-8.48-3.17-1.49-1.27-1.81-3-2.8-4.67a14,14,0,0,1-1.15-4c-1.37-5.41-1.63-12.48.37-17.35,1.35-3.26,2.09-6.68,4-9.66,3.31-5.22,9.1-1.26,14.58-.49,1.11.15,17.42-1.09,16.11-4.45,1.54,3.95,3.32,7,4.34,11.22q1.76,7.09,3.49,14.2A23,23,0,0,1,260.52,213.94Z"/><path class="cls-6" d="M255,192.7a13.15,13.15,0,0,1,5.56.79,4.8,4.8,0,0,1,3.05,3.65,7.4,7.4,0,0,1-.45,3.56c-1.29,3.65-4.27,6.21-7.53,6.19"/><path class="cls-6" d="M245.73,197.65c7.76-1.45,13-4.34,18.23-12.48,3.8-5.94,5.12-13.87,3.32-22.92-.23-1.18-3.62-11.55-3.44-11.68a8.4,8.4,0,1,0-11-12.6,33.82,33.82,0,0,0-4.46-2.09c-2.09-1-1.53-.48-2.15-1.06-2.05-1.94-1.55-1.57-3.17-1.23-.28.06,1.09-.9.69-.84s.09-.06-.29-.51-2.56.61-3.45,1.17.69-.72-1.49-.07a11.26,11.26,0,0,1-1.78.18l.14.08a19.07,19.07,0,0,0-2.3.14c-1.1.14-2.36.25-3.63.41a8.17,8.17,0,0,0-5-5.05,8.37,8.37,0,0,0-10.63,5.22,8.52,8.52,0,0,0,1.83,8.72,51.49,51.49,0,0,0-7.63,10c-3.46,5.91-5.77,12.76-5.13,19.56a26.85,26.85,0,0,0,19,22.86"/><path class="cls-20" d="M225.4,167l-.87,4.33c-.1.49.82,1.55,1.15,1.81a2.68,2.68,0,0,0,3.46-.32"/><path class="cls-20" d="M224.53,171.32a3.29,3.29,0,0,1-2.4,1.29c-1.33-.08-2.37-.42-2.52-1.92"/><path class="cls-21" d="M219.66,160.25a2,2,0,1,1-1.27-2.61A2,2,0,0,1,219.66,160.25Z"/><path class="cls-6" d="M218.74,159a.7.7,0,1,1-.82-.53A.68.68,0,0,1,218.74,159Z"/><path class="cls-21" d="M236.53,163.49a2,2,0,1,1-1.27-2.61A2.05,2.05,0,0,1,236.53,163.49Z"/><path class="cls-6" d="M235.61,162.25a.7.7,0,0,1-1.36.29.69.69,0,0,1,.53-.82A.7.7,0,0,1,235.61,162.25Z"/><path class="cls-22" d="M226.29,169a2.91,2.91,0,0,0,1.75-.23,1.4,1.4,0,0,0,.42-2.25c-.89-.79-2.55-.78-3.65-1a7.29,7.29,0,0,0-2.51,0c-1.09.14-.62,2-.07,2.57a5.11,5.11,0,0,0,5.7.79c1.49-.76,1.6-2.27-.16-2.7"/><path class="cls-6" d="M215.4,212.92a3.15,3.15,0,0,0-.33.22,5,5,0,0,0-1.6,2.22c-1.35,3.28-.55,7.32.46,10.6.24.79,3.78,8.14,3.91,8.13-1.4.12,1.28,2,2.21,1.35,2-.85.81-6,1.52-7.78,1.19-3,6.19-1.93,8.93-2,1.73-.06,3.62-.19,4.87-1.38a4.34,4.34,0,0,0,1.17-2.1c.73-3-1.36-6.13-4.09-7.62s-5.95-1.73-9-1.93l-3.63-.24A7.76,7.76,0,0,0,215.4,212.92Z"/><path class="cls-6" d="M227.81,224.43c-2.05,2.76-6.08,8.51-7.36,11.68-.29.73.68,1.57.41,2.3s-1.07.6-1.61,1a3,3,0,0,0-.83.87c-.15.29-.17.73-.42,1a1.24,1.24,0,0,1-1.31.08c-.36-.32-.13-1.13-.07-1.54a16.93,16.93,0,0,0,.64-3.51c-.21-3.48-3.49-8.19-3.68-11.71"/><g class="cls-23"><path class="cls-6" d="M252.73,212.62a26.61,26.61,0,0,0-7.72-1.38c-2.47-.07-5.36,0-7.58,1.2a5.25,5.25,0,0,0-.72.47c-3.59,2.65-2.63,7.82-1.47,11.58"/><path class="cls-22" d="M252.79,212.4a28.6,28.6,0,0,0-8.9-1.4c-2.56,0-5.4.21-7.49,1.87-3.52,2.8-2.51,8-1.37,11.68.08.27.51.16.42-.11-1.12-3.68-2.18-8.95,1.6-11.51,2.14-1.45,4.91-1.53,7.41-1.48a27.72,27.72,0,0,1,8.22,1.38c.27.09.38-.34.11-.43Z"/></g><path class="cls-6" d="M222.77,194.31c-.37.7-1.22,2.82-1.69,3.47-3.43,4.8-5.43,6.34-5.82,11.82a3,3,0,0,0,.13,1.41c.16.36.45.66.61,1a.82.82,0,0,1-.23,1.05c-.41.21-1-.16-1.35.11s-.16.84-.12,1.3c.1,1.22-.63,2.76-2.57,1.82a5.91,5.91,0,0,1-2.64-2.4c-1.61-2.89-1.27-6.42-.69-9.54.84-4.58,2.53-8.73,6.19-11.77a20.87,20.87,0,0,1,2.37-1.7"/><path class="cls-6" d="M236.71,212.91c-3.59,2.65-2.63,7.82-1.47,11.58.24.79,5.2,10.16,6.12,9.48,2-.85.82-6,1.52-7.78,1.19-3,7.66-4.87,10.41-5,1.72-.06,3.61-.19,4.86-1.38a4.34,4.34,0,0,0,1.17-2.1c.37-1.5-.5-2.44-1.78-3.06a41.34,41.34,0,0,0-4.81-2,26.61,26.61,0,0,0-7.72-1.38c-2.47-.07-5.36,0-7.58,1.2A5.25,5.25,0,0,0,236.71,212.91Z"/><path class="cls-6" d="M252.61,222.64c-2.85,7.13-7.44,6.22-9.62,13.09-.28.88.65,1.91.28,2.73s-1.3.62-2,1.09a3.13,3.13,0,0,0-.88.82c-.23.31-.3.84-.54,1.1a1.68,1.68,0,0,1-1.51.21c-.56-.3-.35-1.12-.25-1.61.28-1.48,1.09-2.88,1.11-4.4.07-4.1-3.36-9.92-3.27-14.07"/><path class="cls-24" d="M239.87,213.48c-10.36.16-18.86-.75-19-2s8.17-2.45,18.53-2.61,18.84.75,19,2S250.22,213.32,239.87,213.48Z"/><polygon class="cls-25" points="222.81 189.24 238.37 188.59 238.37 211.69 222.81 211.24 222.81 189.24"/><polygon class="cls-26" points="256.64 189.44 238.37 188.59 238.37 211.69 256.64 210.99 256.64 189.44"/><polygon class="cls-27" points="229.28 188.97 229.28 211.42 231.78 211.5 231.78 188.87 229.28 188.97"/><polygon class="cls-28" points="246.3 188.96 246.3 211.39 248.83 211.29 248.83 189.07 246.3 188.96"/><path class="cls-6" d="M257.07,206.7a14.49,14.49,0,0,1-4,.63,10.28,10.28,0,0,1-1.84,0,29.82,29.82,0,0,0-4.1-.51,5.16,5.16,0,0,1-3.33-1.33c-1.21-1-1.07-2.72-.47-4a3.84,3.84,0,0,1,1.25-1.64c.68-.45,1.62-.48,2.21-1.08-.13-.17-.44-.35-.46-.59s.44-.56.72-.6a2.38,2.38,0,0,1,.84,0,11.74,11.74,0,0,1,1.52.4,1.4,1.4,0,0,0,.45.1,1.37,1.37,0,0,0,.34-.07,25.34,25.34,0,0,1,7.9-.92"/></g></g></g></svg>