<svg xmlns="http://www.w3.org/2000/svg" viewBox="0 0 747.56 395.52"><defs><style>.cls-1{fill:#f2f2f2;}.cls-2,.cls-5{fill:#1cada4;}.cls-2{stroke:#77cec8;stroke-width:0.96px;}.cls-2,.cls-23,.cls-24{stroke-miterlimit:10;}.cls-18,.cls-3,.cls-7{fill:#fff;}.cls-3{opacity:0.98;}.cls-4{fill:#fef8d3;}.cls-6{fill:#b6e5e2;}.cls-14,.cls-15,.cls-7,.cls-9{font-size:21.5px;font-family:PingFangTC-Medium-B5pc-H, PingFang TC;}.cls-10,.cls-13,.cls-8{font-size:83.25px;font-family:DFCaiDaiStd-W7-B5pc-H, DFCaiDai Std;}.cls-10,.cls-13,.cls-15,.cls-8{fill:#ef5e5e;}.cls-8{letter-spacing:-0.08em;}.cls-14,.cls-9{fill:#1c1c1c;}.cls-9{letter-spacing:0.1em;}.cls-10{letter-spacing:-0.2em;}.cls-11{letter-spacing:-0.02em;}.cls-12{letter-spacing:0em;}.cls-13{letter-spacing:0.05em;}.cls-14{letter-spacing:0.1em;}.cls-16{fill:#eeeeef;}.cls-17{fill:#92d8d3;}.cls-19,.cls-23,.cls-24{fill:none;stroke:#231815;}.cls-19{stroke-linecap:round;stroke-linejoin:round;stroke-width:1.15px;}.cls-20{fill:#140405;}.cls-21{fill:#231815;}.cls-22{fill:#140407;}.cls-23{stroke-width:0.56px;}.cls-24{stroke-width:0.58px;}</style></defs><g id="Layer_2" data-name="Layer 2"><g id="圖層_1" data-name="圖層 1"><rect class="cls-1" x="151.79" y="122.48" width="145.55" height="130.03"/><circle class="cls-2" cx="165.33" cy="133.08" r="2.89"/><circle class="cls-2" cx="283.8" cy="133.08" r="2.89"/><circle class="cls-2" cx="165.33" cy="241.92" r="2.89"/><circle class="cls-2" cx="283.8" cy="241.92" r="2.89"/><rect class="cls-3" x="301.86" y="122.48" width="145.55" height="130.03"/><circle class="cls-2" cx="315.4" cy="133.08" r="2.89"/><circle class="cls-2" cx="433.87" cy="133.08" r="2.89"/><circle class="cls-2" cx="315.4" cy="241.92" r="2.89"/><circle class="cls-2" cx="433.87" cy="241.92" r="2.89"/><rect class="cls-4" x="451.93" y="123" width="145.55" height="130.03"/><circle class="cls-2" cx="465.47" cy="133.6" r="2.89"/><circle class="cls-2" cx="583.95" cy="133.6" r="2.89"/><circle class="cls-2" cx="465.47" cy="242.44" r="2.89"/><circle class="cls-2" cx="583.95" cy="242.44" r="2.89"/><rect class="cls-5" x="602.01" y="122.97" width="145.55" height="130.03"/><rect class="cls-6" x="602.01" y="122.97" width="71.7" height="31.06"/><rect class="cls-6" x="675.86" y="122.97" width="71.7" height="31.06"/><rect class="cls-6" x="700.12" y="221.94" width="47.44" height="31.06"/><rect class="cls-6" x="651.41" y="221.94" width="46.74" height="31.06"/><rect class="cls-6" x="602.01" y="221.94" width="47.44" height="31.06"/><rect class="cls-6" x="700.12" y="155.96" width="47.44" height="31.06"/><rect class="cls-6" x="651.41" y="155.96" width="46.74" height="31.06"/><rect class="cls-6" x="602.01" y="155.96" width="47.44" height="31.06"/><text class="cls-7" transform="translate(632.04 213.15)">現金回饋</text><rect class="cls-5" y="122.97" width="145.55" height="130.03"/><rect class="cls-6" y="122.97" width="71.7" height="31.06"/><rect class="cls-6" x="73.85" y="122.97" width="71.7" height="31.06"/><rect class="cls-6" x="98.11" y="221.94" width="47.44" height="31.06"/><rect class="cls-6" x="49.41" y="221.94" width="46.74" height="31.06"/><rect class="cls-6" y="221.94" width="47.44" height="31.06"/><rect class="cls-6" x="98.11" y="155.96" width="47.44" height="31.06"/><rect class="cls-6" x="49.41" y="155.96" width="46.74" height="31.06"/><rect class="cls-6" y="155.96" width="47.44" height="31.06"/><rect class="cls-6" y="188.95" width="71.7" height="31.06"/><rect class="cls-6" x="73.85" y="188.95" width="71.7" height="31.06"/><text class="cls-8" transform="translate(337.34 205.75)">3</text><text class="cls-9" transform="translate(352.86 237.63)">網購</text><text class="cls-10" transform="translate(464.84 202.26)">1<tspan class="cls-11" x="39.13" y="0">3</tspan></text><text class="cls-9" transform="translate(503.39 235.08)">娛<tspan class="cls-12" x="23.65" y="0">樂</tspan></text><text class="cls-13" transform="translate(185.08 205.75)">1</text><text class="cls-14" transform="translate(201.38 237.54)">一般</text><text class="cls-15" transform="translate(557.05 202.65)">％</text><text class="cls-15" transform="translate(388.05 205.65)">％</text><text class="cls-15" transform="translate(228.05 205.65)">％</text><path d="M691.69,105.9c1.6,1.91,4.78,7.94,6.39,9.85,1.15,1.36,2,2.89,3.12,4.26.44.55,2.07,1.19,1.88,2-.12.53-.86.64-1.37.44a7.41,7.41,0,0,0-1.5-.67,10.17,10.17,0,0,0-1.65.19c-.91,0-1.25-1-1.57-1.72-.54-.84-8.76-2-9.73-2.33"/><path d="M680.54,89.25c6.52,3.22,12.67,17.57,12.1,23a15,15,0,0,1-.51,2.29,1.84,1.84,0,0,1-.41.84c-.39.36-1.54,2.64-2,2.64-6.64.06-5,.38-10.31-1.72-4-1.61-7-.9-8.59-1.68a4.28,4.28,0,0,1-1.44-1.34,6.36,6.36,0,0,1-.92-6.71"/><path d="M655,107c-1.33,2.12-1.22,7.09-2.56,9.2-1,1.5-1.57,3.13-2.5,4.64-.37.61-1.89,1.47-1.59,2.27.19.51.94.51,1.42.24a7.31,7.31,0,0,1,1.39-.87,11.59,11.59,0,0,1,1.67,0c.9-.11,1.09-1.2,1.31-1.92.42-.9,4.91-1.54,5.7-2.17"/><path d="M664.29,91.12c-6.47,3.78-11,17.83-9.7,22.77a12.2,12.2,0,0,0,.85,2.07,1.65,1.65,0,0,0,.55.73c.46.29,2,2.26,2.46,2.22,7-.75,5.41-.26,10.69-2.84,4.05-2,7.33-1.68,8.88-2.6a4.23,4.23,0,0,0,1.35-1.41,5.35,5.35,0,0,0,.06-6.34"/><path d="M663.12,75c-.52,1.35-10.08,16.84-7.49,28.93.58,2.67,4,11,17.08,11.68,3.68.19,9,.21,12.25-1.34,7.18-3.45,10.72-6.47,10.34-15.45-.25-6.06-2.29-12-3.93-17.67a19.77,19.77,0,0,0-2.07-5C674.12,79.64,663.12,75,663.12,75Z"/><path d="M696.69,16.09a6,6,0,0,1,1.2,2.75,4.37,4.37,0,0,1-.88,2.9c-2.25,3.13-6.07,3.44-8.7.35a4.34,4.34,0,0,1-.9-1.59,5.26,5.26,0,0,1,.23-3,6.46,6.46,0,0,1,1.6-2.81c1.55-1.44,4.39-1,6.11,0A3.89,3.89,0,0,1,696.6,16Z"/><path d="M660.51,17.11a4.32,4.32,0,0,1,.93,1.42c.9,2.23-1.31,5.26-3.11,6.51a4.46,4.46,0,0,1-4.88.35,4.42,4.42,0,0,1-1.19-1.21c-1.5-2.2-1.72-6.09.51-7.92S658.52,15.06,660.51,17.11Z"/><path d="M639.06,51.82c0,27.39,37.25,40.16,57.85,27.5,3.69-2.26,7.75-5.12,10.22-8.86,4.58-6.93,6-18.14,3.81-25.93a65,65,0,0,0-5.78-13.81,25.35,25.35,0,0,0-8-9,29.7,29.7,0,0,0-4.78-3,37,37,0,0,0-12-3.59c-2.12-.26-4.18-.1-6.3-.16-10.29-.28-18.4,4.54-24.71,11.63S639.05,42.22,639.06,51.82Z"/><path d="M676.77,14.55a1.07,1.07,0,0,0,.34.27c-.27-.1.68-.37.71-.37.45,0,.95.53,1.32.71,1,.48,1.87.72,2.25,1.89-.09-.28-5.65,1.12-6,1.15a17,17,0,0,1-8.58-1.61c-.28-.13-.59-.35-.55-.65s.31-.41.56-.5a34,34,0,0,0,3.92-1.75c1.19-.63,1.53-.34,2.67.2.29.14-.94-1.27-.52-1.09s-.08-.1.47-.47S676,13.7,676.77,14.55Z"/><path d="M692.09,91.13c.67-.4,2.53-1.85,3.3-1.8,5.45.36,10.07-2.17,15.38-2.63a2.76,2.76,0,0,1,1.37.12c.36.16.65.46,1,.62a.75.75,0,0,0,1-.25c.19-.43-.19-1,.06-1.4s.81-.18,1.25-.15c1.19.1,2-1.45,1.67-2.69a4.73,4.73,0,0,0-2.43-2.71c-3.56-2-7.79-2.06-11.72-1.48-4.22.63-8.34,1.62-12.61,1.93"/><path d="M659.18,89.68c-.65-.43-2.46-1.94-3.23-1.92-5.46.16-10-2.52-15.27-3.17a2.69,2.69,0,0,0-1.38.07c-.36.15-.67.43-1,.58a.74.74,0,0,1-1-.29c-.17-.43.23-1,0-1.39s-.8-.22-1.25-.2c-1.19.06-1.93-1.52-1.57-2.74A4.71,4.71,0,0,1,637,78c3.64-1.92,7.86-1.78,11.78-1.06,4.19.78,8.27,1.92,12.52,2.37"/><path class="cls-16" d="M689,107.65a11.3,11.3,0,0,1-2.83,1.45,8.62,8.62,0,0,1-3.2.5,7.67,7.67,0,0,1-3.16-.85,9.18,9.18,0,0,1-2.55-1.9c1,.42,1.91.85,2.86,1.17a10.35,10.35,0,0,0,2.89.56A22.05,22.05,0,0,0,689,107.65Z"/><path class="cls-16" d="M660.17,104.41a5,5,0,0,0,1.91,2.51,8.42,8.42,0,0,0,2.84,1.34,7.82,7.82,0,0,0,3.13.1,18.9,18.9,0,0,1,3.29-.31c-1.08.22-2.1.59-3.19.83a7,7,0,0,1-3.4,0,7.6,7.6,0,0,1-3-1.59A4.35,4.35,0,0,1,660.17,104.41Z"/><path class="cls-17" d="M329.88,355.7c.37-.73,1.24-3,1.95-3.46,5-2.94,7.69-7.79,12.1-11.33a3,3,0,0,1,1.27-.71c.4-.08.81,0,1.21-.09s.81-.41.76-.81-.71-.73-.7-1.2.62-.63,1-.87c1.09-.62,1-2.39,0-3.23a4.64,4.64,0,0,0-3.57-.82c-4.21.42-7.92,2.92-11.07,5.75-3.37,3-6.46,6.3-10,9.09"/><path class="cls-17" d="M297.78,345.51c-.65,1.4-11.24,16.52-9.22,30.21.57,3.85,4.54,6.71,15.9,10.43,3.6,1.18,8,.49,11.69.83,7.5.69,11.86-1.51,12.65-12.68.45-6.44-1.38-14-2.59-20.19a21.58,21.58,0,0,0-1.69-5.48C306.58,356.36,297.78,345.51,297.78,345.51Z"/><path class="cls-17" d="M326,342.46c5-7.38,9.49-12.81,7.1-23.3-1.75-7.65-3.43-16.11-12.13-21.65-1.14-.73-12.15-6-12.11-6.26a9.24,9.24,0,0,0-.86-5.45,9.54,9.54,0,0,0-18,4.6,39.78,39.78,0,0,0-5.23,2c-2.44.95-1.6.87-2.55.92-3.2.16-2.5,0-3.51,1.61-.18.27.14-1.58-.13-1.21s0-.12-.65-.16-1.54,2.54-1.8,3.69,0-1.12-1.24,1.15a14.94,14.94,0,0,1-1.27,1.57l.17-.05a22,22,0,0,0-1.71,2c-.76,1-1.68,2.09-2.56,3.24a9.39,9.39,0,0,0-12.29,12.72c1.64,3.33,3.55,6,7,6A59.24,59.24,0,0,0,266.63,338c2,7.36,6.61,13.48,12.58,18.22,6.37,5.07,19.18,3.51,26.67,3.14,0,0,1.06-1,1.05-1l19.84-2.86C326.57,355.22,325.79,342.74,326,342.46Z"/><path class="cls-17" d="M304.22,373.78c-14.06-2.51-17.65,9.85-19,13.94-.2.6,2.63,1.29,4.67,1,13.95-2,19.54,2.94,26.82-12.8"/><path class="cls-17" d="M294.3,375.17c-.86.47-1.82.73-2.72,1.12-4.06,1.73-6.2,6.5-10.2,8.23-1.76.76-3.79.38-5.59,1a4.51,4.51,0,0,0-1.3.74c-.43.42-.51.53-.45.85a1,1,0,0,0,1.13.71,3.54,3.54,0,0,1,.45-.08,7.43,7.43,0,0,1,1.25-.05,3.42,3.42,0,0,1,1.63.56c.74.47.85,1.49,1.89,1.5.83,0,1.08-.93,1.74-1.18a6.76,6.76,0,0,1,2.66-.28,16.23,16.23,0,0,1,3.94.25"/><path class="cls-17" d="M319.27,370.67c14.81-2.68,16.59,15.2,17.88,19.35.18.6.05-.48-5,1-8.45,2.5-31.24-2.24-33.6-11.51"/><path class="cls-17" d="M328.33,372.79c3.07.58,4.39,3.86,4.9,4.55,2.59,3.51,3.69,9.78,7,12.78,1.47,1.32,3.59,1.65,5.14,2.86a4.84,4.84,0,0,1,1,1.15c.28.54.33.67.16.95a1,1,0,0,1-1.34.29l-.42-.23a7.29,7.29,0,0,0-1.2-.47,3.62,3.62,0,0,0-1.79,0c-.87.19-1.31,1.12-2.34.77-.81-.27-.75-1.24-1.31-1.71a7.37,7.37,0,0,0-2.52-1.17,77.53,77.53,0,0,0-8.52-1.13"/><path class="cls-17" d="M293.35,363.28c-3.06-.38-6.22-.26-9.19-1.08a54,54,0,0,0-9.51-1.75,2.85,2.85,0,0,0-1.2.06c-.4.14-.72.44-1.1.6a.85.85,0,0,1-1.11-.26c-.17-.39.14-.89-.08-1.25s-1-.2-1.51-.18c-1.11.06-1.9-1.27-1.67-2.36a4.12,4.12,0,0,1,2.11-2.48c3-1.83,6.71-2.09,10.21-1.74,5.23.51,10.35,1.77,15.61,2.15"/><path class="cls-18" d="M330.08,353.09c.36-.74,1.16-3.08,1.86-3.51,4.88-3.09,7.47-8,11.78-11.67a3,3,0,0,1,1.25-.75c.39-.09.81,0,1.21-.12s.8-.43.73-.83-.72-.71-.72-1.18.59-.65,1-.9c1.07-.65.9-2.41-.05-3.23a4.63,4.63,0,0,0-3.59-.72c-4.2.54-7.84,3.14-10.91,6.06-3.29,3.12-6.28,6.48-9.79,9.37"/><path class="cls-18" d="M301.53,341.47c-.7,1.38-11.83,16.1-10.3,29.86.43,3.87,4.3,6.87,15.52,11,3.55,1.31,8,.78,11.65,1.25,7.47,1,11.9-1.07,13.09-12.21.69-6.42-.87-14.05-1.86-20.27a21.6,21.6,0,0,0-1.49-5.54C309.93,352.63,301.53,341.47,301.53,341.47Z"/><path class="cls-18" d="M330.48,339.74c5.34-7,7.55-13.27,5.81-23.87-1.28-7.73-6.07-15.27-14.29-21.43-1.07-.8-11.57-6.85-11.52-7.1A9.34,9.34,0,1,0,292,285.1a37.76,37.76,0,0,0-5.24,1.59c-2.45.75-1.62.74-2.56.72-3.15-.08-2.45-.15-3.54,1.34-.19.26.23-1.56-.05-1.21s0-.12-.63-.21-1.65,2.41-2,3.53,0-1.1-1.28,1.06a14.2,14.2,0,0,1-1.34,1.47l.17,0a20.51,20.51,0,0,0-1.79,1.83c-.81.93-1.77,1.95-2.7,3a9.09,9.09,0,0,0-7.88-.47,9.3,9.3,0,0,0-4.9,12.21,9.44,9.44,0,0,0,8,5.85,57.55,57.55,0,0,0,1.11,13.91c1.52,7.47,4.7,14.85,10.28,20,6,5.5,18.62,4.9,26,5.08,0,0,1.1-.94,1.1-.91l19.63-1.38C324.18,352.23,330.28,340,330.48,339.74Z"/><path class="cls-18" d="M303.73,371.69c-14-2.79-17.84,9.5-19.32,13.56-.21.59,2.6,1.34,4.65,1.09,14-1.73,19.48,3.34,27.07-12.26"/><path class="cls-18" d="M293.78,372.89c-.87.45-1.83.69-2.74,1.06-4.1,1.65-6.32,6.37-10.36,8-1.78.73-3.8.31-5.61.91a4.42,4.42,0,0,0-1.32.72c-.44.4-.52.52-.46.83a1,1,0,0,0,1.11.73,3.71,3.71,0,0,1,.45-.06,7.46,7.46,0,0,1,1.25,0,3.48,3.48,0,0,1,1.63.6c.72.48.81,1.5,1.86,1.53.82,0,1.09-.9,1.75-1.14a6.85,6.85,0,0,1,2.68-.23,16.24,16.24,0,0,1,3.93.34"/><path class="cls-18" d="M319.11,367.28c14.89-2.15,16,15.79,17.16,20,.17.61.07-.48-5,.83-8.53,2.19-31.14-3.36-33.16-12.71"/><path class="cls-18" d="M328.08,369.72c3.05.69,4.25,4,4.73,4.73,2.46,3.6,3.34,9.9,6.59,13,1.42,1.37,3.52,1.78,5,3a4.75,4.75,0,0,1,1,1.19c.26.54.3.68.12,1a1,1,0,0,1-1.34.24,3.38,3.38,0,0,0-.41-.24,7.7,7.7,0,0,0-1.18-.52,3.62,3.62,0,0,0-1.79-.08c-.88.16-1.35,1.07-2.37.68-.8-.3-.71-1.27-1.25-1.75a7.18,7.18,0,0,0-2.48-1.26c-1.27-.5-7.11-1.25-8.47-1.43"/><path class="cls-18" d="M293.4,361c-3-.49-6.21-.48-9.16-1.41a53.3,53.3,0,0,0-9.43-2.09,2.9,2.9,0,0,0-1.21,0c-.4.12-.73.41-1.12.56s-.93.09-1.09-.3.17-.88,0-1.26-1-.23-1.5-.23a1.91,1.91,0,0,1-1.59-2.42,4.18,4.18,0,0,1,2.2-2.4c3.07-1.72,6.78-1.84,10.27-1.38,5.2.7,10.28,2.15,15.52,2.72"/><path class="cls-19" d="M310.14,316.16l2.35,3.76c.26.43-.23,1.75-.45,2.11a2.71,2.71,0,0,1-3.36.92"/><path class="cls-19" d="M312.49,319.92a3.28,3.28,0,0,0,2.71.37c1.21-.55,2.07-1.24,1.68-2.69"/><path class="cls-20" d="M313.15,307.8a2.05,2.05,0,1,0,.27-2.89A2.06,2.06,0,0,0,313.15,307.8Z"/><path class="cls-18" d="M313.58,306.32a.7.7,0,0,0,.79.58.69.69,0,0,0,.58-.79.69.69,0,1,0-1.37.21Z"/><path class="cls-20" d="M298.45,316.8a2.05,2.05,0,1,0,3.16-2.62,2.05,2.05,0,0,0-3.16,2.62Z"/><path class="cls-18" d="M298.88,315.31a.7.7,0,0,0,1.38-.21.7.7,0,0,0-.8-.58A.69.69,0,0,0,298.88,315.31Z"/><path class="cls-21" d="M310,318.32a2.92,2.92,0,0,1-1.72.4,1.4,1.4,0,0,1-1.18-2c.54-1.05,2.11-1.63,3.08-2.2a7.44,7.44,0,0,1,2.34-.93c1.07-.25,1.3,1.7,1,2.39a5.14,5.14,0,0,1-5.08,2.75c-1.67-.18-2.31-1.56-.81-2.59"/><path d="M82.7,71.08c.66.39,2.77,1.32,3.09,2,2.23,4.86,6.56,7.66,9.43,12a2.64,2.64,0,0,1,.53,1.24c0,.38-.09.78-.06,1.16s.3.79.69.76.78-.64,1.23-.61.53.61.71,1c.47,1.06,2.18,1,3.09.18a4.65,4.65,0,0,0,1.22-3.36c.09-4-1.86-7.67-4.2-10.78-2.51-3.35-5.28-6.43-7.53-10"/><path d="M64.39,108.67c.4.9,4.77,7.77,4.5,8.7-.31.67-.88,1.6-.28,2.27.36.4.9.64,1.2,1.09a6.76,6.76,0,0,1,.46,1.55c.18.51.73,1,1.2.74.74-.4.18-2,.3-2.7.3-1.71.89-3.31,1.16-5,.39-2.41,2.82-8.63,3.21-11"/><path d="M93,91.57c-.64,7.09-11.54,17.8-16.68,19.2a15.14,15.14,0,0,1-2.27.35,1.75,1.75,0,0,1-.91-.08c-.47-.22-3-.47-3.12-.86-2.41-6.05-2.14-4.49-2.09-10,0-4.25-1.67-6.74-1.51-8.44a4.23,4.23,0,0,1,.71-1.8,6.23,6.23,0,0,1,5.79-3.21"/><path d="M69.34,111.64c.08,1,2.62,4.62,2.26,5.52-.36.64-1,1.51-.49,2.23.32.44.84.72,1.09,1.21a6.72,6.72,0,0,1,.31,1.57c.13.53.64,1.06,1.13.86.77-.33.36-2,.55-2.66.46-1.67,1.2-3.21,1.64-4.89.62-2.37,4.24-5.62,4.86-8"/><path d="M81.68,88.77c2.45,6.91-3,20.32-7.15,23.16a11.85,11.85,0,0,1-1.94,1,1.64,1.64,0,0,1-.87.2c-.53-.08-2.92.43-3.24.1-4.81-5-3.88-3.61-6.2-8.88-1.78-4-5.34-6.34-5.92-8a4.11,4.11,0,0,1-.11-1.91c.25-2,2.33-3.8,4.88-4.32"/><path d="M58.15,64.12c-.35,1.38-5.3,15.82-5.3,25.69,0,8.24,4.57,13.72,20.41,12.47a114.62,114.62,0,0,0,11.62-1.34c5.78-1.1,12-6.63,8.93-17.92a113.55,113.55,0,0,0-6.33-16.63,19.31,19.31,0,0,0-2.76-4.59C69.87,67.22,58.15,64.12,58.15,64.12Z"/><path d="M36.36,13.46a5.84,5.84,0,0,0-.29,2.92,4.3,4.3,0,0,0,1.7,2.44c3,2.23,6.7,1.36,8.21-2.31a4.13,4.13,0,0,0,.35-1.76,5.16,5.16,0,0,0-1.11-2.69,6.27,6.27,0,0,0-2.34-2.12c-1.88-.87-4.37.44-5.7,1.81a3.71,3.71,0,0,0-.78,1.56S36.37,13.41,36.36,13.46Z"/><path d="M70.36,3.45a4.29,4.29,0,0,0-.44,1.6c-.16,2.35,2.81,4.5,4.87,5.12A4.36,4.36,0,0,0,79.44,9a4.25,4.25,0,0,0,.74-1.49C80.91,5,79.94,1.34,77.3.31S71.59.94,70.36,3.45Z"/><path d="M83.63,8.91c-8-4.69-17-6.72-26.53-3.34-2,.7-3.92,1.17-5.82,2.06a36.26,36.26,0,0,0-10.11,7,29.37,29.37,0,0,0-3.54,4.24A24.82,24.82,0,0,0,32.9,29.64a63.35,63.35,0,0,0-1.19,14.62c.31,7.91,5,17.92,11.39,23,3.44,2.74,8.08,4.16,12.2,5.16,23,5.55,52.43-9.12,46.94-35.65C100.33,27.55,91.58,13.56,83.63,8.91Z"/><path d="M53.68,5.82a1,1,0,0,1-.25.34C53.66,6,52.7,6,52.67,6c-.44.08-.77.73-1.08,1-.8.69-1.6,1.15-1.67,2.34,0-.28,5.63-.32,6-.39a16.75,16.75,0,0,0,7.74-3.64c.22-.2.47-.48.36-.76s-.4-.3-.66-.33a32.66,32.66,0,0,1-4.15-.69c-1.27-.31-1.52.05-2.47.85-.24.2.57-1.44.22-1.17s.05-.11-.57-.33S54.25,4.81,53.68,5.82Z"/><path d="M55.23,80.39c-.66-.38-2.49-1.77-3.25-1.72-5.33.42-9.89-2-15.09-2.39a2.65,2.65,0,0,0-1.34.13c-.35.16-.64.46-1,.62a.74.74,0,0,1-1-.23c-.18-.42.18-1-.06-1.37s-.8-.17-1.24-.13c-1.16.11-2-1.4-1.66-2.62A4.66,4.66,0,0,1,33,70c3.47-2,7.61-2.1,11.47-1.57,4.14.56,8.18,1.48,12.36,1.73"/><path class="cls-18" d="M76.36,31.89c-6,1.53-14.74,6.83-12.6,14.3,1.52,5.28,8.57,7.48,13.39,7a20.53,20.53,0,0,0,4.39-1c5.21-1.77,12.16-7,10.58-13.43S82,30.47,76.36,31.89Z"/><path class="cls-21" d="M73.09,37.3a35.21,35.21,0,0,1,7.17-2.87c1.18-.1.52,2.47.06,3.16a4.52,4.52,0,0,1-4.78,2C74.74,39.36,72.11,38,73.09,37.3Z"/><path class="cls-22" d="M76.16,44.35a6.48,6.48,0,0,0,7-2.77c.36-.58-.55-1.1-.91-.53a5.38,5.38,0,0,1-5.79,2.28.53.53,0,0,0-.28,1Z"/><path class="cls-23" d="M76.79,36.4a27.17,27.17,0,0,1,3.13,7.17"/><path class="cls-18" d="M81.18,26.62c.91,1.25,2.38,1.73,3.28,1.08s.88-2.2,0-3.45S82,22.52,81.14,23.17,80.27,25.37,81.18,26.62Z"/><path class="cls-18" d="M61.43,31.63c.09,1.55,1.06,2.75,2.17,2.68s1.93-1.37,1.84-2.92-1.07-2.74-2.18-2.67S61.34,30.09,61.43,31.63Z"/><path class="cls-21" d="M81.74,26.49a4.67,4.67,0,0,0,1.69-.34,1.87,1.87,0,0,0,1-1,.27.27,0,0,0-.19-.34.29.29,0,0,0-.35.19,1.37,1.37,0,0,1-.77.72,4.21,4.21,0,0,1-1.37.25.29.29,0,0,0-.28.28.27.27,0,0,0,.28.28Z"/><path class="cls-21" d="M61.89,32.16A4.11,4.11,0,0,0,65,31.73c.3-.18,0-.66-.28-.48a3.61,3.61,0,0,1-2.69.38.28.28,0,0,0-.15.53Z"/><path class="cls-17" d="M430.94,363c-.32-.72-1-3-1.71-3.43-4.75-2.89-7.14-7.7-11.3-11.19a2.79,2.79,0,0,0-1.21-.7c-.4-.08-.82,0-1.21-.08s-.78-.4-.7-.8.75-.73.77-1.2-.57-.62-1-.85c-1.05-.62-.81-2.38.18-3.23a4.88,4.88,0,0,1,3.62-.85c4.17.38,7.71,2.84,10.65,5.63,3.16,3,6,6.23,9.4,9"/><path class="cls-17" d="M469.77,379.51c.65.8,5,8.09,6,8.28.76,0,1.89-.06,2.23.81a9.8,9.8,0,0,0,.45,1.63c.29.48.83.75,1.21,1.16s.58,1.14.13,1.46c-.72.5-1.95-.79-2.64-1-1.73-.52-3.5-.73-5.22-1.28-2.43-.78-9.35-1.45-11.77-2.22"/><path class="cls-17" d="M435,359.62c-7.2,1.74-16.57,14.62-17.22,20.12a14.66,14.66,0,0,0,0,2.39,1.83,1.83,0,0,0,.22.93c.3.45.94,3,1.37,3.08,6.59,1.56,4.94,1.52,10.64.62,4.37-.7,7.19.69,8.92.26a4.37,4.37,0,0,0,1.74-1,6.5,6.5,0,0,0,2.42-6.47"/><path class="cls-17" d="M421.34,386.8c-1,.07-8.55-1.74-9.42-1.23-.6.48-1.4,1.29-2.22.85a10.8,10.8,0,0,0-1.41-.94,7.15,7.15,0,0,0-1.67-.08c-.56,0-1.19-.49-1.05-1,.21-.84,2-.67,2.64-1,1.66-.73,3.13-1.73,4.79-2.44,2.35-1,5.14-5.23,7.49-6.23"/><path class="cls-17" d="M443.15,386.19c5.26,5.53,20.28,6.77,24.87,4.28a12.14,12.14,0,0,0,1.85-1.33,1.69,1.69,0,0,0,.6-.72c.18-.52,1.78-2.5,1.62-2.95-2.39-6.83-1.52-5.31-5.32-10-2.92-3.55-3.38-7.94-4.65-9.27a4.33,4.33,0,0,0-1.72-1c-2-.71-4.63.37-6.32,2.49"/><path class="cls-17" d="M463.72,348.76c.36,1.44,5.52,16.48,5.52,26.76,0,8.57-4.76,14.29-21.25,13a120.59,120.59,0,0,1-12.1-1.39c-6-1.15-12.53-6.91-9.3-18.66a117.11,117.11,0,0,1,6.59-17.32,20.49,20.49,0,0,1,2.87-4.79C451.51,352,463.72,348.76,463.72,348.76Z"/><path class="cls-17" d="M486.41,296a6.06,6.06,0,0,1,.3,3,4.44,4.44,0,0,1-1.77,2.54c-3.17,2.32-7,1.42-8.55-2.4a4.47,4.47,0,0,1-.37-1.83,5.43,5.43,0,0,1,1.16-2.8,6.47,6.47,0,0,1,2.44-2.21c1.95-.91,4.55.46,5.93,1.88a3.76,3.76,0,0,1,.81,1.62A1.09,1.09,0,0,1,486.41,296Z"/><path class="cls-17" d="M451,285.59a4.42,4.42,0,0,1,.45,1.67c.17,2.45-2.92,4.68-5.06,5.33a4.56,4.56,0,0,1-4.85-1.2,4.4,4.4,0,0,1-.76-1.55c-.77-2.6.25-6.44,3-7.52S449.73,283,451,285.59Z"/><path class="cls-17" d="M417.81,320.28c-5.71,27.62,24.91,42.89,48.87,37.11,4.3-1,9.13-2.52,12.71-5.37,6.62-5.28,11.53-15.7,11.86-23.94A65.77,65.77,0,0,0,490,312.86a25.76,25.76,0,0,0-4.92-11.24,31.25,31.25,0,0,0-3.69-4.41,37.71,37.71,0,0,0-10.52-7.27c-2-.92-4-1.42-6.06-2.14-9.89-3.52-19.27-1.41-27.63,3.48S419.79,310.69,417.81,320.28Z"/><path class="cls-17" d="M463.2,286.37a1,1,0,0,1-.42.13c.3,0-.5-.6-.53-.61-.42-.2-1.1.15-1.52.18-1.1.1-2.05,0-2.84,1,.19-.23,4.95,3.17,5.32,3.34A17.37,17.37,0,0,0,472,292c.31,0,.69-.11.76-.42s-.15-.5-.34-.68a34.84,34.84,0,0,1-3.09-3.11c-.89-1-1.31-.89-2.6-.8-.33,0,1.36-.86.9-.85s.1-.06-.28-.62S464.3,285.87,463.2,286.37Z"/><path class="cls-17" d="M463.25,363.44c.77-.21,3-1.11,3.74-.84,5.24,1.87,10.48.7,15.81,1.72a2.82,2.82,0,0,1,1.31.51c.31.25.51.63.82.89a.76.76,0,0,0,1.06,0c.3-.37.09-1,.44-1.35s.85.05,1.28.21c1.13.42,2.35-.87,2.38-2.17a4.78,4.78,0,0,0-1.61-3.35c-2.93-3-7.07-4.19-11.09-4.72-4.31-.57-8.62-.75-12.89-1.65"/><path d="M428.44,358.53c-.32-.72-1-3-1.71-3.43-4.75-2.89-7.14-7.7-11.3-11.19a2.79,2.79,0,0,0-1.21-.7c-.4-.08-.82,0-1.21-.08s-.78-.4-.7-.8.75-.73.77-1.2-.57-.62-1-.85c-1.05-.62-.81-2.38.18-3.23a4.88,4.88,0,0,1,3.62-.85c4.17.38,7.71,2.84,10.65,5.63,3.16,3,6,6.23,9.4,9"/><path d="M467.27,375c.65.8,5,8.09,6,8.28.76,0,1.89-.06,2.23.81a9.8,9.8,0,0,0,.45,1.63c.29.48.83.75,1.21,1.16s.58,1.14.13,1.46c-.72.5-1.95-.79-2.64-1-1.73-.52-3.5-.73-5.22-1.28-2.43-.78-9.35-1.45-11.77-2.22"/><path d="M432.5,355.12c-7.2,1.74-16.57,14.62-17.22,20.12a14.66,14.66,0,0,0,0,2.39,1.83,1.83,0,0,0,.22.93c.3.45.94,3,1.37,3.08,6.59,1.56,4.94,1.52,10.64.62,4.37-.7,7.19.69,8.92.26a4.37,4.37,0,0,0,1.74-1,6.5,6.5,0,0,0,2.42-6.47"/><path d="M418.84,382.3c-1,.07-8.55-1.74-9.42-1.23-.6.48-1.4,1.29-2.22.85a10.8,10.8,0,0,0-1.41-.94,7.15,7.15,0,0,0-1.67-.08c-.56,0-1.19-.49-1.05-1,.21-.84,2-.67,2.64-1,1.66-.73,3.13-1.73,4.79-2.44,2.35-1,5.14-5.23,7.49-6.23"/><path d="M440.65,381.69c5.26,5.53,20.28,6.77,24.87,4.28a12.14,12.14,0,0,0,1.85-1.33,1.69,1.69,0,0,0,.6-.72c.18-.52,1.78-2.5,1.62-2.95-2.39-6.83-1.52-5.31-5.32-10-2.92-3.55-3.38-7.94-4.65-9.27a4.33,4.33,0,0,0-1.72-1c-2-.71-4.63.37-6.32,2.49"/><path d="M461.22,344.26c.36,1.44,5.52,16.48,5.52,26.76,0,8.57-4.76,14.29-21.25,13a120.59,120.59,0,0,1-12.1-1.39c-6-1.15-12.53-6.91-9.3-18.66a117.11,117.11,0,0,1,6.59-17.32,20.49,20.49,0,0,1,2.87-4.79C449,347.5,461.22,344.26,461.22,344.26Z"/><path d="M483.91,291.52a6.06,6.06,0,0,1,.3,3,4.44,4.44,0,0,1-1.77,2.54c-3.17,2.32-7,1.42-8.55-2.4a4.47,4.47,0,0,1-.37-1.83,5.43,5.43,0,0,1,1.16-2.8,6.47,6.47,0,0,1,2.44-2.21c1.95-.91,4.55.46,5.93,1.88a3.76,3.76,0,0,1,.81,1.62A1.09,1.09,0,0,1,483.91,291.52Z"/><path d="M448.51,281.09a4.42,4.42,0,0,1,.45,1.67c.17,2.45-2.92,4.68-5.06,5.33a4.56,4.56,0,0,1-4.85-1.2,4.4,4.4,0,0,1-.76-1.55c-.77-2.6.25-6.44,3-7.52S447.23,278.47,448.51,281.09Z"/><path d="M415.31,315.78c-5.71,27.62,24.91,42.89,48.87,37.11,4.3-1,9.13-2.52,12.71-5.37,6.62-5.28,11.53-15.7,11.86-23.94a65.77,65.77,0,0,0-1.24-15.22,25.76,25.76,0,0,0-4.92-11.24,31.25,31.25,0,0,0-3.69-4.41,37.71,37.71,0,0,0-10.52-7.27c-2-.92-4-1.42-6.06-2.14-9.89-3.52-19.27-1.41-27.63,3.48S417.29,306.19,415.31,315.78Z"/><path d="M460.7,281.87a1,1,0,0,1-.42.13c.3,0-.5-.6-.53-.61-.42-.2-1.1.15-1.52.18-1.1.1-2.05,0-2.84,1,.19-.23,4.95,3.17,5.32,3.34a17.37,17.37,0,0,0,8.75,1.65c.31,0,.69-.11.76-.42s-.15-.5-.34-.68a34.84,34.84,0,0,1-3.09-3.11c-.89-1-1.31-.89-2.6-.8-.33,0,1.36-.86.9-.85s.1-.06-.28-.62S461.8,281.37,460.7,281.87Z"/><path d="M460.75,358.94c.77-.21,3-1.11,3.74-.84,5.24,1.87,10.48.7,15.81,1.72a2.82,2.82,0,0,1,1.31.51c.31.25.51.63.82.89a.76.76,0,0,0,1.06,0c.3-.37.09-1,.44-1.35s.85.05,1.28.21c1.13.42,2.35-.87,2.38-2.17a4.78,4.78,0,0,0-1.61-3.35c-2.93-3-7.07-4.19-11.09-4.72-4.31-.57-8.62-.75-12.89-1.65"/><path class="cls-18" d="M442.26,310.7c6.29,1.59,15.34,7.11,13.11,14.9-1.57,5.49-8.91,7.78-13.94,7.24a21.05,21.05,0,0,1-4.56-1c-5.43-1.84-12.67-7.26-11-14S436.43,309.22,442.26,310.7Z"/><path class="cls-21" d="M445.66,316.34a35.9,35.9,0,0,0-7.46-3c-1.23-.11-.54,2.57-.07,3.28,1,1.54,3.12,2.7,5,2.11C444,318.48,446.69,317,445.66,316.34Z"/><path class="cls-22" d="M442.17,322.62a5.59,5.59,0,0,1-6-2.38c-.38-.59-1.32-.05-.95.55a6.73,6.73,0,0,0,7.26,2.88.54.54,0,0,0-.29-1.05Z"/><path class="cls-24" d="M441.81,315.4a28.17,28.17,0,0,0-3.26,7.47"/><path class="cls-18" d="M437.24,305.22c-.95,1.3-2.48,1.8-3.41,1.12s-.92-2.29,0-3.6,2.48-1.8,3.42-1.11S438.19,303.92,437.24,305.22Z"/><path class="cls-18" d="M457.81,310.44c-.1,1.61-1.11,2.86-2.27,2.79s-2-1.43-1.91-3,1.11-2.86,2.26-2.79S457.9,308.83,457.81,310.44Z"/><path class="cls-21" d="M436.66,304.5a4.58,4.58,0,0,1-1.43-.26,1.44,1.44,0,0,1-.8-.75.29.29,0,0,0-.36-.2.29.29,0,0,0-.21.36,2,2,0,0,0,1,1.08,4.8,4.8,0,0,0,1.76.35.28.28,0,0,0,.29-.29.29.29,0,0,0-.29-.29Z"/><path class="cls-21" d="M457.17,310.43a3.7,3.7,0,0,1-2.8-.39.29.29,0,0,0-.29.5,4.32,4.32,0,0,0,3.24.45.29.29,0,0,0-.15-.56Z"/></g></g></svg>