<svg xmlns="http://www.w3.org/2000/svg" viewBox="0 0 1328 108"><defs><style>.cls-1{fill:#1cada4;}.cls-2{fill:#77cec8;}.cls-3{fill:none;}</style></defs><g id="Layer_2" data-name="Layer 2"><g id="圖層_1" data-name="圖層 1"><rect class="cls-1" y="1" width="1328" height="107"/><rect class="cls-2" x="3.18" y="1" width="46.18" height="107"/><rect class="cls-2" x="52.36" y="1" width="46.18" height="107"/><rect class="cls-2" x="101.54" y="1" width="46.18" height="107"/><rect class="cls-2" x="150.71" y="1" width="46.18" height="107"/><rect class="cls-2" x="199.89" y="1" width="46.18" height="107"/><rect class="cls-2" x="249.07" y="1" width="46.18" height="107"/><rect class="cls-2" x="298.25" y="1" width="46.18" height="107"/><rect class="cls-2" x="347.43" y="1" width="46.18" height="107"/><rect class="cls-2" x="396.61" y="1" width="46.18" height="107"/><rect class="cls-2" x="445.79" y="1" width="46.18" height="107"/><rect class="cls-2" x="494.96" y="1" width="46.18" height="107"/><rect class="cls-2" x="544.14" y="1" width="46.18" height="107"/><rect class="cls-2" x="593.32" y="1" width="46.18" height="107"/><rect class="cls-2" x="642.5" y="1" width="46.18" height="107"/><rect class="cls-2" x="691.68" y="1" width="46.18" height="107"/><rect class="cls-2" x="740.86" y="1" width="46.18" height="107"/><rect class="cls-2" x="790.04" y="1" width="46.18" height="107"/><rect class="cls-2" x="839.21" y="1" width="46.18" height="107"/><rect class="cls-2" x="888.39" y="1" width="46.18" height="107"/><rect class="cls-2" x="937.57" y="1" width="46.18" height="107"/><rect class="cls-2" x="986.75" y="1" width="46.18" height="107"/><rect class="cls-2" x="1035.93" y="1" width="46.18" height="107"/><rect class="cls-2" x="1085.11" y="1" width="46.18" height="107"/><rect class="cls-2" x="1134.29" y="1" width="46.18" height="107"/><rect class="cls-2" x="1183.46" y="1" width="46.18" height="107"/><rect class="cls-2" x="1232.64" y="1" width="46.18" height="107"/><rect class="cls-2" x="1281.82" y="1" width="46.18" height="107"/><rect class="cls-1" y="37" width="1328" height="40"/><rect class="cls-2" y="40" width="21.18" height="34"/><rect class="cls-2" x="24.18" y="40" width="46.18" height="34"/><rect class="cls-2" x="73.36" y="40" width="46.18" height="34"/><rect class="cls-2" x="122.54" y="40" width="46.18" height="34"/><rect class="cls-2" x="171.71" y="40" width="46.18" height="34"/><rect class="cls-2" x="220.89" y="40" width="46.18" height="34"/><rect class="cls-2" x="270.07" y="40" width="46.18" height="34"/><rect class="cls-2" x="319.25" y="40" width="46.18" height="34"/><rect class="cls-2" x="368.43" y="40" width="46.18" height="34"/><rect class="cls-2" x="417.61" y="40" width="46.18" height="34"/><rect class="cls-2" x="466.79" y="40" width="46.18" height="34"/><rect class="cls-2" x="515.96" y="40" width="46.18" height="34"/><rect class="cls-2" x="565.14" y="40" width="46.18" height="34"/><rect class="cls-2" x="614.32" y="40" width="46.18" height="34"/><rect class="cls-2" x="663.5" y="40" width="46.18" height="34"/><rect class="cls-2" x="712.68" y="40" width="46.18" height="34"/><rect class="cls-2" x="761.86" y="40" width="46.18" height="34"/><rect class="cls-2" x="811.04" y="40" width="46.18" height="34"/><rect class="cls-2" x="860.21" y="40" width="46.18" height="34"/><rect class="cls-2" x="909.39" y="40" width="46.18" height="34"/><rect class="cls-2" x="958.57" y="40" width="46.18" height="34"/><rect class="cls-2" x="1007.75" y="40" width="46.18" height="34"/><rect class="cls-2" x="1056.93" y="40" width="46.18" height="34"/><rect class="cls-2" x="1106.11" y="40" width="46.18" height="34"/><rect class="cls-2" x="1155.29" y="40" width="46.18" height="34"/><rect class="cls-2" x="1204.46" y="40" width="46.18" height="34"/><rect class="cls-2" x="1253.64" y="40" width="46.18" height="34"/><rect class="cls-2" x="1302.82" y="40" width="25.18" height="35"/><rect class="cls-3" x="2" width="1326" height="108"/></g></g></svg>