<svg xmlns="http://www.w3.org/2000/svg" xmlns:xlink="http://www.w3.org/1999/xlink" viewBox="0 0 341.02 538.41"><defs><style>.cls-1{fill:#ade2de;}.cls-2{fill:#6dcac5;}.cls-3{fill:url(#未命名漸層_13);}.cls-4{opacity:0.7;}.cls-5{fill:#fff;}</style><linearGradient id="未命名漸層_13" x1="104.21" y1="473.81" x2="341.02" y2="473.81" gradientUnits="userSpaceOnUse"><stop offset="0" stop-color="#fff"/><stop offset="0.1" stop-color="#fff" stop-opacity="0.81"/><stop offset="0.24" stop-color="#fff" stop-opacity="0.6"/><stop offset="0.37" stop-color="#fff" stop-opacity="0.42"/><stop offset="0.5" stop-color="#fff" stop-opacity="0.27"/><stop offset="0.63" stop-color="#fff" stop-opacity="0.15"/><stop offset="0.76" stop-color="#fff" stop-opacity="0.07"/><stop offset="0.88" stop-color="#fff" stop-opacity="0.02"/><stop offset="1" stop-color="#fff" stop-opacity="0"/></linearGradient></defs><g id="Layer_2" data-name="Layer 2"><g id="圖層_1" data-name="圖層 1"><path class="cls-1" d="M12.86,441.77A47.57,47.57,0,0,1,48.6,429.53c1.21.1,2.57.33,3.28,1.32.83,1.15.4,2.75-.07,4.09L47.7,446.75c5.93-5,12.18-10.1,19.74-11.77,8.28-1.83,18.11.41,24.46-5.22,2.35,10.43,17.3,15.31,25.36,8.26,3.06,2.79-2.06,8.31.13,11.82,2.82,4.56,10.41-2.31,15.07.35a48.21,48.21,0,0,0,19,30.84c1.34,1,2.81,2,3.3,3.58s-.18,3.27-.84,4.79c-5.57,13-11.92,26.9-24.25,33.82-7.92,4.45-17.28,5.37-26.34,6a519.57,519.57,0,0,1-63.14.27c-11.36-.65-23.72-2.12-31.74-10.19-11.15-11.19-9-29.51-6.11-45q3-16,6-32"/><path class="cls-2" d="M105.87,525.21A580.54,580.54,0,0,1,162,458.9c25.42-25.85,57-50.74,93.41-49.65,10.72.32,21.74,3.17,29.84,10.14,7.18,6.18,11.44,15,15.51,23.48l38.82,81.28a10.75,10.75,0,0,1,1.46,5.18c-.35,5.08-6.93,6.8-12.05,7.12a1015.57,1015.57,0,0,1-224.75-11"/><path class="cls-3" d="M105.87,525.21A580.54,580.54,0,0,1,162,458.9c25.42-25.85,57-50.74,93.41-49.65,10.72.32,21.74,3.17,29.84,10.14,7.18,6.18,11.44,15,15.51,23.48l38.82,81.28a10.75,10.75,0,0,1,1.46,5.18c-.35,5.08-6.93,6.8-12.05,7.12a1015.57,1015.57,0,0,1-224.75-11"/><g class="cls-4"><path class="cls-5" d="M233.29,9.89C225,5.1,216.28.18,206.72,0s-20,6.27-20.63,15.8c-6.64-1.84-13.78.72-19.49,4.57-4,2.71-7.7,6.25-9.2,10.84s-.2,10.34,3.93,12.83c2.13,1.28,5,1.8,6.12,4,1.88,3.64-2.69,7.56-2.59,11.66.13,5.18,6.91,7,12.1,7a138.9,138.9,0,0,0,40.7-5.9c-1.57,4,3.21,8.09,7.54,8s8.2-2.57,12.29-4c1.33-.47,2.88-.81,4.11-.12,2.35,1.32,1.68,5,3.26,7.18,2.64,3.64,8.32.61,11.47-2.6,3.58-3.64,7.13-7.48,9.07-12.21s2-10.55-1.2-14.55a16.91,16.91,0,0,0,7.16-18.41,16.91,16.91,0,0,0-15.7-12c-5.68,0-11.85,2.75-16.75-.14-1.47-.86-2.67-2.19-4.26-2.8s-3.85-.07-4.18,1.6"/></g></g></g></svg>