<svg xmlns="http://www.w3.org/2000/svg" viewBox="0 0 258.18 459.65"><defs><style>.cls-1{fill:#ade2de;}.cls-2{opacity:0.7;}.cls-3{fill:#fff;}</style></defs><g id="Layer_2" data-name="Layer 2"><g id="圖層_1" data-name="圖層 1"><path class="cls-1" d="M37.81,429.88a70.32,70.32,0,0,1-19.66-25.54c-2.21-4.91-3.86-10.5-2.18-15.62s7.94-8.92,12.65-6.3a13.23,13.23,0,0,0,3.24,1.79c1.53.37,3.09-.32,4.51-1l21.21-10.09c1.81-.86,3.73-1.74,5.73-1.54,5.45.56,8.38,8.69,13.81,7.92,2.78-.39,4.58-3,6.75-4.82,5.71-4.67,14.08-3.33,21.29-1.74l1.78.39c15.4,3.39,31.8,7.34,42.53,18.89a3.14,3.14,0,0,1,1.13,2.39,3.42,3.42,0,0,1-.74,1.47c-4.45,6.27-4.94,14.52-8.47,21.35-6.07,11.73-19.66,17.1-32.15,21.41-18.67,6.45-38.71,12.75-57.85,7.85-8.11-2.07-15.93-6.36-20.68-13.25"/><path class="cls-1" d="M116.13,371.14a47.56,47.56,0,0,1,35.74-12.24c1.21.1,2.57.33,3.28,1.31.83,1.16.39,2.75-.07,4.09L151,376.12c5.93-5,12.18-10.11,19.74-11.78,8.28-1.83,18.11.41,24.46-5.22,2.35,10.44,17.3,15.31,25.36,8.27,3.06,2.79-2.06,8.3.12,11.82,2.83,4.56,10.42-2.32,15.08.34a48.19,48.19,0,0,0,19,30.84c1.34,1,2.81,2,3.3,3.58s-.19,3.27-.84,4.79c-5.57,13-11.92,26.91-24.25,33.83-7.92,4.44-17.28,5.37-26.34,6a517.55,517.55,0,0,1-63.14.26c-11.36-.65-23.72-2.12-31.74-10.18-11.15-11.2-9-29.52-6.11-45.05q3-16,6-32"/><g class="cls-2"><path class="cls-3" d="M36.91,60.84c7.91,4.58,16.26,9.29,25.4,9.45S81.38,64.31,82,55.2c6.34,1.76,13.17-.69,18.62-4.37,3.83-2.58,7.36-6,8.79-10.36s.2-9.87-3.76-12.26c-2-1.22-4.75-1.72-5.84-3.83-1.8-3.48,2.57-7.22,2.47-11.14-.12-5-6.6-6.7-11.56-6.72a132.42,132.42,0,0,0-38.89,5.64c1.5-3.86-3.06-7.73-7.2-7.65S36.81,7,32.91,8.33c-1.28.45-2.76.78-3.93.11-2.25-1.26-1.61-4.77-3.12-6.86-2.52-3.47-7.95-.58-11,2.48-3.42,3.48-6.82,7.16-8.67,11.67S4.36,25.81,7.38,29.64A16.15,16.15,0,0,0,.54,47.23a16.15,16.15,0,0,0,15,11.46c5.43,0,11.32-2.63,16,.13,1.41.82,2.55,2.09,4.07,2.68s3.69.06,4-1.54"/></g></g></g></svg>