<svg xmlns="http://www.w3.org/2000/svg" viewBox="0 0 356.83 89"><defs><style>.cls-1{font-size:41.72px;fill:#1c1c1c;font-family:PingFangTC-Medium-B5pc-H, PingFang TC;}.cls-2,.cls-4{font-size:25.03px;font-family:FZLTZHB--B51-0, Lantinghei TC;}.cls-3{letter-spacing:0.1em;}.cls-4{letter-spacing:0.1em;}.cls-5{letter-spacing:0em;}.cls-6{fill:#ef5e5e;}</style></defs><g id="Layer_2" data-name="Layer 2"><g id="圖層_1" data-name="圖層 1"><text class="cls-1" transform="translate(0 35.88)">玉山</text><text class="cls-1" transform="translate(85.94 35.88)">ＵBear</text><text class="cls-1" transform="translate(217.78 35.88)"><tspan xml:space="preserve"> 信用卡</tspan></text><text class="cls-2" transform="translate(63.47 82.35)"><tspan class="cls-3">享受美</tspan><tspan x="82.6" y="0">好</tspan></text><text class="cls-4" transform="translate(194.41 82.35)"><tspan xml:space="preserve">  </tspan><tspan class="cls-3" x="18.84" y="0">熊愛</tspan><tspan class="cls-5" x="73.91" y="0">你</tspan></text><path class="cls-6" d="M188,82.8c1.84-1.17,7.68-1.64,9.66-2.52a10.84,10.84,0,0,0,5.1-3.94c1.14-1.88,1.19-4.59-.38-6a4.69,4.69,0,0,0-4.48-.82,11.86,11.86,0,0,0-4.12,2.47c-1.48,1.23-3,2.79-3.07,4.73l-.65-.23c1.16-1.56,1-3.72.59-5.61A11.78,11.78,0,0,0,189,66.32a4.69,4.69,0,0,0-4-2.18c-2.15.15-3.81,2.28-4.1,4.46a10.89,10.89,0,0,0,1.48,6.28c1,1.92,4.92,5.85,5.61,7.92"/></g></g></svg>